<?xml version="1.0" encoding="utf-8"?>
<svg xmlns="http://www.w3.org/2000/svg" xmlns:xlink="http://www.w3.org/1999/xlink" width="600" height="400" viewBox="0 0 2400 1600">
<defs>
  <clipPath id="clip420">
    <rect x="0" y="0" width="2400" height="1600"/>
  </clipPath>
</defs>
<path clip-path="url(#clip420)" d="
M0 1600 L2400 1600 L2400 0 L0 0  Z
  " fill="#ffffff" fill-rule="evenodd" fill-opacity="1"/>
<defs>
  <clipPath id="clip421">
    <rect x="480" y="0" width="1681" height="1600"/>
  </clipPath>
</defs>
<path clip-path="url(#clip420)" d="
M287.366 1423.18 L2352.76 1423.18 L2352.76 123.472 L287.366 123.472  Z
  " fill="#ffffff" fill-rule="evenodd" fill-opacity="1"/>
<defs>
  <clipPath id="clip422">
    <rect x="287" y="123" width="2066" height="1301"/>
  </clipPath>
</defs>
<polyline clip-path="url(#clip422)" style="stroke:#000000; stroke-width:2; stroke-opacity:0.1; fill:none" points="
  332.605,1423.18 332.605,123.472 
  "/>
<polyline clip-path="url(#clip422)" style="stroke:#000000; stroke-width:2; stroke-opacity:0.1; fill:none" points="
  661.757,1423.18 661.757,123.472 
  "/>
<polyline clip-path="url(#clip422)" style="stroke:#000000; stroke-width:2; stroke-opacity:0.1; fill:none" points="
  990.909,1423.18 990.909,123.472 
  "/>
<polyline clip-path="url(#clip422)" style="stroke:#000000; stroke-width:2; stroke-opacity:0.1; fill:none" points="
  1320.06,1423.18 1320.06,123.472 
  "/>
<polyline clip-path="url(#clip422)" style="stroke:#000000; stroke-width:2; stroke-opacity:0.1; fill:none" points="
  1649.21,1423.18 1649.21,123.472 
  "/>
<polyline clip-path="url(#clip422)" style="stroke:#000000; stroke-width:2; stroke-opacity:0.1; fill:none" points="
  1978.36,1423.18 1978.36,123.472 
  "/>
<polyline clip-path="url(#clip422)" style="stroke:#000000; stroke-width:2; stroke-opacity:0.1; fill:none" points="
  2307.52,1423.18 2307.52,123.472 
  "/>
<polyline clip-path="url(#clip420)" style="stroke:#000000; stroke-width:4; stroke-opacity:1; fill:none" points="
  287.366,1423.18 2352.76,1423.18 
  "/>
<polyline clip-path="url(#clip420)" style="stroke:#000000; stroke-width:4; stroke-opacity:1; fill:none" points="
  332.605,1423.18 332.605,1407.58 
  "/>
<polyline clip-path="url(#clip420)" style="stroke:#000000; stroke-width:4; stroke-opacity:1; fill:none" points="
  661.757,1423.18 661.757,1407.58 
  "/>
<polyline clip-path="url(#clip420)" style="stroke:#000000; stroke-width:4; stroke-opacity:1; fill:none" points="
  990.909,1423.18 990.909,1407.58 
  "/>
<polyline clip-path="url(#clip420)" style="stroke:#000000; stroke-width:4; stroke-opacity:1; fill:none" points="
  1320.06,1423.18 1320.06,1407.58 
  "/>
<polyline clip-path="url(#clip420)" style="stroke:#000000; stroke-width:4; stroke-opacity:1; fill:none" points="
  1649.21,1423.18 1649.21,1407.58 
  "/>
<polyline clip-path="url(#clip420)" style="stroke:#000000; stroke-width:4; stroke-opacity:1; fill:none" points="
  1978.36,1423.18 1978.36,1407.58 
  "/>
<polyline clip-path="url(#clip420)" style="stroke:#000000; stroke-width:4; stroke-opacity:1; fill:none" points="
  2307.52,1423.18 2307.52,1407.58 
  "/>
<path clip-path="url(#clip420)" d="M 0 0 M279.631 1467.02 L309.307 1467.02 L309.307 1470.96 L279.631 1470.96 L279.631 1467.02 Z" fill="#000000" fill-rule="evenodd" fill-opacity="1" /><path clip-path="url(#clip420)" d="M 0 0 M320.21 1479.92 L327.849 1479.92 L327.849 1453.55 L319.538 1455.22 L319.538 1450.96 L327.802 1449.29 L332.478 1449.29 L332.478 1479.92 L340.117 1479.92 L340.117 1483.85 L320.21 1483.85 L320.21 1479.92 Z" fill="#000000" fill-rule="evenodd" fill-opacity="1" /><path clip-path="url(#clip420)" d="M 0 0 M349.561 1477.97 L354.446 1477.97 L354.446 1483.85 L349.561 1483.85 L349.561 1477.97 Z" fill="#000000" fill-rule="evenodd" fill-opacity="1" /><path clip-path="url(#clip420)" d="M 0 0 M364.677 1449.29 L383.033 1449.29 L383.033 1453.23 L368.959 1453.23 L368.959 1461.7 Q369.978 1461.35 370.996 1461.19 Q372.015 1461 373.034 1461 Q378.821 1461 382.2 1464.18 Q385.58 1467.35 385.58 1472.76 Q385.58 1478.34 382.108 1481.44 Q378.635 1484.52 372.316 1484.52 Q370.14 1484.52 367.872 1484.15 Q365.626 1483.78 363.219 1483.04 L363.219 1478.34 Q365.302 1479.48 367.524 1480.03 Q369.746 1480.59 372.223 1480.59 Q376.228 1480.59 378.566 1478.48 Q380.904 1476.38 380.904 1472.76 Q380.904 1469.15 378.566 1467.05 Q376.228 1464.94 372.223 1464.94 Q370.348 1464.94 368.473 1465.36 Q366.622 1465.77 364.677 1466.65 L364.677 1449.29 Z" fill="#000000" fill-rule="evenodd" fill-opacity="1" /><path clip-path="url(#clip420)" d="M 0 0 M608.285 1467.02 L637.961 1467.02 L637.961 1470.96 L608.285 1470.96 L608.285 1467.02 Z" fill="#000000" fill-rule="evenodd" fill-opacity="1" /><path clip-path="url(#clip420)" d="M 0 0 M648.864 1479.92 L656.503 1479.92 L656.503 1453.55 L648.193 1455.22 L648.193 1450.96 L656.456 1449.29 L661.132 1449.29 L661.132 1479.92 L668.771 1479.92 L668.771 1483.85 L648.864 1483.85 L648.864 1479.92 Z" fill="#000000" fill-rule="evenodd" fill-opacity="1" /><path clip-path="url(#clip420)" d="M 0 0 M678.216 1477.97 L683.1 1477.97 L683.1 1483.85 L678.216 1483.85 L678.216 1477.97 Z" fill="#000000" fill-rule="evenodd" fill-opacity="1" /><path clip-path="url(#clip420)" d="M 0 0 M703.285 1452.37 Q699.674 1452.37 697.845 1455.94 Q696.04 1459.48 696.04 1466.61 Q696.04 1473.71 697.845 1477.28 Q699.674 1480.82 703.285 1480.82 Q706.919 1480.82 708.725 1477.28 Q710.553 1473.71 710.553 1466.61 Q710.553 1459.48 708.725 1455.94 Q706.919 1452.37 703.285 1452.37 M703.285 1448.67 Q709.095 1448.67 712.151 1453.27 Q715.229 1457.86 715.229 1466.61 Q715.229 1475.33 712.151 1479.94 Q709.095 1484.52 703.285 1484.52 Q697.475 1484.52 694.396 1479.94 Q691.34 1475.33 691.34 1466.61 Q691.34 1457.86 694.396 1453.27 Q697.475 1448.67 703.285 1448.67 Z" fill="#000000" fill-rule="evenodd" fill-opacity="1" /><path clip-path="url(#clip420)" d="M 0 0 M937.935 1467.02 L967.611 1467.02 L967.611 1470.96 L937.935 1470.96 L937.935 1467.02 Z" fill="#000000" fill-rule="evenodd" fill-opacity="1" /><path clip-path="url(#clip420)" d="M 0 0 M987.703 1452.37 Q984.092 1452.37 982.263 1455.94 Q980.458 1459.48 980.458 1466.61 Q980.458 1473.71 982.263 1477.28 Q984.092 1480.82 987.703 1480.82 Q991.337 1480.82 993.143 1477.28 Q994.972 1473.71 994.972 1466.61 Q994.972 1459.48 993.143 1455.94 Q991.337 1452.37 987.703 1452.37 M987.703 1448.67 Q993.513 1448.67 996.569 1453.27 Q999.647 1457.86 999.647 1466.61 Q999.647 1475.33 996.569 1479.94 Q993.513 1484.52 987.703 1484.52 Q981.893 1484.52 978.814 1479.94 Q975.759 1475.33 975.759 1466.61 Q975.759 1457.86 978.814 1453.27 Q981.893 1448.67 987.703 1448.67 Z" fill="#000000" fill-rule="evenodd" fill-opacity="1" /><path clip-path="url(#clip420)" d="M 0 0 M1007.87 1477.97 L1012.75 1477.97 L1012.75 1483.85 L1007.87 1483.85 L1007.87 1477.97 Z" fill="#000000" fill-rule="evenodd" fill-opacity="1" /><path clip-path="url(#clip420)" d="M 0 0 M1022.98 1449.29 L1041.34 1449.29 L1041.34 1453.23 L1027.26 1453.23 L1027.26 1461.7 Q1028.28 1461.35 1029.3 1461.19 Q1030.32 1461 1031.34 1461 Q1037.12 1461 1040.5 1464.18 Q1043.88 1467.35 1043.88 1472.76 Q1043.88 1478.34 1040.41 1481.44 Q1036.94 1484.52 1030.62 1484.52 Q1028.44 1484.52 1026.18 1484.15 Q1023.93 1483.78 1021.52 1483.04 L1021.52 1478.34 Q1023.61 1479.48 1025.83 1480.03 Q1028.05 1480.59 1030.53 1480.59 Q1034.53 1480.59 1036.87 1478.48 Q1039.21 1476.38 1039.21 1472.76 Q1039.21 1469.15 1036.87 1467.05 Q1034.53 1464.94 1030.53 1464.94 Q1028.65 1464.94 1026.78 1465.36 Q1024.93 1465.77 1022.98 1466.65 L1022.98 1449.29 Z" fill="#000000" fill-rule="evenodd" fill-opacity="1" /><path clip-path="url(#clip420)" d="M 0 0 M1297.45 1452.37 Q1293.83 1452.37 1292.01 1455.94 Q1290.2 1459.48 1290.2 1466.61 Q1290.2 1473.71 1292.01 1477.28 Q1293.83 1480.82 1297.45 1480.82 Q1301.08 1480.82 1302.89 1477.28 Q1304.71 1473.71 1304.71 1466.61 Q1304.71 1459.48 1302.89 1455.94 Q1301.08 1452.37 1297.45 1452.37 M1297.45 1448.67 Q1303.26 1448.67 1306.31 1453.27 Q1309.39 1457.86 1309.39 1466.61 Q1309.39 1475.33 1306.31 1479.94 Q1303.26 1484.52 1297.45 1484.52 Q1291.64 1484.52 1288.56 1479.94 Q1285.5 1475.33 1285.5 1466.61 Q1285.5 1457.86 1288.56 1453.27 Q1291.64 1448.67 1297.45 1448.67 Z" fill="#000000" fill-rule="evenodd" fill-opacity="1" /><path clip-path="url(#clip420)" d="M 0 0 M1317.61 1477.97 L1322.49 1477.97 L1322.49 1483.85 L1317.61 1483.85 L1317.61 1477.97 Z" fill="#000000" fill-rule="evenodd" fill-opacity="1" /><path clip-path="url(#clip420)" d="M 0 0 M1342.68 1452.37 Q1339.07 1452.37 1337.24 1455.94 Q1335.43 1459.48 1335.43 1466.61 Q1335.43 1473.71 1337.24 1477.28 Q1339.07 1480.82 1342.68 1480.82 Q1346.31 1480.82 1348.12 1477.28 Q1349.95 1473.71 1349.95 1466.61 Q1349.95 1459.48 1348.12 1455.94 Q1346.31 1452.37 1342.68 1452.37 M1342.68 1448.67 Q1348.49 1448.67 1351.54 1453.27 Q1354.62 1457.86 1354.62 1466.61 Q1354.62 1475.33 1351.54 1479.94 Q1348.49 1484.52 1342.68 1484.52 Q1336.87 1484.52 1333.79 1479.94 Q1330.73 1475.33 1330.73 1466.61 Q1330.73 1457.86 1333.79 1453.27 Q1336.87 1448.67 1342.68 1448.67 Z" fill="#000000" fill-rule="evenodd" fill-opacity="1" /><path clip-path="url(#clip420)" d="M 0 0 M1627.09 1452.37 Q1623.48 1452.37 1621.65 1455.94 Q1619.85 1459.48 1619.85 1466.61 Q1619.85 1473.71 1621.65 1477.28 Q1623.48 1480.82 1627.09 1480.82 Q1630.73 1480.82 1632.53 1477.28 Q1634.36 1473.71 1634.36 1466.61 Q1634.36 1459.48 1632.53 1455.94 Q1630.73 1452.37 1627.09 1452.37 M1627.09 1448.67 Q1632.9 1448.67 1635.96 1453.27 Q1639.04 1457.86 1639.04 1466.61 Q1639.04 1475.33 1635.96 1479.94 Q1632.9 1484.52 1627.09 1484.52 Q1621.28 1484.52 1618.21 1479.94 Q1615.15 1475.33 1615.15 1466.61 Q1615.15 1457.86 1618.21 1453.27 Q1621.28 1448.67 1627.09 1448.67 Z" fill="#000000" fill-rule="evenodd" fill-opacity="1" /><path clip-path="url(#clip420)" d="M 0 0 M1647.26 1477.97 L1652.14 1477.97 L1652.14 1483.85 L1647.26 1483.85 L1647.26 1477.97 Z" fill="#000000" fill-rule="evenodd" fill-opacity="1" /><path clip-path="url(#clip420)" d="M 0 0 M1662.37 1449.29 L1680.73 1449.29 L1680.73 1453.23 L1666.65 1453.23 L1666.65 1461.7 Q1667.67 1461.35 1668.69 1461.19 Q1669.71 1461 1670.73 1461 Q1676.52 1461 1679.9 1464.18 Q1683.28 1467.35 1683.28 1472.76 Q1683.28 1478.34 1679.8 1481.44 Q1676.33 1484.52 1670.01 1484.52 Q1667.84 1484.52 1665.57 1484.15 Q1663.32 1483.78 1660.91 1483.04 L1660.91 1478.34 Q1663 1479.48 1665.22 1480.03 Q1667.44 1480.59 1669.92 1480.59 Q1673.92 1480.59 1676.26 1478.48 Q1678.6 1476.38 1678.6 1472.76 Q1678.6 1469.15 1676.26 1467.05 Q1673.92 1464.94 1669.92 1464.94 Q1668.04 1464.94 1666.17 1465.36 Q1664.32 1465.77 1662.37 1466.65 L1662.37 1449.29 Z" fill="#000000" fill-rule="evenodd" fill-opacity="1" /><path clip-path="url(#clip420)" d="M 0 0 M1945.52 1479.92 L1953.16 1479.92 L1953.16 1453.55 L1944.85 1455.22 L1944.85 1450.96 L1953.11 1449.29 L1957.79 1449.29 L1957.79 1479.92 L1965.42 1479.92 L1965.42 1483.85 L1945.52 1483.85 L1945.52 1479.92 Z" fill="#000000" fill-rule="evenodd" fill-opacity="1" /><path clip-path="url(#clip420)" d="M 0 0 M1974.87 1477.97 L1979.75 1477.97 L1979.75 1483.85 L1974.87 1483.85 L1974.87 1477.97 Z" fill="#000000" fill-rule="evenodd" fill-opacity="1" /><path clip-path="url(#clip420)" d="M 0 0 M1999.94 1452.37 Q1996.33 1452.37 1994.5 1455.94 Q1992.69 1459.48 1992.69 1466.61 Q1992.69 1473.71 1994.5 1477.28 Q1996.33 1480.82 1999.94 1480.82 Q2003.57 1480.82 2005.38 1477.28 Q2007.21 1473.71 2007.21 1466.61 Q2007.21 1459.48 2005.38 1455.94 Q2003.57 1452.37 1999.94 1452.37 M1999.94 1448.67 Q2005.75 1448.67 2008.8 1453.27 Q2011.88 1457.86 2011.88 1466.61 Q2011.88 1475.33 2008.8 1479.94 Q2005.75 1484.52 1999.94 1484.52 Q1994.13 1484.52 1991.05 1479.94 Q1987.99 1475.33 1987.99 1466.61 Q1987.99 1457.86 1991.05 1453.27 Q1994.13 1448.67 1999.94 1448.67 Z" fill="#000000" fill-rule="evenodd" fill-opacity="1" /><path clip-path="url(#clip420)" d="M 0 0 M2275.17 1479.92 L2282.81 1479.92 L2282.81 1453.55 L2274.5 1455.22 L2274.5 1450.96 L2282.76 1449.29 L2287.44 1449.29 L2287.44 1479.92 L2295.07 1479.92 L2295.07 1483.85 L2275.17 1483.85 L2275.17 1479.92 Z" fill="#000000" fill-rule="evenodd" fill-opacity="1" /><path clip-path="url(#clip420)" d="M 0 0 M2304.52 1477.97 L2309.4 1477.97 L2309.4 1483.85 L2304.52 1483.85 L2304.52 1477.97 Z" fill="#000000" fill-rule="evenodd" fill-opacity="1" /><path clip-path="url(#clip420)" d="M 0 0 M2319.63 1449.29 L2337.99 1449.29 L2337.99 1453.23 L2323.92 1453.23 L2323.92 1461.7 Q2324.94 1461.35 2325.95 1461.19 Q2326.97 1461 2327.99 1461 Q2333.78 1461 2337.16 1464.18 Q2340.54 1467.35 2340.54 1472.76 Q2340.54 1478.34 2337.06 1481.44 Q2333.59 1484.52 2327.27 1484.52 Q2325.1 1484.52 2322.83 1484.15 Q2320.58 1483.78 2318.18 1483.04 L2318.18 1478.34 Q2320.26 1479.48 2322.48 1480.03 Q2324.7 1480.59 2327.18 1480.59 Q2331.19 1480.59 2333.52 1478.48 Q2335.86 1476.38 2335.86 1472.76 Q2335.86 1469.15 2333.52 1467.05 Q2331.19 1464.94 2327.18 1464.94 Q2325.31 1464.94 2323.43 1465.36 Q2321.58 1465.77 2319.63 1466.65 L2319.63 1449.29 Z" fill="#000000" fill-rule="evenodd" fill-opacity="1" /><path clip-path="url(#clip420)" d="M 0 0 M1268.98 1520.52 L1275.41 1520.52 L1275.41 1562.63 L1298.54 1562.63 L1298.54 1568.04 L1268.98 1568.04 L1268.98 1520.52 Z" fill="#000000" fill-rule="evenodd" fill-opacity="1" /><path clip-path="url(#clip420)" d="M 0 0 M1300.93 1547.58 L1318.09 1547.58 L1318.09 1552.8 L1300.93 1552.8 L1300.93 1547.58 Z" fill="#000000" fill-rule="evenodd" fill-opacity="1" /><path clip-path="url(#clip420)" d="M 0 0 M1327.67 1520.52 L1337.25 1520.52 L1349.37 1552.86 L1361.57 1520.52 L1371.15 1520.52 L1371.15 1568.04 L1364.88 1568.04 L1364.88 1526.32 L1352.62 1558.91 L1346.16 1558.91 L1333.91 1526.32 L1333.91 1568.04 L1327.67 1568.04 L1327.67 1520.52 Z" fill="#000000" fill-rule="evenodd" fill-opacity="1" /><polyline clip-path="url(#clip422)" style="stroke:#000000; stroke-width:2; stroke-opacity:0.1; fill:none" points="
  287.366,1267.05 2352.76,1267.05 
  "/>
<polyline clip-path="url(#clip422)" style="stroke:#000000; stroke-width:2; stroke-opacity:0.1; fill:none" points="
  287.366,1102.48 2352.76,1102.48 
  "/>
<polyline clip-path="url(#clip422)" style="stroke:#000000; stroke-width:2; stroke-opacity:0.1; fill:none" points="
  287.366,937.902 2352.76,937.902 
  "/>
<polyline clip-path="url(#clip422)" style="stroke:#000000; stroke-width:2; stroke-opacity:0.1; fill:none" points="
  287.366,773.326 2352.76,773.326 
  "/>
<polyline clip-path="url(#clip422)" style="stroke:#000000; stroke-width:2; stroke-opacity:0.1; fill:none" points="
  287.366,608.75 2352.76,608.75 
  "/>
<polyline clip-path="url(#clip422)" style="stroke:#000000; stroke-width:2; stroke-opacity:0.1; fill:none" points="
  287.366,444.174 2352.76,444.174 
  "/>
<polyline clip-path="url(#clip422)" style="stroke:#000000; stroke-width:2; stroke-opacity:0.1; fill:none" points="
  287.366,279.598 2352.76,279.598 
  "/>
<polyline clip-path="url(#clip420)" style="stroke:#000000; stroke-width:4; stroke-opacity:1; fill:none" points="
  287.366,1423.18 287.366,123.472 
  "/>
<polyline clip-path="url(#clip420)" style="stroke:#000000; stroke-width:4; stroke-opacity:1; fill:none" points="
  287.366,1267.05 312.151,1267.05 
  "/>
<polyline clip-path="url(#clip420)" style="stroke:#000000; stroke-width:4; stroke-opacity:1; fill:none" points="
  287.366,1102.48 312.151,1102.48 
  "/>
<polyline clip-path="url(#clip420)" style="stroke:#000000; stroke-width:4; stroke-opacity:1; fill:none" points="
  287.366,937.902 312.151,937.902 
  "/>
<polyline clip-path="url(#clip420)" style="stroke:#000000; stroke-width:4; stroke-opacity:1; fill:none" points="
  287.366,773.326 312.151,773.326 
  "/>
<polyline clip-path="url(#clip420)" style="stroke:#000000; stroke-width:4; stroke-opacity:1; fill:none" points="
  287.366,608.75 312.151,608.75 
  "/>
<polyline clip-path="url(#clip420)" style="stroke:#000000; stroke-width:4; stroke-opacity:1; fill:none" points="
  287.366,444.174 312.151,444.174 
  "/>
<polyline clip-path="url(#clip420)" style="stroke:#000000; stroke-width:4; stroke-opacity:1; fill:none" points="
  287.366,279.598 312.151,279.598 
  "/>
<path clip-path="url(#clip420)" d="M 0 0 M115.256 1267.51 L144.931 1267.51 L144.931 1271.44 L115.256 1271.44 L115.256 1267.51 Z" fill="#000000" fill-rule="evenodd" fill-opacity="1" /><path clip-path="url(#clip420)" d="M 0 0 M165.024 1252.85 Q161.413 1252.85 159.584 1256.42 Q157.778 1259.96 157.778 1267.09 Q157.778 1274.19 159.584 1277.76 Q161.413 1281.3 165.024 1281.3 Q168.658 1281.3 170.464 1277.76 Q172.292 1274.19 172.292 1267.09 Q172.292 1259.96 170.464 1256.42 Q168.658 1252.85 165.024 1252.85 M165.024 1249.15 Q170.834 1249.15 173.889 1253.76 Q176.968 1258.34 176.968 1267.09 Q176.968 1275.82 173.889 1280.42 Q170.834 1285 165.024 1285 Q159.214 1285 156.135 1280.42 Q153.079 1275.82 153.079 1267.09 Q153.079 1258.34 156.135 1253.76 Q159.214 1249.15 165.024 1249.15 Z" fill="#000000" fill-rule="evenodd" fill-opacity="1" /><path clip-path="url(#clip420)" d="M 0 0 M185.186 1278.45 L190.07 1278.45 L190.07 1284.33 L185.186 1284.33 L185.186 1278.45 Z" fill="#000000" fill-rule="evenodd" fill-opacity="1" /><path clip-path="url(#clip420)" d="M 0 0 M199.075 1249.77 L221.297 1249.77 L221.297 1251.76 L208.75 1284.33 L203.866 1284.33 L215.672 1253.71 L199.075 1253.71 L199.075 1249.77 Z" fill="#000000" fill-rule="evenodd" fill-opacity="1" /><path clip-path="url(#clip420)" d="M 0 0 M230.463 1249.77 L248.82 1249.77 L248.82 1253.71 L234.746 1253.71 L234.746 1262.18 Q235.764 1261.83 236.783 1261.67 Q237.801 1261.49 238.82 1261.49 Q244.607 1261.49 247.986 1264.66 Q251.366 1267.83 251.366 1273.25 Q251.366 1278.82 247.894 1281.93 Q244.421 1285 238.102 1285 Q235.926 1285 233.658 1284.63 Q231.412 1284.26 229.005 1283.52 L229.005 1278.82 Q231.088 1279.96 233.31 1280.51 Q235.533 1281.07 238.009 1281.07 Q242.014 1281.07 244.352 1278.96 Q246.69 1276.86 246.69 1273.25 Q246.69 1269.63 244.352 1267.53 Q242.014 1265.42 238.009 1265.42 Q236.135 1265.42 234.26 1265.84 Q232.408 1266.26 230.463 1267.13 L230.463 1249.77 Z" fill="#000000" fill-rule="evenodd" fill-opacity="1" /><path clip-path="url(#clip420)" d="M 0 0 M114.26 1102.93 L143.936 1102.93 L143.936 1106.86 L114.26 1106.86 L114.26 1102.93 Z" fill="#000000" fill-rule="evenodd" fill-opacity="1" /><path clip-path="url(#clip420)" d="M 0 0 M164.028 1088.28 Q160.417 1088.28 158.589 1091.84 Q156.783 1095.38 156.783 1102.51 Q156.783 1109.62 158.589 1113.18 Q160.417 1116.73 164.028 1116.73 Q167.663 1116.73 169.468 1113.18 Q171.297 1109.62 171.297 1102.51 Q171.297 1095.38 169.468 1091.84 Q167.663 1088.28 164.028 1088.28 M164.028 1084.57 Q169.839 1084.57 172.894 1089.18 Q175.973 1093.76 175.973 1102.51 Q175.973 1111.24 172.894 1115.85 Q169.839 1120.43 164.028 1120.43 Q158.218 1120.43 155.14 1115.85 Q152.084 1111.24 152.084 1102.51 Q152.084 1093.76 155.14 1089.18 Q158.218 1084.57 164.028 1084.57 Z" fill="#000000" fill-rule="evenodd" fill-opacity="1" /><path clip-path="url(#clip420)" d="M 0 0 M184.19 1113.88 L189.075 1113.88 L189.075 1119.76 L184.19 1119.76 L184.19 1113.88 Z" fill="#000000" fill-rule="evenodd" fill-opacity="1" /><path clip-path="url(#clip420)" d="M 0 0 M199.306 1085.2 L217.662 1085.2 L217.662 1089.13 L203.588 1089.13 L203.588 1097.61 Q204.607 1097.26 205.625 1097.1 Q206.644 1096.91 207.662 1096.91 Q213.449 1096.91 216.829 1100.08 Q220.209 1103.25 220.209 1108.67 Q220.209 1114.25 216.736 1117.35 Q213.264 1120.43 206.945 1120.43 Q204.769 1120.43 202.5 1120.06 Q200.255 1119.69 197.848 1118.95 L197.848 1114.25 Q199.931 1115.38 202.153 1115.94 Q204.375 1116.49 206.852 1116.49 Q210.857 1116.49 213.195 1114.39 Q215.533 1112.28 215.533 1108.67 Q215.533 1105.06 213.195 1102.95 Q210.857 1100.85 206.852 1100.85 Q204.977 1100.85 203.102 1101.26 Q201.25 1101.68 199.306 1102.56 L199.306 1085.2 Z" fill="#000000" fill-rule="evenodd" fill-opacity="1" /><path clip-path="url(#clip420)" d="M 0 0 M239.422 1088.28 Q235.81 1088.28 233.982 1091.84 Q232.176 1095.38 232.176 1102.51 Q232.176 1109.62 233.982 1113.18 Q235.81 1116.73 239.422 1116.73 Q243.056 1116.73 244.861 1113.18 Q246.69 1109.62 246.69 1102.51 Q246.69 1095.38 244.861 1091.84 Q243.056 1088.28 239.422 1088.28 M239.422 1084.57 Q245.232 1084.57 248.287 1089.18 Q251.366 1093.76 251.366 1102.51 Q251.366 1111.24 248.287 1115.85 Q245.232 1120.43 239.422 1120.43 Q233.611 1120.43 230.533 1115.85 Q227.477 1111.24 227.477 1102.51 Q227.477 1093.76 230.533 1089.18 Q233.611 1084.57 239.422 1084.57 Z" fill="#000000" fill-rule="evenodd" fill-opacity="1" /><path clip-path="url(#clip420)" d="M 0 0 M115.256 938.353 L144.931 938.353 L144.931 942.288 L115.256 942.288 L115.256 938.353 Z" fill="#000000" fill-rule="evenodd" fill-opacity="1" /><path clip-path="url(#clip420)" d="M 0 0 M165.024 923.701 Q161.413 923.701 159.584 927.265 Q157.778 930.807 157.778 937.937 Q157.778 945.043 159.584 948.608 Q161.413 952.149 165.024 952.149 Q168.658 952.149 170.464 948.608 Q172.292 945.043 172.292 937.937 Q172.292 930.807 170.464 927.265 Q168.658 923.701 165.024 923.701 M165.024 919.997 Q170.834 919.997 173.889 924.603 Q176.968 929.187 176.968 937.937 Q176.968 946.663 173.889 951.27 Q170.834 955.853 165.024 955.853 Q159.214 955.853 156.135 951.27 Q153.079 946.663 153.079 937.937 Q153.079 929.187 156.135 924.603 Q159.214 919.997 165.024 919.997 Z" fill="#000000" fill-rule="evenodd" fill-opacity="1" /><path clip-path="url(#clip420)" d="M 0 0 M185.186 949.302 L190.07 949.302 L190.07 955.182 L185.186 955.182 L185.186 949.302 Z" fill="#000000" fill-rule="evenodd" fill-opacity="1" /><path clip-path="url(#clip420)" d="M 0 0 M204.283 951.247 L220.602 951.247 L220.602 955.182 L198.658 955.182 L198.658 951.247 Q201.32 948.492 205.903 943.863 Q210.51 939.21 211.69 937.867 Q213.936 935.344 214.815 933.608 Q215.718 931.849 215.718 930.159 Q215.718 927.404 213.774 925.668 Q211.852 923.932 208.75 923.932 Q206.551 923.932 204.098 924.696 Q201.667 925.46 198.889 927.011 L198.889 922.289 Q201.713 921.154 204.167 920.576 Q206.621 919.997 208.658 919.997 Q214.028 919.997 217.223 922.682 Q220.417 925.367 220.417 929.858 Q220.417 931.988 219.607 933.909 Q218.82 935.807 216.713 938.4 Q216.135 939.071 213.033 942.288 Q209.931 945.483 204.283 951.247 Z" fill="#000000" fill-rule="evenodd" fill-opacity="1" /><path clip-path="url(#clip420)" d="M 0 0 M230.463 920.622 L248.82 920.622 L248.82 924.557 L234.746 924.557 L234.746 933.029 Q235.764 932.682 236.783 932.52 Q237.801 932.335 238.82 932.335 Q244.607 932.335 247.986 935.506 Q251.366 938.677 251.366 944.094 Q251.366 949.673 247.894 952.774 Q244.421 955.853 238.102 955.853 Q235.926 955.853 233.658 955.483 Q231.412 955.112 229.005 954.372 L229.005 949.673 Q231.088 950.807 233.31 951.362 Q235.533 951.918 238.009 951.918 Q242.014 951.918 244.352 949.812 Q246.69 947.705 246.69 944.094 Q246.69 940.483 244.352 938.376 Q242.014 936.27 238.009 936.27 Q236.135 936.27 234.26 936.687 Q232.408 937.103 230.463 937.983 L230.463 920.622 Z" fill="#000000" fill-rule="evenodd" fill-opacity="1" /><path clip-path="url(#clip420)" d="M 0 0 M164.028 759.125 Q160.417 759.125 158.589 762.689 Q156.783 766.231 156.783 773.361 Q156.783 780.467 158.589 784.032 Q160.417 787.574 164.028 787.574 Q167.663 787.574 169.468 784.032 Q171.297 780.467 171.297 773.361 Q171.297 766.231 169.468 762.689 Q167.663 759.125 164.028 759.125 M164.028 755.421 Q169.839 755.421 172.894 760.027 Q175.973 764.611 175.973 773.361 Q175.973 782.088 172.894 786.694 Q169.839 791.277 164.028 791.277 Q158.218 791.277 155.14 786.694 Q152.084 782.088 152.084 773.361 Q152.084 764.611 155.14 760.027 Q158.218 755.421 164.028 755.421 Z" fill="#000000" fill-rule="evenodd" fill-opacity="1" /><path clip-path="url(#clip420)" d="M 0 0 M184.19 784.726 L189.075 784.726 L189.075 790.606 L184.19 790.606 L184.19 784.726 Z" fill="#000000" fill-rule="evenodd" fill-opacity="1" /><path clip-path="url(#clip420)" d="M 0 0 M209.26 759.125 Q205.649 759.125 203.82 762.689 Q202.014 766.231 202.014 773.361 Q202.014 780.467 203.82 784.032 Q205.649 787.574 209.26 787.574 Q212.894 787.574 214.699 784.032 Q216.528 780.467 216.528 773.361 Q216.528 766.231 214.699 762.689 Q212.894 759.125 209.26 759.125 M209.26 755.421 Q215.07 755.421 218.125 760.027 Q221.204 764.611 221.204 773.361 Q221.204 782.088 218.125 786.694 Q215.07 791.277 209.26 791.277 Q203.449 791.277 200.371 786.694 Q197.315 782.088 197.315 773.361 Q197.315 764.611 200.371 760.027 Q203.449 755.421 209.26 755.421 Z" fill="#000000" fill-rule="evenodd" fill-opacity="1" /><path clip-path="url(#clip420)" d="M 0 0 M239.422 759.125 Q235.81 759.125 233.982 762.689 Q232.176 766.231 232.176 773.361 Q232.176 780.467 233.982 784.032 Q235.81 787.574 239.422 787.574 Q243.056 787.574 244.861 784.032 Q246.69 780.467 246.69 773.361 Q246.69 766.231 244.861 762.689 Q243.056 759.125 239.422 759.125 M239.422 755.421 Q245.232 755.421 248.287 760.027 Q251.366 764.611 251.366 773.361 Q251.366 782.088 248.287 786.694 Q245.232 791.277 239.422 791.277 Q233.611 791.277 230.533 786.694 Q227.477 782.088 227.477 773.361 Q227.477 764.611 230.533 760.027 Q233.611 755.421 239.422 755.421 Z" fill="#000000" fill-rule="evenodd" fill-opacity="1" /><path clip-path="url(#clip420)" d="M 0 0 M165.024 594.549 Q161.413 594.549 159.584 598.114 Q157.778 601.655 157.778 608.785 Q157.778 615.891 159.584 619.456 Q161.413 622.998 165.024 622.998 Q168.658 622.998 170.464 619.456 Q172.292 615.891 172.292 608.785 Q172.292 601.655 170.464 598.114 Q168.658 594.549 165.024 594.549 M165.024 590.845 Q170.834 590.845 173.889 595.452 Q176.968 600.035 176.968 608.785 Q176.968 617.512 173.889 622.118 Q170.834 626.701 165.024 626.701 Q159.214 626.701 156.135 622.118 Q153.079 617.512 153.079 608.785 Q153.079 600.035 156.135 595.452 Q159.214 590.845 165.024 590.845 Z" fill="#000000" fill-rule="evenodd" fill-opacity="1" /><path clip-path="url(#clip420)" d="M 0 0 M185.186 620.15 L190.07 620.15 L190.07 626.03 L185.186 626.03 L185.186 620.15 Z" fill="#000000" fill-rule="evenodd" fill-opacity="1" /><path clip-path="url(#clip420)" d="M 0 0 M204.283 622.095 L220.602 622.095 L220.602 626.03 L198.658 626.03 L198.658 622.095 Q201.32 619.34 205.903 614.711 Q210.51 610.058 211.69 608.715 Q213.936 606.192 214.815 604.456 Q215.718 602.697 215.718 601.007 Q215.718 598.252 213.774 596.516 Q211.852 594.78 208.75 594.78 Q206.551 594.78 204.098 595.544 Q201.667 596.308 198.889 597.859 L198.889 593.137 Q201.713 592.002 204.167 591.424 Q206.621 590.845 208.658 590.845 Q214.028 590.845 217.223 593.53 Q220.417 596.215 220.417 600.706 Q220.417 602.836 219.607 604.757 Q218.82 606.655 216.713 609.248 Q216.135 609.919 213.033 613.137 Q209.931 616.331 204.283 622.095 Z" fill="#000000" fill-rule="evenodd" fill-opacity="1" /><path clip-path="url(#clip420)" d="M 0 0 M230.463 591.47 L248.82 591.47 L248.82 595.405 L234.746 595.405 L234.746 603.877 Q235.764 603.53 236.783 603.368 Q237.801 603.183 238.82 603.183 Q244.607 603.183 247.986 606.354 Q251.366 609.526 251.366 614.942 Q251.366 620.521 247.894 623.623 Q244.421 626.701 238.102 626.701 Q235.926 626.701 233.658 626.331 Q231.412 625.961 229.005 625.22 L229.005 620.521 Q231.088 621.655 233.31 622.211 Q235.533 622.766 238.009 622.766 Q242.014 622.766 244.352 620.66 Q246.69 618.553 246.69 614.942 Q246.69 611.331 244.352 609.225 Q242.014 607.118 238.009 607.118 Q236.135 607.118 234.26 607.535 Q232.408 607.951 230.463 608.831 L230.463 591.47 Z" fill="#000000" fill-rule="evenodd" fill-opacity="1" /><path clip-path="url(#clip420)" d="M 0 0 M164.028 429.973 Q160.417 429.973 158.589 433.538 Q156.783 437.079 156.783 444.209 Q156.783 451.315 158.589 454.88 Q160.417 458.422 164.028 458.422 Q167.663 458.422 169.468 454.88 Q171.297 451.315 171.297 444.209 Q171.297 437.079 169.468 433.538 Q167.663 429.973 164.028 429.973 M164.028 426.269 Q169.839 426.269 172.894 430.876 Q175.973 435.459 175.973 444.209 Q175.973 452.936 172.894 457.542 Q169.839 462.125 164.028 462.125 Q158.218 462.125 155.14 457.542 Q152.084 452.936 152.084 444.209 Q152.084 435.459 155.14 430.876 Q158.218 426.269 164.028 426.269 Z" fill="#000000" fill-rule="evenodd" fill-opacity="1" /><path clip-path="url(#clip420)" d="M 0 0 M184.19 455.575 L189.075 455.575 L189.075 461.454 L184.19 461.454 L184.19 455.575 Z" fill="#000000" fill-rule="evenodd" fill-opacity="1" /><path clip-path="url(#clip420)" d="M 0 0 M199.306 426.894 L217.662 426.894 L217.662 430.829 L203.588 430.829 L203.588 439.302 Q204.607 438.954 205.625 438.792 Q206.644 438.607 207.662 438.607 Q213.449 438.607 216.829 441.778 Q220.209 444.95 220.209 450.366 Q220.209 455.945 216.736 459.047 Q213.264 462.125 206.945 462.125 Q204.769 462.125 202.5 461.755 Q200.255 461.385 197.848 460.644 L197.848 455.945 Q199.931 457.079 202.153 457.635 Q204.375 458.19 206.852 458.19 Q210.857 458.19 213.195 456.084 Q215.533 453.977 215.533 450.366 Q215.533 446.755 213.195 444.649 Q210.857 442.542 206.852 442.542 Q204.977 442.542 203.102 442.959 Q201.25 443.376 199.306 444.255 L199.306 426.894 Z" fill="#000000" fill-rule="evenodd" fill-opacity="1" /><path clip-path="url(#clip420)" d="M 0 0 M239.422 429.973 Q235.81 429.973 233.982 433.538 Q232.176 437.079 232.176 444.209 Q232.176 451.315 233.982 454.88 Q235.81 458.422 239.422 458.422 Q243.056 458.422 244.861 454.88 Q246.69 451.315 246.69 444.209 Q246.69 437.079 244.861 433.538 Q243.056 429.973 239.422 429.973 M239.422 426.269 Q245.232 426.269 248.287 430.876 Q251.366 435.459 251.366 444.209 Q251.366 452.936 248.287 457.542 Q245.232 462.125 239.422 462.125 Q233.611 462.125 230.533 457.542 Q227.477 452.936 227.477 444.209 Q227.477 435.459 230.533 430.876 Q233.611 426.269 239.422 426.269 Z" fill="#000000" fill-rule="evenodd" fill-opacity="1" /><path clip-path="url(#clip420)" d="M 0 0 M165.024 265.397 Q161.413 265.397 159.584 268.962 Q157.778 272.503 157.778 279.633 Q157.778 286.739 159.584 290.304 Q161.413 293.846 165.024 293.846 Q168.658 293.846 170.464 290.304 Q172.292 286.739 172.292 279.633 Q172.292 272.503 170.464 268.962 Q168.658 265.397 165.024 265.397 M165.024 261.693 Q170.834 261.693 173.889 266.3 Q176.968 270.883 176.968 279.633 Q176.968 288.36 173.889 292.966 Q170.834 297.55 165.024 297.55 Q159.214 297.55 156.135 292.966 Q153.079 288.36 153.079 279.633 Q153.079 270.883 156.135 266.3 Q159.214 261.693 165.024 261.693 Z" fill="#000000" fill-rule="evenodd" fill-opacity="1" /><path clip-path="url(#clip420)" d="M 0 0 M185.186 290.999 L190.07 290.999 L190.07 296.878 L185.186 296.878 L185.186 290.999 Z" fill="#000000" fill-rule="evenodd" fill-opacity="1" /><path clip-path="url(#clip420)" d="M 0 0 M199.075 262.318 L221.297 262.318 L221.297 264.309 L208.75 296.878 L203.866 296.878 L215.672 266.253 L199.075 266.253 L199.075 262.318 Z" fill="#000000" fill-rule="evenodd" fill-opacity="1" /><path clip-path="url(#clip420)" d="M 0 0 M230.463 262.318 L248.82 262.318 L248.82 266.253 L234.746 266.253 L234.746 274.726 Q235.764 274.378 236.783 274.216 Q237.801 274.031 238.82 274.031 Q244.607 274.031 247.986 277.202 Q251.366 280.374 251.366 285.79 Q251.366 291.369 247.894 294.471 Q244.421 297.55 238.102 297.55 Q235.926 297.55 233.658 297.179 Q231.412 296.809 229.005 296.068 L229.005 291.369 Q231.088 292.503 233.31 293.059 Q235.533 293.614 238.009 293.614 Q242.014 293.614 244.352 291.508 Q246.69 289.401 246.69 285.79 Q246.69 282.179 244.352 280.073 Q242.014 277.966 238.009 277.966 Q236.135 277.966 234.26 278.383 Q232.408 278.8 230.463 279.679 L230.463 262.318 Z" fill="#000000" fill-rule="evenodd" fill-opacity="1" /><path clip-path="url(#clip420)" d="M 0 0 M18.0438 869.257 L24.314 869.257 Q22.5634 872.917 21.704 876.164 Q20.8447 879.41 20.8447 882.434 Q20.8447 887.686 22.8817 890.55 Q24.9187 893.383 28.6745 893.383 Q31.8255 893.383 33.4488 891.505 Q35.0402 889.596 36.0269 884.312 L36.8226 880.429 Q38.1912 873.236 41.6605 869.83 Q45.098 866.393 50.8908 866.393 Q57.7976 866.393 61.3624 871.04 Q64.9272 875.655 64.9272 884.599 Q64.9272 887.972 64.1633 891.792 Q63.3994 895.579 61.9035 899.653 L55.2831 899.653 Q57.4793 895.739 58.5933 891.983 Q59.7073 888.227 59.7073 884.599 Q59.7073 879.092 57.543 876.1 Q55.3786 873.108 51.3682 873.108 Q47.8671 873.108 45.8937 875.273 Q43.9204 877.405 42.9337 882.307 L42.1698 886.222 Q40.7375 893.415 37.682 896.63 Q34.6264 899.844 29.1837 899.844 Q22.8817 899.844 19.2532 895.42 Q15.6248 890.964 15.6248 883.166 Q15.6248 879.824 16.2295 876.355 Q16.8343 872.886 18.0438 869.257 Z" fill="#000000" fill-rule="evenodd" fill-opacity="1" /><path clip-path="url(#clip420)" d="M 0 0 M43.5384 859.581 L43.5384 842.426 L48.7583 842.426 L48.7583 859.581 L43.5384 859.581 Z" fill="#000000" fill-rule="evenodd" fill-opacity="1" /><path clip-path="url(#clip420)" d="M 0 0 M14.5426 819.032 Q21.8632 823.297 29.0246 825.366 Q36.186 827.434 43.5384 827.434 Q50.8908 827.434 58.1159 825.366 Q65.3091 823.265 72.5979 819.032 L72.5979 824.124 Q65.1182 828.899 57.8931 831.286 Q50.668 833.641 43.5384 833.641 Q36.4406 833.641 29.2474 831.286 Q22.0542 828.93 14.5426 824.124 L14.5426 819.032 Z" fill="#000000" fill-rule="evenodd" fill-opacity="1" /><path clip-path="url(#clip420)" d="M 0 0 M16.4842 807.414 L16.4842 800.985 L58.5933 800.985 L58.5933 777.846 L64.0042 777.846 L64.0042 807.414 L16.4842 807.414 Z" fill="#000000" fill-rule="evenodd" fill-opacity="1" /><path clip-path="url(#clip420)" d="M 0 0 M23.1363 747.513 L40.8648 747.513 L40.8648 729.785 L46.2757 729.785 L46.2757 747.513 L64.0042 747.513 L64.0042 752.86 L46.2757 752.86 L46.2757 770.589 L40.8648 770.589 L40.8648 752.86 L23.1363 752.86 L23.1363 747.513 Z" fill="#000000" fill-rule="evenodd" fill-opacity="1" /><path clip-path="url(#clip420)" d="M 0 0 M16.4842 716.48 L16.4842 706.9 L48.8219 694.773 L16.4842 682.583 L16.4842 673.002 L64.0042 673.002 L64.0042 679.273 L22.277 679.273 L54.8694 691.527 L54.8694 697.988 L22.277 710.242 L64.0042 710.242 L64.0042 716.48 L16.4842 716.48 Z" fill="#000000" fill-rule="evenodd" fill-opacity="1" /><path clip-path="url(#clip420)" d="M 0 0 M14.5426 661.417 L14.5426 656.324 Q22.0542 651.55 29.2474 649.195 Q36.4406 646.808 43.5384 646.808 Q50.668 646.808 57.8931 649.195 Q65.1182 651.55 72.5979 656.324 L72.5979 661.417 Q65.3091 657.184 58.1159 655.115 Q50.8908 653.014 43.5384 653.014 Q36.186 653.014 29.0246 655.115 Q21.8632 657.184 14.5426 661.417 Z" fill="#000000" fill-rule="evenodd" fill-opacity="1" /><path clip-path="url(#clip420)" d="M 0 0 M1026.05 18.8205 L1026.05 65.8515 L1035.93 65.8515 Q1048.45 65.8515 1054.24 60.1802 Q1060.07 54.509 1060.07 42.2752 Q1060.07 30.1225 1054.24 24.4918 Q1048.45 18.8205 1035.93 18.8205 L1026.05 18.8205 M1017.86 12.096 L1034.67 12.096 Q1052.26 12.096 1060.48 19.4281 Q1068.7 26.7198 1068.7 42.2752 Q1068.7 57.9117 1060.44 65.2439 Q1052.17 72.576 1034.67 72.576 L1017.86 72.576 L1017.86 12.096 Z" fill="#000000" fill-rule="evenodd" fill-opacity="1" /><path clip-path="url(#clip420)" d="M 0 0 M1081.75 12.096 L1089.93 12.096 L1089.93 37.6572 L1117.07 12.096 L1127.6 12.096 L1097.59 40.2903 L1129.75 72.576 L1118.97 72.576 L1089.93 43.45 L1089.93 72.576 L1081.75 72.576 L1081.75 12.096 Z" fill="#000000" fill-rule="evenodd" fill-opacity="1" /><path clip-path="url(#clip420)" d="M 0 0 M1136.15 12.096 L1144.33 12.096 L1144.33 65.6895 L1173.78 65.6895 L1173.78 72.576 L1136.15 72.576 L1136.15 12.096 Z" fill="#000000" fill-rule="evenodd" fill-opacity="1" /><path clip-path="url(#clip420)" d="M 0 0 M1216.52 86.3491 L1216.52 92.1419 L1173.42 92.1419 L1173.42 86.3491 L1216.52 86.3491 Z" fill="#000000" fill-rule="evenodd" fill-opacity="1" /><path clip-path="url(#clip420)" d="M 0 0 M1231.63 65.6895 L1260.19 65.6895 L1260.19 72.576 L1221.79 72.576 L1221.79 65.6895 Q1226.44 60.8689 1234.47 52.7671 Q1242.53 44.6248 1244.59 42.2752 Q1248.52 37.8598 1250.06 34.8216 Q1251.64 31.7429 1251.64 28.7857 Q1251.64 23.9651 1248.24 20.927 Q1244.88 17.8888 1239.45 17.8888 Q1235.6 17.8888 1231.31 19.2256 Q1227.05 20.5624 1222.19 23.2765 L1222.19 15.0127 Q1227.13 13.0277 1231.43 12.015 Q1235.72 11.0023 1239.29 11.0023 Q1248.68 11.0023 1254.27 15.7013 Q1259.86 20.4004 1259.86 28.2591 Q1259.86 31.9859 1258.45 35.3482 Q1257.07 38.6699 1253.38 43.2069 Q1252.37 44.3817 1246.94 50.0125 Q1241.51 55.6027 1231.63 65.6895 Z" fill="#000000" fill-rule="evenodd" fill-opacity="1" /><path clip-path="url(#clip420)" d="M 0 0 M1295.88 39.075 Q1290.37 39.075 1287.13 42.8424 Q1283.93 46.6097 1283.93 53.1722 Q1283.93 59.6941 1287.13 63.502 Q1290.37 67.2693 1295.88 67.2693 Q1301.39 67.2693 1304.59 63.502 Q1307.83 59.6941 1307.83 53.1722 Q1307.83 46.6097 1304.59 42.8424 Q1301.39 39.075 1295.88 39.075 M1312.12 13.4328 L1312.12 20.8865 Q1309.04 19.4281 1305.88 18.6585 Q1302.76 17.8888 1299.68 17.8888 Q1291.58 17.8888 1287.29 23.3575 Q1283.04 28.8262 1282.43 39.8852 Q1284.82 36.3609 1288.42 34.4975 Q1292.03 32.5936 1296.36 32.5936 Q1305.48 32.5936 1310.74 38.1433 Q1316.05 43.6525 1316.05 53.1722 Q1316.05 62.4892 1310.54 68.12 Q1305.03 73.7508 1295.88 73.7508 Q1285.39 73.7508 1279.84 65.73 Q1274.29 57.6687 1274.29 42.3968 Q1274.29 28.0566 1281.09 19.5497 Q1287.9 11.0023 1299.36 11.0023 Q1302.44 11.0023 1305.56 11.6099 Q1308.72 12.2175 1312.12 13.4328 Z" fill="#000000" fill-rule="evenodd" fill-opacity="1" /><path clip-path="url(#clip420)" d="M 0 0 M1329.42 12.096 L1337.6 12.096 L1337.6 36.8875 L1367.33 36.8875 L1367.33 12.096 L1375.52 12.096 L1375.52 72.576 L1367.33 72.576 L1367.33 43.7741 L1337.6 43.7741 L1337.6 72.576 L1329.42 72.576 L1329.42 12.096 Z" fill="#000000" fill-rule="evenodd" fill-opacity="1" /><path clip-path="url(#clip420)" d="M 0 0 M1390.71 54.671 L1390.71 27.2059 L1398.16 27.2059 L1398.16 54.3874 Q1398.16 60.8284 1400.67 64.0691 Q1403.19 67.2693 1408.21 67.2693 Q1414.24 67.2693 1417.73 63.421 Q1421.25 59.5726 1421.25 52.9291 L1421.25 27.2059 L1428.71 27.2059 L1428.71 72.576 L1421.25 72.576 L1421.25 65.6084 Q1418.54 69.7404 1414.93 71.7658 Q1411.37 73.7508 1406.63 73.7508 Q1398.81 73.7508 1394.76 68.8897 Q1390.71 64.0286 1390.71 54.671 M1409.46 26.1121 L1409.46 26.1121 Z" fill="#000000" fill-rule="evenodd" fill-opacity="1" /><path clip-path="url(#clip420)" d="M 0 0 M1482.87 48.0275 L1482.87 51.6733 L1448.6 51.6733 Q1449.08 59.3701 1453.21 63.421 Q1457.39 67.4314 1464.8 67.4314 Q1469.09 67.4314 1473.1 66.3781 Q1477.15 65.3249 1481.12 63.2184 L1481.12 70.267 Q1477.11 71.9684 1472.9 72.8596 Q1468.69 73.7508 1464.35 73.7508 Q1453.5 73.7508 1447.14 67.4314 Q1440.82 61.1119 1440.82 50.3365 Q1440.82 39.1965 1446.81 32.6746 Q1452.85 26.1121 1463.06 26.1121 Q1472.21 26.1121 1477.52 32.0264 Q1482.87 37.9003 1482.87 48.0275 M1475.41 45.84 Q1475.33 39.7232 1471.97 36.0774 Q1468.65 32.4315 1463.14 32.4315 Q1456.9 32.4315 1453.13 35.9558 Q1449.41 39.4801 1448.84 45.8805 L1475.41 45.84 Z" fill="#000000" fill-rule="evenodd" fill-opacity="1" /><path clip-path="url(#clip420)" d="M 0 0 M1529.57 86.3491 L1529.57 92.1419 L1486.47 92.1419 L1486.47 86.3491 L1529.57 86.3491 Z" fill="#000000" fill-rule="evenodd" fill-opacity="1" /><path clip-path="url(#clip420)" d="M 0 0 M1536.91 12.096 L1545.09 12.096 L1545.09 65.6895 L1574.54 65.6895 L1574.54 72.576 L1536.91 72.576 L1536.91 12.096 Z" fill="#000000" fill-rule="evenodd" fill-opacity="1" /><path clip-path="url(#clip420)" d="M 0 0 M1601.36 17.4837 Q1595.04 17.4837 1591.84 23.7221 Q1588.68 29.92 1588.68 42.3968 Q1588.68 54.833 1591.84 61.0714 Q1595.04 67.2693 1601.36 67.2693 Q1607.72 67.2693 1610.88 61.0714 Q1614.08 54.833 1614.08 42.3968 Q1614.08 29.92 1610.88 23.7221 Q1607.72 17.4837 1601.36 17.4837 M1601.36 11.0023 Q1611.52 11.0023 1616.87 19.0636 Q1622.26 27.0843 1622.26 42.3968 Q1622.26 57.6687 1616.87 65.73 Q1611.52 73.7508 1601.36 73.7508 Q1591.19 73.7508 1585.8 65.73 Q1580.45 57.6687 1580.45 42.3968 Q1580.45 27.0843 1585.8 19.0636 Q1591.19 11.0023 1601.36 11.0023 Z" fill="#000000" fill-rule="evenodd" fill-opacity="1" /><polyline clip-path="url(#clip422)" style="stroke:#7f7f7f; stroke-width:4; stroke-opacity:0.5; fill:none" points="
  1320.06,773.326 1417.51,773.326 
  "/>
<polyline clip-path="url(#clip422)" style="stroke:#7f7f7f; stroke-width:4; stroke-opacity:0.5; fill:none" points="
  1320.06,773.326 1415.19,718.404 
  "/>
<polyline clip-path="url(#clip422)" style="stroke:#7f7f7f; stroke-width:4; stroke-opacity:0.5; fill:none" points="
  1320.06,773.326 1410.86,616.05 
  "/>
<polyline clip-path="url(#clip422)" style="stroke:#7f7f7f; stroke-width:4; stroke-opacity:0.5; fill:none" points="
  1320.06,773.326 1404.24,459.18 
  "/>
<polyline clip-path="url(#clip422)" style="stroke:#7f7f7f; stroke-width:4; stroke-opacity:0.5; fill:none" points="
  1320.06,773.326 1398.67,327.5 
  "/>
<polyline clip-path="url(#clip422)" style="stroke:#7f7f7f; stroke-width:4; stroke-opacity:0.5; fill:none" points="
  1320.06,773.326 1392.56,182.863 
  "/>
<polyline clip-path="url(#clip422)" style="stroke:#7f7f7f; stroke-width:4; stroke-opacity:0.5; fill:none" points="
  1320.06,773.326 1320.06,168.589 
  "/>
<polyline clip-path="url(#clip422)" style="stroke:#7f7f7f; stroke-width:4; stroke-opacity:0.5; fill:none" points="
  1320.06,773.326 1266.83,164.866 
  "/>
<polyline clip-path="url(#clip422)" style="stroke:#7f7f7f; stroke-width:4; stroke-opacity:0.5; fill:none" points="
  1320.06,773.326 1200.89,160.256 
  "/>
<polyline clip-path="url(#clip422)" style="stroke:#7f7f7f; stroke-width:4; stroke-opacity:0.5; fill:none" points="
  1320.06,773.326 1204.37,341.554 
  "/>
<polyline clip-path="url(#clip422)" style="stroke:#7f7f7f; stroke-width:4; stroke-opacity:0.5; fill:none" points="
  1320.06,773.326 1209.81,470.423 
  "/>
<polyline clip-path="url(#clip422)" style="stroke:#7f7f7f; stroke-width:4; stroke-opacity:0.5; fill:none" points="
  1320.06,773.326 1214.92,591.211 
  "/>
<polyline clip-path="url(#clip422)" style="stroke:#7f7f7f; stroke-width:4; stroke-opacity:0.5; fill:none" points="
  1320.06,773.326 1220.18,715.657 
  "/>
<polyline clip-path="url(#clip422)" style="stroke:#7f7f7f; stroke-width:4; stroke-opacity:0.5; fill:none" points="
  1320.06,773.326 1222.61,773.326 
  "/>
<polyline clip-path="url(#clip422)" style="stroke:#7f7f7f; stroke-width:4; stroke-opacity:0.5; fill:none" points="
  1320.06,773.326 1224.93,828.248 
  "/>
<polyline clip-path="url(#clip422)" style="stroke:#7f7f7f; stroke-width:4; stroke-opacity:0.5; fill:none" points="
  1320.06,773.326 1229.26,930.602 
  "/>
<polyline clip-path="url(#clip422)" style="stroke:#7f7f7f; stroke-width:4; stroke-opacity:0.5; fill:none" points="
  1320.06,773.326 1235.89,1087.47 
  "/>
<polyline clip-path="url(#clip422)" style="stroke:#7f7f7f; stroke-width:4; stroke-opacity:0.5; fill:none" points="
  1320.06,773.326 1241.45,1219.15 
  "/>
<polyline clip-path="url(#clip422)" style="stroke:#7f7f7f; stroke-width:4; stroke-opacity:0.5; fill:none" points="
  1320.06,773.326 1247.56,1363.79 
  "/>
<polyline clip-path="url(#clip422)" style="stroke:#7f7f7f; stroke-width:4; stroke-opacity:0.5; fill:none" points="
  1320.06,773.326 1320.06,1378.06 
  "/>
<polyline clip-path="url(#clip422)" style="stroke:#7f7f7f; stroke-width:4; stroke-opacity:0.5; fill:none" points="
  1320.06,773.326 1373.29,1381.79 
  "/>
<polyline clip-path="url(#clip422)" style="stroke:#7f7f7f; stroke-width:4; stroke-opacity:0.5; fill:none" points="
  1320.06,773.326 1439.23,1386.4 
  "/>
<polyline clip-path="url(#clip422)" style="stroke:#7f7f7f; stroke-width:4; stroke-opacity:0.5; fill:none" points="
  1320.06,773.326 1435.75,1205.1 
  "/>
<polyline clip-path="url(#clip422)" style="stroke:#7f7f7f; stroke-width:4; stroke-opacity:0.5; fill:none" points="
  1320.06,773.326 1430.31,1076.23 
  "/>
<polyline clip-path="url(#clip422)" style="stroke:#7f7f7f; stroke-width:4; stroke-opacity:0.5; fill:none" points="
  1320.06,773.326 1425.2,955.441 
  "/>
<polyline clip-path="url(#clip422)" style="stroke:#7f7f7f; stroke-width:4; stroke-opacity:0.5; fill:none" points="
  1320.06,773.326 1419.95,830.995 
  "/>
<polyline clip-path="url(#clip422)" style="stroke:#ff5a80; stroke-width:6; stroke-opacity:1; fill:none" points="
  1417.51,773.326 1415.19,718.404 
  "/>
<polyline clip-path="url(#clip422)" style="stroke:#ff588c; stroke-width:6; stroke-opacity:1; fill:none" points="
  1415.19,718.404 1410.86,616.05 
  "/>
<polyline clip-path="url(#clip422)" style="stroke:#ff55a1; stroke-width:6; stroke-opacity:1; fill:none" points="
  1410.86,616.05 1404.24,459.18 
  "/>
<polyline clip-path="url(#clip422)" style="stroke:#ff4fc2; stroke-width:6; stroke-opacity:1; fill:none" points="
  1404.24,459.18 1398.67,327.5 
  "/>
<polyline clip-path="url(#clip422)" style="stroke:#ff4bde; stroke-width:6; stroke-opacity:1; fill:none" points="
  1398.67,327.5 1392.56,182.863 
  "/>
<polyline clip-path="url(#clip422)" style="stroke:#ff46fd; stroke-width:6; stroke-opacity:1; fill:none" points="
  1392.56,182.863 1320.06,168.589 
  "/>
<polyline clip-path="url(#clip422)" style="stroke:#a061ff; stroke-width:6; stroke-opacity:1; fill:none" points="
  1320.06,168.589 1266.83,164.866 
  "/>
<polyline clip-path="url(#clip422)" style="stroke:#5b75ff; stroke-width:6; stroke-opacity:1; fill:none" points="
  1266.83,164.866 1200.89,160.256 
  "/>
<polyline clip-path="url(#clip422)" style="stroke:#058eff; stroke-width:6; stroke-opacity:1; fill:none" points="
  1200.89,160.256 1204.37,341.554 
  "/>
<polyline clip-path="url(#clip422)" style="stroke:#0096d8; stroke-width:6; stroke-opacity:1; fill:none" points="
  1204.37,341.554 1209.81,470.423 
  "/>
<polyline clip-path="url(#clip422)" style="stroke:#009abd; stroke-width:6; stroke-opacity:1; fill:none" points="
  1209.81,470.423 1214.92,591.211 
  "/>
<polyline clip-path="url(#clip422)" style="stroke:#009ea4; stroke-width:6; stroke-opacity:1; fill:none" points="
  1214.92,591.211 1220.18,715.657 
  "/>
<polyline clip-path="url(#clip422)" style="stroke:#00a28a; stroke-width:6; stroke-opacity:1; fill:none" points="
  1220.18,715.657 1222.61,773.326 
  "/>
<polyline clip-path="url(#clip422)" style="stroke:#00a47e; stroke-width:6; stroke-opacity:1; fill:none" points="
  1222.61,773.326 1224.93,828.248 
  "/>
<polyline clip-path="url(#clip422)" style="stroke:#00a672; stroke-width:6; stroke-opacity:1; fill:none" points="
  1224.93,828.248 1229.26,930.602 
  "/>
<polyline clip-path="url(#clip422)" style="stroke:#00a95d; stroke-width:6; stroke-opacity:1; fill:none" points="
  1229.26,930.602 1235.89,1087.47 
  "/>
<polyline clip-path="url(#clip422)" style="stroke:#00af3c; stroke-width:6; stroke-opacity:1; fill:none" points="
  1235.89,1087.47 1241.45,1219.15 
  "/>
<polyline clip-path="url(#clip422)" style="stroke:#00b320; stroke-width:6; stroke-opacity:1; fill:none" points="
  1241.45,1219.15 1247.56,1363.79 
  "/>
<polyline clip-path="url(#clip422)" style="stroke:#00b801; stroke-width:6; stroke-opacity:1; fill:none" points="
  1247.56,1363.79 1320.06,1378.06 
  "/>
<polyline clip-path="url(#clip422)" style="stroke:#5e9d00; stroke-width:6; stroke-opacity:1; fill:none" points="
  1320.06,1378.06 1373.29,1381.79 
  "/>
<polyline clip-path="url(#clip422)" style="stroke:#a38900; stroke-width:6; stroke-opacity:1; fill:none" points="
  1373.29,1381.79 1439.23,1386.4 
  "/>
<polyline clip-path="url(#clip422)" style="stroke:#f97000; stroke-width:6; stroke-opacity:1; fill:none" points="
  1439.23,1386.4 1435.75,1205.1 
  "/>
<polyline clip-path="url(#clip422)" style="stroke:#ff6826; stroke-width:6; stroke-opacity:1; fill:none" points="
  1435.75,1205.1 1430.31,1076.23 
  "/>
<polyline clip-path="url(#clip422)" style="stroke:#ff6441; stroke-width:6; stroke-opacity:1; fill:none" points="
  1430.31,1076.23 1425.2,955.441 
  "/>
<polyline clip-path="url(#clip422)" style="stroke:#ff605a; stroke-width:6; stroke-opacity:1; fill:none" points="
  1425.2,955.441 1419.95,830.995 
  "/>
<circle clip-path="url(#clip422)" cx="1417.51" cy="773.326" r="21" fill="#ff5a80" fill-rule="evenodd" fill-opacity="1" stroke="#000000" stroke-opacity="1" stroke-width="0"/>
<circle clip-path="url(#clip422)" cx="1415.19" cy="718.404" r="21" fill="#ff588c" fill-rule="evenodd" fill-opacity="1" stroke="#000000" stroke-opacity="1" stroke-width="0"/>
<circle clip-path="url(#clip422)" cx="1410.86" cy="616.05" r="21" fill="#ff55a1" fill-rule="evenodd" fill-opacity="1" stroke="#000000" stroke-opacity="1" stroke-width="0"/>
<circle clip-path="url(#clip422)" cx="1404.24" cy="459.18" r="21" fill="#ff4fc2" fill-rule="evenodd" fill-opacity="1" stroke="#000000" stroke-opacity="1" stroke-width="0"/>
<circle clip-path="url(#clip422)" cx="1398.67" cy="327.5" r="21" fill="#ff4bde" fill-rule="evenodd" fill-opacity="1" stroke="#000000" stroke-opacity="1" stroke-width="0"/>
<circle clip-path="url(#clip422)" cx="1392.56" cy="182.863" r="21" fill="#ff46fd" fill-rule="evenodd" fill-opacity="1" stroke="#000000" stroke-opacity="1" stroke-width="0"/>
<circle clip-path="url(#clip422)" cx="1320.06" cy="168.589" r="21" fill="#a061ff" fill-rule="evenodd" fill-opacity="1" stroke="#000000" stroke-opacity="1" stroke-width="0"/>
<circle clip-path="url(#clip422)" cx="1266.83" cy="164.866" r="21" fill="#5b75ff" fill-rule="evenodd" fill-opacity="1" stroke="#000000" stroke-opacity="1" stroke-width="0"/>
<circle clip-path="url(#clip422)" cx="1200.89" cy="160.256" r="21" fill="#058eff" fill-rule="evenodd" fill-opacity="1" stroke="#000000" stroke-opacity="1" stroke-width="0"/>
<circle clip-path="url(#clip422)" cx="1204.37" cy="341.554" r="21" fill="#0096d8" fill-rule="evenodd" fill-opacity="1" stroke="#000000" stroke-opacity="1" stroke-width="0"/>
<circle clip-path="url(#clip422)" cx="1209.81" cy="470.423" r="21" fill="#009abd" fill-rule="evenodd" fill-opacity="1" stroke="#000000" stroke-opacity="1" stroke-width="0"/>
<circle clip-path="url(#clip422)" cx="1214.92" cy="591.211" r="21" fill="#009ea4" fill-rule="evenodd" fill-opacity="1" stroke="#000000" stroke-opacity="1" stroke-width="0"/>
<circle clip-path="url(#clip422)" cx="1220.18" cy="715.657" r="21" fill="#00a28a" fill-rule="evenodd" fill-opacity="1" stroke="#000000" stroke-opacity="1" stroke-width="0"/>
<circle clip-path="url(#clip422)" cx="1222.61" cy="773.326" r="21" fill="#00a47e" fill-rule="evenodd" fill-opacity="1" stroke="#000000" stroke-opacity="1" stroke-width="0"/>
<circle clip-path="url(#clip422)" cx="1224.93" cy="828.248" r="21" fill="#00a672" fill-rule="evenodd" fill-opacity="1" stroke="#000000" stroke-opacity="1" stroke-width="0"/>
<circle clip-path="url(#clip422)" cx="1229.26" cy="930.602" r="21" fill="#00a95d" fill-rule="evenodd" fill-opacity="1" stroke="#000000" stroke-opacity="1" stroke-width="0"/>
<circle clip-path="url(#clip422)" cx="1235.89" cy="1087.47" r="21" fill="#00af3c" fill-rule="evenodd" fill-opacity="1" stroke="#000000" stroke-opacity="1" stroke-width="0"/>
<circle clip-path="url(#clip422)" cx="1241.45" cy="1219.15" r="21" fill="#00b320" fill-rule="evenodd" fill-opacity="1" stroke="#000000" stroke-opacity="1" stroke-width="0"/>
<circle clip-path="url(#clip422)" cx="1247.56" cy="1363.79" r="21" fill="#00b801" fill-rule="evenodd" fill-opacity="1" stroke="#000000" stroke-opacity="1" stroke-width="0"/>
<circle clip-path="url(#clip422)" cx="1320.06" cy="1378.06" r="21" fill="#5e9d00" fill-rule="evenodd" fill-opacity="1" stroke="#000000" stroke-opacity="1" stroke-width="0"/>
<circle clip-path="url(#clip422)" cx="1373.29" cy="1381.79" r="21" fill="#a38900" fill-rule="evenodd" fill-opacity="1" stroke="#000000" stroke-opacity="1" stroke-width="0"/>
<circle clip-path="url(#clip422)" cx="1439.23" cy="1386.4" r="21" fill="#f97000" fill-rule="evenodd" fill-opacity="1" stroke="#000000" stroke-opacity="1" stroke-width="0"/>
<circle clip-path="url(#clip422)" cx="1435.75" cy="1205.1" r="21" fill="#ff6826" fill-rule="evenodd" fill-opacity="1" stroke="#000000" stroke-opacity="1" stroke-width="0"/>
<circle clip-path="url(#clip422)" cx="1430.31" cy="1076.23" r="21" fill="#ff6441" fill-rule="evenodd" fill-opacity="1" stroke="#000000" stroke-opacity="1" stroke-width="0"/>
<circle clip-path="url(#clip422)" cx="1425.2" cy="955.441" r="21" fill="#ff605a" fill-rule="evenodd" fill-opacity="1" stroke="#000000" stroke-opacity="1" stroke-width="0"/>
<circle clip-path="url(#clip422)" cx="1419.95" cy="830.995" r="21" fill="#ff5c74" fill-rule="evenodd" fill-opacity="1" stroke="#000000" stroke-opacity="1" stroke-width="0"/>
</svg>
