<?xml version="1.0" encoding="utf-8"?>
<svg xmlns="http://www.w3.org/2000/svg" xmlns:xlink="http://www.w3.org/1999/xlink" width="600" height="400" viewBox="0 0 2400 1600">
<defs>
  <clipPath id="clip870">
    <rect x="0" y="0" width="2400" height="1600"/>
  </clipPath>
</defs>
<path clip-path="url(#clip870)" d="
M0 1600 L2400 1600 L2400 0 L0 0  Z
  " fill="#ffffff" fill-rule="evenodd" fill-opacity="1"/>
<defs>
  <clipPath id="clip871">
    <rect x="480" y="0" width="1681" height="1600"/>
  </clipPath>
</defs>
<path clip-path="url(#clip870)" d="
M287.366 1423.18 L2352.76 1423.18 L2352.76 123.472 L287.366 123.472  Z
  " fill="#ffffff" fill-rule="evenodd" fill-opacity="1"/>
<defs>
  <clipPath id="clip872">
    <rect x="287" y="123" width="2066" height="1301"/>
  </clipPath>
</defs>
<polyline clip-path="url(#clip872)" style="stroke:#000000; stroke-width:2; stroke-opacity:0.1; fill:none" points="
  332.912,1423.18 332.912,123.472 
  "/>
<polyline clip-path="url(#clip872)" style="stroke:#000000; stroke-width:2; stroke-opacity:0.1; fill:none" points="
  661.962,1423.18 661.962,123.472 
  "/>
<polyline clip-path="url(#clip872)" style="stroke:#000000; stroke-width:2; stroke-opacity:0.1; fill:none" points="
  991.011,1423.18 991.011,123.472 
  "/>
<polyline clip-path="url(#clip872)" style="stroke:#000000; stroke-width:2; stroke-opacity:0.1; fill:none" points="
  1320.06,1423.18 1320.06,123.472 
  "/>
<polyline clip-path="url(#clip872)" style="stroke:#000000; stroke-width:2; stroke-opacity:0.1; fill:none" points="
  1649.11,1423.18 1649.11,123.472 
  "/>
<polyline clip-path="url(#clip872)" style="stroke:#000000; stroke-width:2; stroke-opacity:0.1; fill:none" points="
  1978.16,1423.18 1978.16,123.472 
  "/>
<polyline clip-path="url(#clip872)" style="stroke:#000000; stroke-width:2; stroke-opacity:0.1; fill:none" points="
  2307.21,1423.18 2307.21,123.472 
  "/>
<polyline clip-path="url(#clip870)" style="stroke:#000000; stroke-width:4; stroke-opacity:1; fill:none" points="
  287.366,1423.18 2352.76,1423.18 
  "/>
<polyline clip-path="url(#clip870)" style="stroke:#000000; stroke-width:4; stroke-opacity:1; fill:none" points="
  332.912,1423.18 332.912,1407.58 
  "/>
<polyline clip-path="url(#clip870)" style="stroke:#000000; stroke-width:4; stroke-opacity:1; fill:none" points="
  661.962,1423.18 661.962,1407.58 
  "/>
<polyline clip-path="url(#clip870)" style="stroke:#000000; stroke-width:4; stroke-opacity:1; fill:none" points="
  991.011,1423.18 991.011,1407.58 
  "/>
<polyline clip-path="url(#clip870)" style="stroke:#000000; stroke-width:4; stroke-opacity:1; fill:none" points="
  1320.06,1423.18 1320.06,1407.58 
  "/>
<polyline clip-path="url(#clip870)" style="stroke:#000000; stroke-width:4; stroke-opacity:1; fill:none" points="
  1649.11,1423.18 1649.11,1407.58 
  "/>
<polyline clip-path="url(#clip870)" style="stroke:#000000; stroke-width:4; stroke-opacity:1; fill:none" points="
  1978.16,1423.18 1978.16,1407.58 
  "/>
<polyline clip-path="url(#clip870)" style="stroke:#000000; stroke-width:4; stroke-opacity:1; fill:none" points="
  2307.21,1423.18 2307.21,1407.58 
  "/>
<path clip-path="url(#clip870)" d="M 0 0 M279.938 1467.02 L309.614 1467.02 L309.614 1470.96 L279.938 1470.96 L279.938 1467.02 Z" fill="#000000" fill-rule="evenodd" fill-opacity="1" /><path clip-path="url(#clip870)" d="M 0 0 M320.516 1479.92 L328.155 1479.92 L328.155 1453.55 L319.845 1455.22 L319.845 1450.96 L328.109 1449.29 L332.785 1449.29 L332.785 1479.92 L340.424 1479.92 L340.424 1483.85 L320.516 1483.85 L320.516 1479.92 Z" fill="#000000" fill-rule="evenodd" fill-opacity="1" /><path clip-path="url(#clip870)" d="M 0 0 M349.868 1477.97 L354.752 1477.97 L354.752 1483.85 L349.868 1483.85 L349.868 1477.97 Z" fill="#000000" fill-rule="evenodd" fill-opacity="1" /><path clip-path="url(#clip870)" d="M 0 0 M364.984 1449.29 L383.34 1449.29 L383.34 1453.23 L369.266 1453.23 L369.266 1461.7 Q370.285 1461.35 371.303 1461.19 Q372.322 1461 373.34 1461 Q379.127 1461 382.507 1464.18 Q385.886 1467.35 385.886 1472.76 Q385.886 1478.34 382.414 1481.44 Q378.942 1484.52 372.623 1484.52 Q370.447 1484.52 368.178 1484.15 Q365.933 1483.78 363.525 1483.04 L363.525 1478.34 Q365.609 1479.48 367.831 1480.03 Q370.053 1480.59 372.53 1480.59 Q376.535 1480.59 378.873 1478.48 Q381.211 1476.38 381.211 1472.76 Q381.211 1469.15 378.873 1467.05 Q376.535 1464.94 372.53 1464.94 Q370.655 1464.94 368.78 1465.36 Q366.928 1465.77 364.984 1466.65 L364.984 1449.29 Z" fill="#000000" fill-rule="evenodd" fill-opacity="1" /><path clip-path="url(#clip870)" d="M 0 0 M608.49 1467.02 L638.166 1467.02 L638.166 1470.96 L608.49 1470.96 L608.49 1467.02 Z" fill="#000000" fill-rule="evenodd" fill-opacity="1" /><path clip-path="url(#clip870)" d="M 0 0 M649.068 1479.92 L656.707 1479.92 L656.707 1453.55 L648.397 1455.22 L648.397 1450.96 L656.661 1449.29 L661.337 1449.29 L661.337 1479.92 L668.976 1479.92 L668.976 1483.85 L649.068 1483.85 L649.068 1479.92 Z" fill="#000000" fill-rule="evenodd" fill-opacity="1" /><path clip-path="url(#clip870)" d="M 0 0 M678.42 1477.97 L683.304 1477.97 L683.304 1483.85 L678.42 1483.85 L678.42 1477.97 Z" fill="#000000" fill-rule="evenodd" fill-opacity="1" /><path clip-path="url(#clip870)" d="M 0 0 M703.489 1452.37 Q699.878 1452.37 698.05 1455.94 Q696.244 1459.48 696.244 1466.61 Q696.244 1473.71 698.05 1477.28 Q699.878 1480.82 703.489 1480.82 Q707.124 1480.82 708.929 1477.28 Q710.758 1473.71 710.758 1466.61 Q710.758 1459.48 708.929 1455.94 Q707.124 1452.37 703.489 1452.37 M703.489 1448.67 Q709.299 1448.67 712.355 1453.27 Q715.434 1457.86 715.434 1466.61 Q715.434 1475.33 712.355 1479.94 Q709.299 1484.52 703.489 1484.52 Q697.679 1484.52 694.6 1479.94 Q691.545 1475.33 691.545 1466.61 Q691.545 1457.86 694.6 1453.27 Q697.679 1448.67 703.489 1448.67 Z" fill="#000000" fill-rule="evenodd" fill-opacity="1" /><path clip-path="url(#clip870)" d="M 0 0 M938.037 1467.02 L967.713 1467.02 L967.713 1470.96 L938.037 1470.96 L938.037 1467.02 Z" fill="#000000" fill-rule="evenodd" fill-opacity="1" /><path clip-path="url(#clip870)" d="M 0 0 M987.805 1452.37 Q984.194 1452.37 982.366 1455.94 Q980.56 1459.48 980.56 1466.61 Q980.56 1473.71 982.366 1477.28 Q984.194 1480.82 987.805 1480.82 Q991.44 1480.82 993.245 1477.28 Q995.074 1473.71 995.074 1466.61 Q995.074 1459.48 993.245 1455.94 Q991.44 1452.37 987.805 1452.37 M987.805 1448.67 Q993.615 1448.67 996.671 1453.27 Q999.75 1457.86 999.75 1466.61 Q999.75 1475.33 996.671 1479.94 Q993.615 1484.52 987.805 1484.52 Q981.995 1484.52 978.916 1479.94 Q975.861 1475.33 975.861 1466.61 Q975.861 1457.86 978.916 1453.27 Q981.995 1448.67 987.805 1448.67 Z" fill="#000000" fill-rule="evenodd" fill-opacity="1" /><path clip-path="url(#clip870)" d="M 0 0 M1007.97 1477.97 L1012.85 1477.97 L1012.85 1483.85 L1007.97 1483.85 L1007.97 1477.97 Z" fill="#000000" fill-rule="evenodd" fill-opacity="1" /><path clip-path="url(#clip870)" d="M 0 0 M1023.08 1449.29 L1041.44 1449.29 L1041.44 1453.23 L1027.37 1453.23 L1027.37 1461.7 Q1028.38 1461.35 1029.4 1461.19 Q1030.42 1461 1031.44 1461 Q1037.23 1461 1040.61 1464.18 Q1043.99 1467.35 1043.99 1472.76 Q1043.99 1478.34 1040.51 1481.44 Q1037.04 1484.52 1030.72 1484.52 Q1028.55 1484.52 1026.28 1484.15 Q1024.03 1483.78 1021.62 1483.04 L1021.62 1478.34 Q1023.71 1479.48 1025.93 1480.03 Q1028.15 1480.59 1030.63 1480.59 Q1034.63 1480.59 1036.97 1478.48 Q1039.31 1476.38 1039.31 1472.76 Q1039.31 1469.15 1036.97 1467.05 Q1034.63 1464.94 1030.63 1464.94 Q1028.75 1464.94 1026.88 1465.36 Q1025.03 1465.77 1023.08 1466.65 L1023.08 1449.29 Z" fill="#000000" fill-rule="evenodd" fill-opacity="1" /><path clip-path="url(#clip870)" d="M 0 0 M1297.45 1452.37 Q1293.83 1452.37 1292.01 1455.94 Q1290.2 1459.48 1290.2 1466.61 Q1290.2 1473.71 1292.01 1477.28 Q1293.83 1480.82 1297.45 1480.82 Q1301.08 1480.82 1302.89 1477.28 Q1304.71 1473.71 1304.71 1466.61 Q1304.71 1459.48 1302.89 1455.94 Q1301.08 1452.37 1297.45 1452.37 M1297.45 1448.67 Q1303.26 1448.67 1306.31 1453.27 Q1309.39 1457.86 1309.39 1466.61 Q1309.39 1475.33 1306.31 1479.94 Q1303.26 1484.52 1297.45 1484.52 Q1291.64 1484.52 1288.56 1479.94 Q1285.5 1475.33 1285.5 1466.61 Q1285.5 1457.86 1288.56 1453.27 Q1291.64 1448.67 1297.45 1448.67 Z" fill="#000000" fill-rule="evenodd" fill-opacity="1" /><path clip-path="url(#clip870)" d="M 0 0 M1317.61 1477.97 L1322.49 1477.97 L1322.49 1483.85 L1317.61 1483.85 L1317.61 1477.97 Z" fill="#000000" fill-rule="evenodd" fill-opacity="1" /><path clip-path="url(#clip870)" d="M 0 0 M1342.68 1452.37 Q1339.07 1452.37 1337.24 1455.94 Q1335.43 1459.48 1335.43 1466.61 Q1335.43 1473.71 1337.24 1477.28 Q1339.07 1480.82 1342.68 1480.82 Q1346.31 1480.82 1348.12 1477.28 Q1349.95 1473.71 1349.95 1466.61 Q1349.95 1459.48 1348.12 1455.94 Q1346.31 1452.37 1342.68 1452.37 M1342.68 1448.67 Q1348.49 1448.67 1351.54 1453.27 Q1354.62 1457.86 1354.62 1466.61 Q1354.62 1475.33 1351.54 1479.94 Q1348.49 1484.52 1342.68 1484.52 Q1336.87 1484.52 1333.79 1479.94 Q1330.73 1475.33 1330.73 1466.61 Q1330.73 1457.86 1333.79 1453.27 Q1336.87 1448.67 1342.68 1448.67 Z" fill="#000000" fill-rule="evenodd" fill-opacity="1" /><path clip-path="url(#clip870)" d="M 0 0 M1626.99 1452.37 Q1623.38 1452.37 1621.55 1455.94 Q1619.75 1459.48 1619.75 1466.61 Q1619.75 1473.71 1621.55 1477.28 Q1623.38 1480.82 1626.99 1480.82 Q1630.63 1480.82 1632.43 1477.28 Q1634.26 1473.71 1634.26 1466.61 Q1634.26 1459.48 1632.43 1455.94 Q1630.63 1452.37 1626.99 1452.37 M1626.99 1448.67 Q1632.8 1448.67 1635.86 1453.27 Q1638.94 1457.86 1638.94 1466.61 Q1638.94 1475.33 1635.86 1479.94 Q1632.8 1484.52 1626.99 1484.52 Q1621.18 1484.52 1618.1 1479.94 Q1615.05 1475.33 1615.05 1466.61 Q1615.05 1457.86 1618.1 1453.27 Q1621.18 1448.67 1626.99 1448.67 Z" fill="#000000" fill-rule="evenodd" fill-opacity="1" /><path clip-path="url(#clip870)" d="M 0 0 M1647.15 1477.97 L1652.04 1477.97 L1652.04 1483.85 L1647.15 1483.85 L1647.15 1477.97 Z" fill="#000000" fill-rule="evenodd" fill-opacity="1" /><path clip-path="url(#clip870)" d="M 0 0 M1662.27 1449.29 L1680.63 1449.29 L1680.63 1453.23 L1666.55 1453.23 L1666.55 1461.7 Q1667.57 1461.35 1668.59 1461.19 Q1669.61 1461 1670.63 1461 Q1676.41 1461 1679.79 1464.18 Q1683.17 1467.35 1683.17 1472.76 Q1683.17 1478.34 1679.7 1481.44 Q1676.23 1484.52 1669.91 1484.52 Q1667.73 1484.52 1665.46 1484.15 Q1663.22 1483.78 1660.81 1483.04 L1660.81 1478.34 Q1662.9 1479.48 1665.12 1480.03 Q1667.34 1480.59 1669.82 1480.59 Q1673.82 1480.59 1676.16 1478.48 Q1678.5 1476.38 1678.5 1472.76 Q1678.5 1469.15 1676.16 1467.05 Q1673.82 1464.94 1669.82 1464.94 Q1667.94 1464.94 1666.07 1465.36 Q1664.21 1465.77 1662.27 1466.65 L1662.27 1449.29 Z" fill="#000000" fill-rule="evenodd" fill-opacity="1" /><path clip-path="url(#clip870)" d="M 0 0 M1945.31 1479.92 L1952.95 1479.92 L1952.95 1453.55 L1944.64 1455.22 L1944.64 1450.96 L1952.91 1449.29 L1957.58 1449.29 L1957.58 1479.92 L1965.22 1479.92 L1965.22 1483.85 L1945.31 1483.85 L1945.31 1479.92 Z" fill="#000000" fill-rule="evenodd" fill-opacity="1" /><path clip-path="url(#clip870)" d="M 0 0 M1974.66 1477.97 L1979.55 1477.97 L1979.55 1483.85 L1974.66 1483.85 L1974.66 1477.97 Z" fill="#000000" fill-rule="evenodd" fill-opacity="1" /><path clip-path="url(#clip870)" d="M 0 0 M1999.73 1452.37 Q1996.12 1452.37 1994.29 1455.94 Q1992.49 1459.48 1992.49 1466.61 Q1992.49 1473.71 1994.29 1477.28 Q1996.12 1480.82 1999.73 1480.82 Q2003.37 1480.82 2005.17 1477.28 Q2007 1473.71 2007 1466.61 Q2007 1459.48 2005.17 1455.94 Q2003.37 1452.37 1999.73 1452.37 M1999.73 1448.67 Q2005.54 1448.67 2008.6 1453.27 Q2011.68 1457.86 2011.68 1466.61 Q2011.68 1475.33 2008.6 1479.94 Q2005.54 1484.52 1999.73 1484.52 Q1993.92 1484.52 1990.85 1479.94 Q1987.79 1475.33 1987.79 1466.61 Q1987.79 1457.86 1990.85 1453.27 Q1993.92 1448.67 1999.73 1448.67 Z" fill="#000000" fill-rule="evenodd" fill-opacity="1" /><path clip-path="url(#clip870)" d="M 0 0 M2274.86 1479.92 L2282.5 1479.92 L2282.5 1453.55 L2274.19 1455.22 L2274.19 1450.96 L2282.45 1449.29 L2287.13 1449.29 L2287.13 1479.92 L2294.77 1479.92 L2294.77 1483.85 L2274.86 1483.85 L2274.86 1479.92 Z" fill="#000000" fill-rule="evenodd" fill-opacity="1" /><path clip-path="url(#clip870)" d="M 0 0 M2304.21 1477.97 L2309.1 1477.97 L2309.1 1483.85 L2304.21 1483.85 L2304.21 1477.97 Z" fill="#000000" fill-rule="evenodd" fill-opacity="1" /><path clip-path="url(#clip870)" d="M 0 0 M2319.33 1449.29 L2337.68 1449.29 L2337.68 1453.23 L2323.61 1453.23 L2323.61 1461.7 Q2324.63 1461.35 2325.65 1461.19 Q2326.67 1461 2327.68 1461 Q2333.47 1461 2336.85 1464.18 Q2340.23 1467.35 2340.23 1472.76 Q2340.23 1478.34 2336.76 1481.44 Q2333.29 1484.52 2326.97 1484.52 Q2324.79 1484.52 2322.52 1484.15 Q2320.28 1483.78 2317.87 1483.04 L2317.87 1478.34 Q2319.95 1479.48 2322.17 1480.03 Q2324.4 1480.59 2326.87 1480.59 Q2330.88 1480.59 2333.22 1478.48 Q2335.55 1476.38 2335.55 1472.76 Q2335.55 1469.15 2333.22 1467.05 Q2330.88 1464.94 2326.87 1464.94 Q2325 1464.94 2323.12 1465.36 Q2321.27 1465.77 2319.33 1466.65 L2319.33 1449.29 Z" fill="#000000" fill-rule="evenodd" fill-opacity="1" /><path clip-path="url(#clip870)" d="M 0 0 M1268.98 1520.52 L1275.41 1520.52 L1275.41 1562.63 L1298.54 1562.63 L1298.54 1568.04 L1268.98 1568.04 L1268.98 1520.52 Z" fill="#000000" fill-rule="evenodd" fill-opacity="1" /><path clip-path="url(#clip870)" d="M 0 0 M1300.93 1547.58 L1318.09 1547.58 L1318.09 1552.8 L1300.93 1552.8 L1300.93 1547.58 Z" fill="#000000" fill-rule="evenodd" fill-opacity="1" /><path clip-path="url(#clip870)" d="M 0 0 M1327.67 1520.52 L1337.25 1520.52 L1349.37 1552.86 L1361.57 1520.52 L1371.15 1520.52 L1371.15 1568.04 L1364.88 1568.04 L1364.88 1526.32 L1352.62 1558.91 L1346.16 1558.91 L1333.91 1526.32 L1333.91 1568.04 L1327.67 1568.04 L1327.67 1520.52 Z" fill="#000000" fill-rule="evenodd" fill-opacity="1" /><polyline clip-path="url(#clip872)" style="stroke:#000000; stroke-width:2; stroke-opacity:0.1; fill:none" points="
  287.366,1266.9 2352.76,1266.9 
  "/>
<polyline clip-path="url(#clip872)" style="stroke:#000000; stroke-width:2; stroke-opacity:0.1; fill:none" points="
  287.366,1102.38 2352.76,1102.38 
  "/>
<polyline clip-path="url(#clip872)" style="stroke:#000000; stroke-width:2; stroke-opacity:0.1; fill:none" points="
  287.366,937.851 2352.76,937.851 
  "/>
<polyline clip-path="url(#clip872)" style="stroke:#000000; stroke-width:2; stroke-opacity:0.1; fill:none" points="
  287.366,773.326 2352.76,773.326 
  "/>
<polyline clip-path="url(#clip872)" style="stroke:#000000; stroke-width:2; stroke-opacity:0.1; fill:none" points="
  287.366,608.801 2352.76,608.801 
  "/>
<polyline clip-path="url(#clip872)" style="stroke:#000000; stroke-width:2; stroke-opacity:0.1; fill:none" points="
  287.366,444.276 2352.76,444.276 
  "/>
<polyline clip-path="url(#clip872)" style="stroke:#000000; stroke-width:2; stroke-opacity:0.1; fill:none" points="
  287.366,279.752 2352.76,279.752 
  "/>
<polyline clip-path="url(#clip870)" style="stroke:#000000; stroke-width:4; stroke-opacity:1; fill:none" points="
  287.366,1423.18 287.366,123.472 
  "/>
<polyline clip-path="url(#clip870)" style="stroke:#000000; stroke-width:4; stroke-opacity:1; fill:none" points="
  287.366,1266.9 312.151,1266.9 
  "/>
<polyline clip-path="url(#clip870)" style="stroke:#000000; stroke-width:4; stroke-opacity:1; fill:none" points="
  287.366,1102.38 312.151,1102.38 
  "/>
<polyline clip-path="url(#clip870)" style="stroke:#000000; stroke-width:4; stroke-opacity:1; fill:none" points="
  287.366,937.851 312.151,937.851 
  "/>
<polyline clip-path="url(#clip870)" style="stroke:#000000; stroke-width:4; stroke-opacity:1; fill:none" points="
  287.366,773.326 312.151,773.326 
  "/>
<polyline clip-path="url(#clip870)" style="stroke:#000000; stroke-width:4; stroke-opacity:1; fill:none" points="
  287.366,608.801 312.151,608.801 
  "/>
<polyline clip-path="url(#clip870)" style="stroke:#000000; stroke-width:4; stroke-opacity:1; fill:none" points="
  287.366,444.276 312.151,444.276 
  "/>
<polyline clip-path="url(#clip870)" style="stroke:#000000; stroke-width:4; stroke-opacity:1; fill:none" points="
  287.366,279.752 312.151,279.752 
  "/>
<path clip-path="url(#clip870)" d="M 0 0 M115.256 1267.35 L144.931 1267.35 L144.931 1271.29 L115.256 1271.29 L115.256 1267.35 Z" fill="#000000" fill-rule="evenodd" fill-opacity="1" /><path clip-path="url(#clip870)" d="M 0 0 M165.024 1252.7 Q161.413 1252.7 159.584 1256.26 Q157.778 1259.81 157.778 1266.94 Q157.778 1274.04 159.584 1277.61 Q161.413 1281.15 165.024 1281.15 Q168.658 1281.15 170.464 1277.61 Q172.292 1274.04 172.292 1266.94 Q172.292 1259.81 170.464 1256.26 Q168.658 1252.7 165.024 1252.7 M165.024 1249 Q170.834 1249 173.889 1253.6 Q176.968 1258.19 176.968 1266.94 Q176.968 1275.66 173.889 1280.27 Q170.834 1284.85 165.024 1284.85 Q159.214 1284.85 156.135 1280.27 Q153.079 1275.66 153.079 1266.94 Q153.079 1258.19 156.135 1253.6 Q159.214 1249 165.024 1249 Z" fill="#000000" fill-rule="evenodd" fill-opacity="1" /><path clip-path="url(#clip870)" d="M 0 0 M185.186 1278.3 L190.07 1278.3 L190.07 1284.18 L185.186 1284.18 L185.186 1278.3 Z" fill="#000000" fill-rule="evenodd" fill-opacity="1" /><path clip-path="url(#clip870)" d="M 0 0 M199.075 1249.62 L221.297 1249.62 L221.297 1251.61 L208.75 1284.18 L203.866 1284.18 L215.672 1253.56 L199.075 1253.56 L199.075 1249.62 Z" fill="#000000" fill-rule="evenodd" fill-opacity="1" /><path clip-path="url(#clip870)" d="M 0 0 M230.463 1249.62 L248.82 1249.62 L248.82 1253.56 L234.746 1253.56 L234.746 1262.03 Q235.764 1261.68 236.783 1261.52 Q237.801 1261.33 238.82 1261.33 Q244.607 1261.33 247.986 1264.5 Q251.366 1267.68 251.366 1273.09 Q251.366 1278.67 247.894 1281.77 Q244.421 1284.85 238.102 1284.85 Q235.926 1284.85 233.658 1284.48 Q231.412 1284.11 229.005 1283.37 L229.005 1278.67 Q231.088 1279.81 233.31 1280.36 Q235.533 1280.92 238.009 1280.92 Q242.014 1280.92 244.352 1278.81 Q246.69 1276.7 246.69 1273.09 Q246.69 1269.48 244.352 1267.37 Q242.014 1265.27 238.009 1265.27 Q236.135 1265.27 234.26 1265.69 Q232.408 1266.1 230.463 1266.98 L230.463 1249.62 Z" fill="#000000" fill-rule="evenodd" fill-opacity="1" /><path clip-path="url(#clip870)" d="M 0 0 M114.26 1102.83 L143.936 1102.83 L143.936 1106.76 L114.26 1106.76 L114.26 1102.83 Z" fill="#000000" fill-rule="evenodd" fill-opacity="1" /><path clip-path="url(#clip870)" d="M 0 0 M164.028 1088.17 Q160.417 1088.17 158.589 1091.74 Q156.783 1095.28 156.783 1102.41 Q156.783 1109.52 158.589 1113.08 Q160.417 1116.62 164.028 1116.62 Q167.663 1116.62 169.468 1113.08 Q171.297 1109.52 171.297 1102.41 Q171.297 1095.28 169.468 1091.74 Q167.663 1088.17 164.028 1088.17 M164.028 1084.47 Q169.839 1084.47 172.894 1089.08 Q175.973 1093.66 175.973 1102.41 Q175.973 1111.14 172.894 1115.74 Q169.839 1120.33 164.028 1120.33 Q158.218 1120.33 155.14 1115.74 Q152.084 1111.14 152.084 1102.41 Q152.084 1093.66 155.14 1089.08 Q158.218 1084.47 164.028 1084.47 Z" fill="#000000" fill-rule="evenodd" fill-opacity="1" /><path clip-path="url(#clip870)" d="M 0 0 M184.19 1113.78 L189.075 1113.78 L189.075 1119.66 L184.19 1119.66 L184.19 1113.78 Z" fill="#000000" fill-rule="evenodd" fill-opacity="1" /><path clip-path="url(#clip870)" d="M 0 0 M199.306 1085.1 L217.662 1085.1 L217.662 1089.03 L203.588 1089.03 L203.588 1097.5 Q204.607 1097.16 205.625 1096.99 Q206.644 1096.81 207.662 1096.81 Q213.449 1096.81 216.829 1099.98 Q220.209 1103.15 220.209 1108.57 Q220.209 1114.15 216.736 1117.25 Q213.264 1120.33 206.945 1120.33 Q204.769 1120.33 202.5 1119.96 Q200.255 1119.59 197.848 1118.85 L197.848 1114.15 Q199.931 1115.28 202.153 1115.84 Q204.375 1116.39 206.852 1116.39 Q210.857 1116.39 213.195 1114.29 Q215.533 1112.18 215.533 1108.57 Q215.533 1104.96 213.195 1102.85 Q210.857 1100.74 206.852 1100.74 Q204.977 1100.74 203.102 1101.16 Q201.25 1101.58 199.306 1102.46 L199.306 1085.1 Z" fill="#000000" fill-rule="evenodd" fill-opacity="1" /><path clip-path="url(#clip870)" d="M 0 0 M239.422 1088.17 Q235.81 1088.17 233.982 1091.74 Q232.176 1095.28 232.176 1102.41 Q232.176 1109.52 233.982 1113.08 Q235.81 1116.62 239.422 1116.62 Q243.056 1116.62 244.861 1113.08 Q246.69 1109.52 246.69 1102.41 Q246.69 1095.28 244.861 1091.74 Q243.056 1088.17 239.422 1088.17 M239.422 1084.47 Q245.232 1084.47 248.287 1089.08 Q251.366 1093.66 251.366 1102.41 Q251.366 1111.14 248.287 1115.74 Q245.232 1120.33 239.422 1120.33 Q233.611 1120.33 230.533 1115.74 Q227.477 1111.14 227.477 1102.41 Q227.477 1093.66 230.533 1089.08 Q233.611 1084.47 239.422 1084.47 Z" fill="#000000" fill-rule="evenodd" fill-opacity="1" /><path clip-path="url(#clip870)" d="M 0 0 M115.256 938.302 L144.931 938.302 L144.931 942.237 L115.256 942.237 L115.256 938.302 Z" fill="#000000" fill-rule="evenodd" fill-opacity="1" /><path clip-path="url(#clip870)" d="M 0 0 M165.024 923.649 Q161.413 923.649 159.584 927.214 Q157.778 930.756 157.778 937.885 Q157.778 944.992 159.584 948.557 Q161.413 952.098 165.024 952.098 Q168.658 952.098 170.464 948.557 Q172.292 944.992 172.292 937.885 Q172.292 930.756 170.464 927.214 Q168.658 923.649 165.024 923.649 M165.024 919.946 Q170.834 919.946 173.889 924.552 Q176.968 929.136 176.968 937.885 Q176.968 946.612 173.889 951.219 Q170.834 955.802 165.024 955.802 Q159.214 955.802 156.135 951.219 Q153.079 946.612 153.079 937.885 Q153.079 929.136 156.135 924.552 Q159.214 919.946 165.024 919.946 Z" fill="#000000" fill-rule="evenodd" fill-opacity="1" /><path clip-path="url(#clip870)" d="M 0 0 M185.186 949.251 L190.07 949.251 L190.07 955.131 L185.186 955.131 L185.186 949.251 Z" fill="#000000" fill-rule="evenodd" fill-opacity="1" /><path clip-path="url(#clip870)" d="M 0 0 M204.283 951.196 L220.602 951.196 L220.602 955.131 L198.658 955.131 L198.658 951.196 Q201.32 948.441 205.903 943.811 Q210.51 939.159 211.69 937.816 Q213.936 935.293 214.815 933.557 Q215.718 931.798 215.718 930.108 Q215.718 927.353 213.774 925.617 Q211.852 923.881 208.75 923.881 Q206.551 923.881 204.098 924.645 Q201.667 925.409 198.889 926.96 L198.889 922.237 Q201.713 921.103 204.167 920.524 Q206.621 919.946 208.658 919.946 Q214.028 919.946 217.223 922.631 Q220.417 925.316 220.417 929.807 Q220.417 931.936 219.607 933.858 Q218.82 935.756 216.713 938.348 Q216.135 939.02 213.033 942.237 Q209.931 945.432 204.283 951.196 Z" fill="#000000" fill-rule="evenodd" fill-opacity="1" /><path clip-path="url(#clip870)" d="M 0 0 M230.463 920.571 L248.82 920.571 L248.82 924.506 L234.746 924.506 L234.746 932.978 Q235.764 932.631 236.783 932.469 Q237.801 932.284 238.82 932.284 Q244.607 932.284 247.986 935.455 Q251.366 938.626 251.366 944.043 Q251.366 949.622 247.894 952.723 Q244.421 955.802 238.102 955.802 Q235.926 955.802 233.658 955.432 Q231.412 955.061 229.005 954.321 L229.005 949.622 Q231.088 950.756 233.31 951.311 Q235.533 951.867 238.009 951.867 Q242.014 951.867 244.352 949.76 Q246.69 947.654 246.69 944.043 Q246.69 940.432 244.352 938.325 Q242.014 936.219 238.009 936.219 Q236.135 936.219 234.26 936.635 Q232.408 937.052 230.463 937.932 L230.463 920.571 Z" fill="#000000" fill-rule="evenodd" fill-opacity="1" /><path clip-path="url(#clip870)" d="M 0 0 M164.028 759.125 Q160.417 759.125 158.589 762.689 Q156.783 766.231 156.783 773.361 Q156.783 780.467 158.589 784.032 Q160.417 787.574 164.028 787.574 Q167.663 787.574 169.468 784.032 Q171.297 780.467 171.297 773.361 Q171.297 766.231 169.468 762.689 Q167.663 759.125 164.028 759.125 M164.028 755.421 Q169.839 755.421 172.894 760.027 Q175.973 764.611 175.973 773.361 Q175.973 782.088 172.894 786.694 Q169.839 791.277 164.028 791.277 Q158.218 791.277 155.14 786.694 Q152.084 782.088 152.084 773.361 Q152.084 764.611 155.14 760.027 Q158.218 755.421 164.028 755.421 Z" fill="#000000" fill-rule="evenodd" fill-opacity="1" /><path clip-path="url(#clip870)" d="M 0 0 M184.19 784.726 L189.075 784.726 L189.075 790.606 L184.19 790.606 L184.19 784.726 Z" fill="#000000" fill-rule="evenodd" fill-opacity="1" /><path clip-path="url(#clip870)" d="M 0 0 M209.26 759.125 Q205.649 759.125 203.82 762.689 Q202.014 766.231 202.014 773.361 Q202.014 780.467 203.82 784.032 Q205.649 787.574 209.26 787.574 Q212.894 787.574 214.699 784.032 Q216.528 780.467 216.528 773.361 Q216.528 766.231 214.699 762.689 Q212.894 759.125 209.26 759.125 M209.26 755.421 Q215.07 755.421 218.125 760.027 Q221.204 764.611 221.204 773.361 Q221.204 782.088 218.125 786.694 Q215.07 791.277 209.26 791.277 Q203.449 791.277 200.371 786.694 Q197.315 782.088 197.315 773.361 Q197.315 764.611 200.371 760.027 Q203.449 755.421 209.26 755.421 Z" fill="#000000" fill-rule="evenodd" fill-opacity="1" /><path clip-path="url(#clip870)" d="M 0 0 M239.422 759.125 Q235.81 759.125 233.982 762.689 Q232.176 766.231 232.176 773.361 Q232.176 780.467 233.982 784.032 Q235.81 787.574 239.422 787.574 Q243.056 787.574 244.861 784.032 Q246.69 780.467 246.69 773.361 Q246.69 766.231 244.861 762.689 Q243.056 759.125 239.422 759.125 M239.422 755.421 Q245.232 755.421 248.287 760.027 Q251.366 764.611 251.366 773.361 Q251.366 782.088 248.287 786.694 Q245.232 791.277 239.422 791.277 Q233.611 791.277 230.533 786.694 Q227.477 782.088 227.477 773.361 Q227.477 764.611 230.533 760.027 Q233.611 755.421 239.422 755.421 Z" fill="#000000" fill-rule="evenodd" fill-opacity="1" /><path clip-path="url(#clip870)" d="M 0 0 M165.024 594.6 Q161.413 594.6 159.584 598.165 Q157.778 601.706 157.778 608.836 Q157.778 615.942 159.584 619.507 Q161.413 623.049 165.024 623.049 Q168.658 623.049 170.464 619.507 Q172.292 615.942 172.292 608.836 Q172.292 601.706 170.464 598.165 Q168.658 594.6 165.024 594.6 M165.024 590.896 Q170.834 590.896 173.889 595.503 Q176.968 600.086 176.968 608.836 Q176.968 617.563 173.889 622.169 Q170.834 626.752 165.024 626.752 Q159.214 626.752 156.135 622.169 Q153.079 617.563 153.079 608.836 Q153.079 600.086 156.135 595.503 Q159.214 590.896 165.024 590.896 Z" fill="#000000" fill-rule="evenodd" fill-opacity="1" /><path clip-path="url(#clip870)" d="M 0 0 M185.186 620.202 L190.07 620.202 L190.07 626.081 L185.186 626.081 L185.186 620.202 Z" fill="#000000" fill-rule="evenodd" fill-opacity="1" /><path clip-path="url(#clip870)" d="M 0 0 M204.283 622.146 L220.602 622.146 L220.602 626.081 L198.658 626.081 L198.658 622.146 Q201.32 619.391 205.903 614.762 Q210.51 610.109 211.69 608.766 Q213.936 606.243 214.815 604.507 Q215.718 602.748 215.718 601.058 Q215.718 598.304 213.774 596.567 Q211.852 594.831 208.75 594.831 Q206.551 594.831 204.098 595.595 Q201.667 596.359 198.889 597.91 L198.889 593.188 Q201.713 592.054 204.167 591.475 Q206.621 590.896 208.658 590.896 Q214.028 590.896 217.223 593.581 Q220.417 596.267 220.417 600.757 Q220.417 602.887 219.607 604.808 Q218.82 606.706 216.713 609.299 Q216.135 609.97 213.033 613.188 Q209.931 616.382 204.283 622.146 Z" fill="#000000" fill-rule="evenodd" fill-opacity="1" /><path clip-path="url(#clip870)" d="M 0 0 M230.463 591.521 L248.82 591.521 L248.82 595.456 L234.746 595.456 L234.746 603.929 Q235.764 603.581 236.783 603.419 Q237.801 603.234 238.82 603.234 Q244.607 603.234 247.986 606.405 Q251.366 609.577 251.366 614.993 Q251.366 620.572 247.894 623.674 Q244.421 626.752 238.102 626.752 Q235.926 626.752 233.658 626.382 Q231.412 626.012 229.005 625.271 L229.005 620.572 Q231.088 621.706 233.31 622.262 Q235.533 622.817 238.009 622.817 Q242.014 622.817 244.352 620.711 Q246.69 618.604 246.69 614.993 Q246.69 611.382 244.352 609.276 Q242.014 607.169 238.009 607.169 Q236.135 607.169 234.26 607.586 Q232.408 608.003 230.463 608.882 L230.463 591.521 Z" fill="#000000" fill-rule="evenodd" fill-opacity="1" /><path clip-path="url(#clip870)" d="M 0 0 M164.028 430.075 Q160.417 430.075 158.589 433.64 Q156.783 437.182 156.783 444.311 Q156.783 451.418 158.589 454.982 Q160.417 458.524 164.028 458.524 Q167.663 458.524 169.468 454.982 Q171.297 451.418 171.297 444.311 Q171.297 437.182 169.468 433.64 Q167.663 430.075 164.028 430.075 M164.028 426.371 Q169.839 426.371 172.894 430.978 Q175.973 435.561 175.973 444.311 Q175.973 453.038 172.894 457.644 Q169.839 462.228 164.028 462.228 Q158.218 462.228 155.14 457.644 Q152.084 453.038 152.084 444.311 Q152.084 435.561 155.14 430.978 Q158.218 426.371 164.028 426.371 Z" fill="#000000" fill-rule="evenodd" fill-opacity="1" /><path clip-path="url(#clip870)" d="M 0 0 M184.19 455.677 L189.075 455.677 L189.075 461.556 L184.19 461.556 L184.19 455.677 Z" fill="#000000" fill-rule="evenodd" fill-opacity="1" /><path clip-path="url(#clip870)" d="M 0 0 M199.306 426.996 L217.662 426.996 L217.662 430.932 L203.588 430.932 L203.588 439.404 Q204.607 439.057 205.625 438.895 Q206.644 438.709 207.662 438.709 Q213.449 438.709 216.829 441.881 Q220.209 445.052 220.209 450.469 Q220.209 456.047 216.736 459.149 Q213.264 462.228 206.945 462.228 Q204.769 462.228 202.5 461.857 Q200.255 461.487 197.848 460.746 L197.848 456.047 Q199.931 457.181 202.153 457.737 Q204.375 458.293 206.852 458.293 Q210.857 458.293 213.195 456.186 Q215.533 454.08 215.533 450.469 Q215.533 446.857 213.195 444.751 Q210.857 442.644 206.852 442.644 Q204.977 442.644 203.102 443.061 Q201.25 443.478 199.306 444.357 L199.306 426.996 Z" fill="#000000" fill-rule="evenodd" fill-opacity="1" /><path clip-path="url(#clip870)" d="M 0 0 M239.422 430.075 Q235.81 430.075 233.982 433.64 Q232.176 437.182 232.176 444.311 Q232.176 451.418 233.982 454.982 Q235.81 458.524 239.422 458.524 Q243.056 458.524 244.861 454.982 Q246.69 451.418 246.69 444.311 Q246.69 437.182 244.861 433.64 Q243.056 430.075 239.422 430.075 M239.422 426.371 Q245.232 426.371 248.287 430.978 Q251.366 435.561 251.366 444.311 Q251.366 453.038 248.287 457.644 Q245.232 462.228 239.422 462.228 Q233.611 462.228 230.533 457.644 Q227.477 453.038 227.477 444.311 Q227.477 435.561 230.533 430.978 Q233.611 426.371 239.422 426.371 Z" fill="#000000" fill-rule="evenodd" fill-opacity="1" /><path clip-path="url(#clip870)" d="M 0 0 M165.024 265.55 Q161.413 265.55 159.584 269.115 Q157.778 272.657 157.778 279.786 Q157.778 286.893 159.584 290.458 Q161.413 293.999 165.024 293.999 Q168.658 293.999 170.464 290.458 Q172.292 286.893 172.292 279.786 Q172.292 272.657 170.464 269.115 Q168.658 265.55 165.024 265.55 M165.024 261.847 Q170.834 261.847 173.889 266.453 Q176.968 271.036 176.968 279.786 Q176.968 288.513 173.889 293.12 Q170.834 297.703 165.024 297.703 Q159.214 297.703 156.135 293.12 Q153.079 288.513 153.079 279.786 Q153.079 271.036 156.135 266.453 Q159.214 261.847 165.024 261.847 Z" fill="#000000" fill-rule="evenodd" fill-opacity="1" /><path clip-path="url(#clip870)" d="M 0 0 M185.186 291.152 L190.07 291.152 L190.07 297.032 L185.186 297.032 L185.186 291.152 Z" fill="#000000" fill-rule="evenodd" fill-opacity="1" /><path clip-path="url(#clip870)" d="M 0 0 M199.075 262.472 L221.297 262.472 L221.297 264.462 L208.75 297.032 L203.866 297.032 L215.672 266.407 L199.075 266.407 L199.075 262.472 Z" fill="#000000" fill-rule="evenodd" fill-opacity="1" /><path clip-path="url(#clip870)" d="M 0 0 M230.463 262.472 L248.82 262.472 L248.82 266.407 L234.746 266.407 L234.746 274.879 Q235.764 274.532 236.783 274.37 Q237.801 274.185 238.82 274.185 Q244.607 274.185 247.986 277.356 Q251.366 280.527 251.366 285.944 Q251.366 291.522 247.894 294.624 Q244.421 297.703 238.102 297.703 Q235.926 297.703 233.658 297.333 Q231.412 296.962 229.005 296.221 L229.005 291.522 Q231.088 292.657 233.31 293.212 Q235.533 293.768 238.009 293.768 Q242.014 293.768 244.352 291.661 Q246.69 289.555 246.69 285.944 Q246.69 282.333 244.352 280.226 Q242.014 278.12 238.009 278.12 Q236.135 278.12 234.26 278.536 Q232.408 278.953 230.463 279.833 L230.463 262.472 Z" fill="#000000" fill-rule="evenodd" fill-opacity="1" /><path clip-path="url(#clip870)" d="M 0 0 M18.0438 869.257 L24.314 869.257 Q22.5634 872.917 21.704 876.164 Q20.8447 879.41 20.8447 882.434 Q20.8447 887.686 22.8817 890.55 Q24.9187 893.383 28.6745 893.383 Q31.8255 893.383 33.4488 891.505 Q35.0402 889.596 36.0269 884.312 L36.8226 880.429 Q38.1912 873.236 41.6605 869.83 Q45.098 866.393 50.8908 866.393 Q57.7976 866.393 61.3624 871.04 Q64.9272 875.655 64.9272 884.599 Q64.9272 887.972 64.1633 891.792 Q63.3994 895.579 61.9035 899.653 L55.2831 899.653 Q57.4793 895.739 58.5933 891.983 Q59.7073 888.227 59.7073 884.599 Q59.7073 879.092 57.543 876.1 Q55.3786 873.108 51.3682 873.108 Q47.8671 873.108 45.8937 875.273 Q43.9204 877.405 42.9337 882.307 L42.1698 886.222 Q40.7375 893.415 37.682 896.63 Q34.6264 899.844 29.1837 899.844 Q22.8817 899.844 19.2532 895.42 Q15.6248 890.964 15.6248 883.166 Q15.6248 879.824 16.2295 876.355 Q16.8343 872.886 18.0438 869.257 Z" fill="#000000" fill-rule="evenodd" fill-opacity="1" /><path clip-path="url(#clip870)" d="M 0 0 M43.5384 859.581 L43.5384 842.426 L48.7583 842.426 L48.7583 859.581 L43.5384 859.581 Z" fill="#000000" fill-rule="evenodd" fill-opacity="1" /><path clip-path="url(#clip870)" d="M 0 0 M14.5426 819.032 Q21.8632 823.297 29.0246 825.366 Q36.186 827.434 43.5384 827.434 Q50.8908 827.434 58.1159 825.366 Q65.3091 823.265 72.5979 819.032 L72.5979 824.124 Q65.1182 828.899 57.8931 831.286 Q50.668 833.641 43.5384 833.641 Q36.4406 833.641 29.2474 831.286 Q22.0542 828.93 14.5426 824.124 L14.5426 819.032 Z" fill="#000000" fill-rule="evenodd" fill-opacity="1" /><path clip-path="url(#clip870)" d="M 0 0 M16.4842 807.414 L16.4842 800.985 L58.5933 800.985 L58.5933 777.846 L64.0042 777.846 L64.0042 807.414 L16.4842 807.414 Z" fill="#000000" fill-rule="evenodd" fill-opacity="1" /><path clip-path="url(#clip870)" d="M 0 0 M23.1363 747.513 L40.8648 747.513 L40.8648 729.785 L46.2757 729.785 L46.2757 747.513 L64.0042 747.513 L64.0042 752.86 L46.2757 752.86 L46.2757 770.589 L40.8648 770.589 L40.8648 752.86 L23.1363 752.86 L23.1363 747.513 Z" fill="#000000" fill-rule="evenodd" fill-opacity="1" /><path clip-path="url(#clip870)" d="M 0 0 M16.4842 716.48 L16.4842 706.9 L48.8219 694.773 L16.4842 682.583 L16.4842 673.002 L64.0042 673.002 L64.0042 679.273 L22.277 679.273 L54.8694 691.527 L54.8694 697.988 L22.277 710.242 L64.0042 710.242 L64.0042 716.48 L16.4842 716.48 Z" fill="#000000" fill-rule="evenodd" fill-opacity="1" /><path clip-path="url(#clip870)" d="M 0 0 M14.5426 661.417 L14.5426 656.324 Q22.0542 651.55 29.2474 649.195 Q36.4406 646.808 43.5384 646.808 Q50.668 646.808 57.8931 649.195 Q65.1182 651.55 72.5979 656.324 L72.5979 661.417 Q65.3091 657.184 58.1159 655.115 Q50.8908 653.014 43.5384 653.014 Q36.186 653.014 29.0246 655.115 Q21.8632 657.184 14.5426 661.417 Z" fill="#000000" fill-rule="evenodd" fill-opacity="1" /><path clip-path="url(#clip870)" d="M 0 0 M1026.05 18.8205 L1026.05 65.8515 L1035.93 65.8515 Q1048.45 65.8515 1054.24 60.1802 Q1060.07 54.509 1060.07 42.2752 Q1060.07 30.1225 1054.24 24.4918 Q1048.45 18.8205 1035.93 18.8205 L1026.05 18.8205 M1017.86 12.096 L1034.67 12.096 Q1052.26 12.096 1060.48 19.4281 Q1068.7 26.7198 1068.7 42.2752 Q1068.7 57.9117 1060.44 65.2439 Q1052.17 72.576 1034.67 72.576 L1017.86 72.576 L1017.86 12.096 Z" fill="#000000" fill-rule="evenodd" fill-opacity="1" /><path clip-path="url(#clip870)" d="M 0 0 M1081.75 12.096 L1089.93 12.096 L1089.93 37.6572 L1117.07 12.096 L1127.6 12.096 L1097.59 40.2903 L1129.75 72.576 L1118.97 72.576 L1089.93 43.45 L1089.93 72.576 L1081.75 72.576 L1081.75 12.096 Z" fill="#000000" fill-rule="evenodd" fill-opacity="1" /><path clip-path="url(#clip870)" d="M 0 0 M1136.15 12.096 L1144.33 12.096 L1144.33 65.6895 L1173.78 65.6895 L1173.78 72.576 L1136.15 72.576 L1136.15 12.096 Z" fill="#000000" fill-rule="evenodd" fill-opacity="1" /><path clip-path="url(#clip870)" d="M 0 0 M1216.52 86.3491 L1216.52 92.1419 L1173.42 92.1419 L1173.42 86.3491 L1216.52 86.3491 Z" fill="#000000" fill-rule="evenodd" fill-opacity="1" /><path clip-path="url(#clip870)" d="M 0 0 M1231.63 65.6895 L1260.19 65.6895 L1260.19 72.576 L1221.79 72.576 L1221.79 65.6895 Q1226.44 60.8689 1234.47 52.7671 Q1242.53 44.6248 1244.59 42.2752 Q1248.52 37.8598 1250.06 34.8216 Q1251.64 31.7429 1251.64 28.7857 Q1251.64 23.9651 1248.24 20.927 Q1244.88 17.8888 1239.45 17.8888 Q1235.6 17.8888 1231.31 19.2256 Q1227.05 20.5624 1222.19 23.2765 L1222.19 15.0127 Q1227.13 13.0277 1231.43 12.015 Q1235.72 11.0023 1239.29 11.0023 Q1248.68 11.0023 1254.27 15.7013 Q1259.86 20.4004 1259.86 28.2591 Q1259.86 31.9859 1258.45 35.3482 Q1257.07 38.6699 1253.38 43.2069 Q1252.37 44.3817 1246.94 50.0125 Q1241.51 55.6027 1231.63 65.6895 Z" fill="#000000" fill-rule="evenodd" fill-opacity="1" /><path clip-path="url(#clip870)" d="M 0 0 M1295.88 39.075 Q1290.37 39.075 1287.13 42.8424 Q1283.93 46.6097 1283.93 53.1722 Q1283.93 59.6941 1287.13 63.502 Q1290.37 67.2693 1295.88 67.2693 Q1301.39 67.2693 1304.59 63.502 Q1307.83 59.6941 1307.83 53.1722 Q1307.83 46.6097 1304.59 42.8424 Q1301.39 39.075 1295.88 39.075 M1312.12 13.4328 L1312.12 20.8865 Q1309.04 19.4281 1305.88 18.6585 Q1302.76 17.8888 1299.68 17.8888 Q1291.58 17.8888 1287.29 23.3575 Q1283.04 28.8262 1282.43 39.8852 Q1284.82 36.3609 1288.42 34.4975 Q1292.03 32.5936 1296.36 32.5936 Q1305.48 32.5936 1310.74 38.1433 Q1316.05 43.6525 1316.05 53.1722 Q1316.05 62.4892 1310.54 68.12 Q1305.03 73.7508 1295.88 73.7508 Q1285.39 73.7508 1279.84 65.73 Q1274.29 57.6687 1274.29 42.3968 Q1274.29 28.0566 1281.09 19.5497 Q1287.9 11.0023 1299.36 11.0023 Q1302.44 11.0023 1305.56 11.6099 Q1308.72 12.2175 1312.12 13.4328 Z" fill="#000000" fill-rule="evenodd" fill-opacity="1" /><path clip-path="url(#clip870)" d="M 0 0 M1329.42 12.096 L1337.6 12.096 L1337.6 36.8875 L1367.33 36.8875 L1367.33 12.096 L1375.52 12.096 L1375.52 72.576 L1367.33 72.576 L1367.33 43.7741 L1337.6 43.7741 L1337.6 72.576 L1329.42 72.576 L1329.42 12.096 Z" fill="#000000" fill-rule="evenodd" fill-opacity="1" /><path clip-path="url(#clip870)" d="M 0 0 M1390.71 54.671 L1390.71 27.2059 L1398.16 27.2059 L1398.16 54.3874 Q1398.16 60.8284 1400.67 64.0691 Q1403.19 67.2693 1408.21 67.2693 Q1414.24 67.2693 1417.73 63.421 Q1421.25 59.5726 1421.25 52.9291 L1421.25 27.2059 L1428.71 27.2059 L1428.71 72.576 L1421.25 72.576 L1421.25 65.6084 Q1418.54 69.7404 1414.93 71.7658 Q1411.37 73.7508 1406.63 73.7508 Q1398.81 73.7508 1394.76 68.8897 Q1390.71 64.0286 1390.71 54.671 M1409.46 26.1121 L1409.46 26.1121 Z" fill="#000000" fill-rule="evenodd" fill-opacity="1" /><path clip-path="url(#clip870)" d="M 0 0 M1482.87 48.0275 L1482.87 51.6733 L1448.6 51.6733 Q1449.08 59.3701 1453.21 63.421 Q1457.39 67.4314 1464.8 67.4314 Q1469.09 67.4314 1473.1 66.3781 Q1477.15 65.3249 1481.12 63.2184 L1481.12 70.267 Q1477.11 71.9684 1472.9 72.8596 Q1468.69 73.7508 1464.35 73.7508 Q1453.5 73.7508 1447.14 67.4314 Q1440.82 61.1119 1440.82 50.3365 Q1440.82 39.1965 1446.81 32.6746 Q1452.85 26.1121 1463.06 26.1121 Q1472.21 26.1121 1477.52 32.0264 Q1482.87 37.9003 1482.87 48.0275 M1475.41 45.84 Q1475.33 39.7232 1471.97 36.0774 Q1468.65 32.4315 1463.14 32.4315 Q1456.9 32.4315 1453.13 35.9558 Q1449.41 39.4801 1448.84 45.8805 L1475.41 45.84 Z" fill="#000000" fill-rule="evenodd" fill-opacity="1" /><path clip-path="url(#clip870)" d="M 0 0 M1529.57 86.3491 L1529.57 92.1419 L1486.47 92.1419 L1486.47 86.3491 L1529.57 86.3491 Z" fill="#000000" fill-rule="evenodd" fill-opacity="1" /><path clip-path="url(#clip870)" d="M 0 0 M1536.91 12.096 L1545.09 12.096 L1545.09 65.6895 L1574.54 65.6895 L1574.54 72.576 L1536.91 72.576 L1536.91 12.096 Z" fill="#000000" fill-rule="evenodd" fill-opacity="1" /><path clip-path="url(#clip870)" d="M 0 0 M1601.36 17.4837 Q1595.04 17.4837 1591.84 23.7221 Q1588.68 29.92 1588.68 42.3968 Q1588.68 54.833 1591.84 61.0714 Q1595.04 67.2693 1601.36 67.2693 Q1607.72 67.2693 1610.88 61.0714 Q1614.08 54.833 1614.08 42.3968 Q1614.08 29.92 1610.88 23.7221 Q1607.72 17.4837 1601.36 17.4837 M1601.36 11.0023 Q1611.52 11.0023 1616.87 19.0636 Q1622.26 27.0843 1622.26 42.3968 Q1622.26 57.6687 1616.87 65.73 Q1611.52 73.7508 1601.36 73.7508 Q1591.19 73.7508 1585.8 65.73 Q1580.45 57.6687 1580.45 42.3968 Q1580.45 27.0843 1585.8 19.0636 Q1591.19 11.0023 1601.36 11.0023 Z" fill="#000000" fill-rule="evenodd" fill-opacity="1" /><polyline clip-path="url(#clip872)" style="stroke:#7f7f7f; stroke-width:4; stroke-opacity:0.5; fill:none" points="
  1320.06,773.326 1417.29,773.326 
  "/>
<polyline clip-path="url(#clip872)" style="stroke:#7f7f7f; stroke-width:4; stroke-opacity:0.5; fill:none" points="
  1320.06,773.326 1414.96,718.535 
  "/>
<polyline clip-path="url(#clip872)" style="stroke:#7f7f7f; stroke-width:4; stroke-opacity:0.5; fill:none" points="
  1320.06,773.326 1410.62,616.481 
  "/>
<polyline clip-path="url(#clip872)" style="stroke:#7f7f7f; stroke-width:4; stroke-opacity:0.5; fill:none" points="
  1320.06,773.326 1403.96,460.204 
  "/>
<polyline clip-path="url(#clip872)" style="stroke:#7f7f7f; stroke-width:4; stroke-opacity:0.5; fill:none" points="
  1320.06,773.326 1398.38,329.147 
  "/>
<polyline clip-path="url(#clip872)" style="stroke:#7f7f7f; stroke-width:4; stroke-opacity:0.5; fill:none" points="
  1320.06,773.326 1392.26,185.327 
  "/>
<polyline clip-path="url(#clip872)" style="stroke:#7f7f7f; stroke-width:4; stroke-opacity:0.5; fill:none" points="
  1320.06,773.326 1320.06,168.409 
  "/>
<polyline clip-path="url(#clip872)" style="stroke:#7f7f7f; stroke-width:4; stroke-opacity:0.5; fill:none" points="
  1320.06,773.326 1266.82,164.766 
  "/>
<polyline clip-path="url(#clip872)" style="stroke:#7f7f7f; stroke-width:4; stroke-opacity:0.5; fill:none" points="
  1320.06,773.326 1200.89,160.256 
  "/>
<polyline clip-path="url(#clip872)" style="stroke:#7f7f7f; stroke-width:4; stroke-opacity:0.5; fill:none" points="
  1320.06,773.326 1204.46,341.893 
  "/>
<polyline clip-path="url(#clip872)" style="stroke:#7f7f7f; stroke-width:4; stroke-opacity:0.5; fill:none" points="
  1320.06,773.326 1209.95,470.79 
  "/>
<polyline clip-path="url(#clip872)" style="stroke:#7f7f7f; stroke-width:4; stroke-opacity:0.5; fill:none" points="
  1320.06,773.326 1215.09,591.505 
  "/>
<polyline clip-path="url(#clip872)" style="stroke:#7f7f7f; stroke-width:4; stroke-opacity:0.5; fill:none" points="
  1320.06,773.326 1220.38,715.774 
  "/>
<polyline clip-path="url(#clip872)" style="stroke:#7f7f7f; stroke-width:4; stroke-opacity:0.5; fill:none" points="
  1320.06,773.326 1222.83,773.326 
  "/>
<polyline clip-path="url(#clip872)" style="stroke:#7f7f7f; stroke-width:4; stroke-opacity:0.5; fill:none" points="
  1320.06,773.326 1225.16,828.116 
  "/>
<polyline clip-path="url(#clip872)" style="stroke:#7f7f7f; stroke-width:4; stroke-opacity:0.5; fill:none" points="
  1320.06,773.326 1229.51,930.171 
  "/>
<polyline clip-path="url(#clip872)" style="stroke:#7f7f7f; stroke-width:4; stroke-opacity:0.5; fill:none" points="
  1320.06,773.326 1236.16,1086.45 
  "/>
<polyline clip-path="url(#clip872)" style="stroke:#7f7f7f; stroke-width:4; stroke-opacity:0.5; fill:none" points="
  1320.06,773.326 1241.74,1217.5 
  "/>
<polyline clip-path="url(#clip872)" style="stroke:#7f7f7f; stroke-width:4; stroke-opacity:0.5; fill:none" points="
  1320.06,773.326 1247.86,1361.33 
  "/>
<polyline clip-path="url(#clip872)" style="stroke:#7f7f7f; stroke-width:4; stroke-opacity:0.5; fill:none" points="
  1320.06,773.326 1320.06,1378.24 
  "/>
<polyline clip-path="url(#clip872)" style="stroke:#7f7f7f; stroke-width:4; stroke-opacity:0.5; fill:none" points="
  1320.06,773.326 1373.3,1381.89 
  "/>
<polyline clip-path="url(#clip872)" style="stroke:#7f7f7f; stroke-width:4; stroke-opacity:0.5; fill:none" points="
  1320.06,773.326 1439.23,1386.4 
  "/>
<polyline clip-path="url(#clip872)" style="stroke:#7f7f7f; stroke-width:4; stroke-opacity:0.5; fill:none" points="
  1320.06,773.326 1435.66,1204.76 
  "/>
<polyline clip-path="url(#clip872)" style="stroke:#7f7f7f; stroke-width:4; stroke-opacity:0.5; fill:none" points="
  1320.06,773.326 1430.17,1075.86 
  "/>
<polyline clip-path="url(#clip872)" style="stroke:#7f7f7f; stroke-width:4; stroke-opacity:0.5; fill:none" points="
  1320.06,773.326 1425.04,955.147 
  "/>
<polyline clip-path="url(#clip872)" style="stroke:#7f7f7f; stroke-width:4; stroke-opacity:0.5; fill:none" points="
  1320.06,773.326 1419.74,830.878 
  "/>
<polyline clip-path="url(#clip872)" style="stroke:#ff5a80; stroke-width:6; stroke-opacity:1; fill:none" points="
  1417.29,773.326 1414.96,718.535 
  "/>
<polyline clip-path="url(#clip872)" style="stroke:#ff588c; stroke-width:6; stroke-opacity:1; fill:none" points="
  1414.96,718.535 1410.62,616.481 
  "/>
<polyline clip-path="url(#clip872)" style="stroke:#ff55a1; stroke-width:6; stroke-opacity:1; fill:none" points="
  1410.62,616.481 1403.96,460.204 
  "/>
<polyline clip-path="url(#clip872)" style="stroke:#ff4fc2; stroke-width:6; stroke-opacity:1; fill:none" points="
  1403.96,460.204 1398.38,329.147 
  "/>
<polyline clip-path="url(#clip872)" style="stroke:#ff4bde; stroke-width:6; stroke-opacity:1; fill:none" points="
  1398.38,329.147 1392.26,185.327 
  "/>
<polyline clip-path="url(#clip872)" style="stroke:#ff46fc; stroke-width:6; stroke-opacity:1; fill:none" points="
  1392.26,185.327 1320.06,168.409 
  "/>
<polyline clip-path="url(#clip872)" style="stroke:#a161ff; stroke-width:6; stroke-opacity:1; fill:none" points="
  1320.06,168.409 1266.82,164.766 
  "/>
<polyline clip-path="url(#clip872)" style="stroke:#5b75ff; stroke-width:6; stroke-opacity:1; fill:none" points="
  1266.82,164.766 1200.89,160.256 
  "/>
<polyline clip-path="url(#clip872)" style="stroke:#058eff; stroke-width:6; stroke-opacity:1; fill:none" points="
  1200.89,160.256 1204.46,341.893 
  "/>
<polyline clip-path="url(#clip872)" style="stroke:#0096d8; stroke-width:6; stroke-opacity:1; fill:none" points="
  1204.46,341.893 1209.95,470.79 
  "/>
<polyline clip-path="url(#clip872)" style="stroke:#009abd; stroke-width:6; stroke-opacity:1; fill:none" points="
  1209.95,470.79 1215.09,591.505 
  "/>
<polyline clip-path="url(#clip872)" style="stroke:#009ea4; stroke-width:6; stroke-opacity:1; fill:none" points="
  1215.09,591.505 1220.38,715.774 
  "/>
<polyline clip-path="url(#clip872)" style="stroke:#00a28a; stroke-width:6; stroke-opacity:1; fill:none" points="
  1220.38,715.774 1222.83,773.326 
  "/>
<polyline clip-path="url(#clip872)" style="stroke:#00a47e; stroke-width:6; stroke-opacity:1; fill:none" points="
  1222.83,773.326 1225.16,828.116 
  "/>
<polyline clip-path="url(#clip872)" style="stroke:#00a672; stroke-width:6; stroke-opacity:1; fill:none" points="
  1225.16,828.116 1229.51,930.171 
  "/>
<polyline clip-path="url(#clip872)" style="stroke:#00a95d; stroke-width:6; stroke-opacity:1; fill:none" points="
  1229.51,930.171 1236.16,1086.45 
  "/>
<polyline clip-path="url(#clip872)" style="stroke:#00af3c; stroke-width:6; stroke-opacity:1; fill:none" points="
  1236.16,1086.45 1241.74,1217.5 
  "/>
<polyline clip-path="url(#clip872)" style="stroke:#00b320; stroke-width:6; stroke-opacity:1; fill:none" points="
  1241.74,1217.5 1247.86,1361.33 
  "/>
<polyline clip-path="url(#clip872)" style="stroke:#00b802; stroke-width:6; stroke-opacity:1; fill:none" points="
  1247.86,1361.33 1320.06,1378.24 
  "/>
<polyline clip-path="url(#clip872)" style="stroke:#5d9d00; stroke-width:6; stroke-opacity:1; fill:none" points="
  1320.06,1378.24 1373.3,1381.89 
  "/>
<polyline clip-path="url(#clip872)" style="stroke:#a38900; stroke-width:6; stroke-opacity:1; fill:none" points="
  1373.3,1381.89 1439.23,1386.4 
  "/>
<polyline clip-path="url(#clip872)" style="stroke:#f97000; stroke-width:6; stroke-opacity:1; fill:none" points="
  1439.23,1386.4 1435.66,1204.76 
  "/>
<polyline clip-path="url(#clip872)" style="stroke:#ff6826; stroke-width:6; stroke-opacity:1; fill:none" points="
  1435.66,1204.76 1430.17,1075.86 
  "/>
<polyline clip-path="url(#clip872)" style="stroke:#ff6441; stroke-width:6; stroke-opacity:1; fill:none" points="
  1430.17,1075.86 1425.04,955.147 
  "/>
<polyline clip-path="url(#clip872)" style="stroke:#ff605a; stroke-width:6; stroke-opacity:1; fill:none" points="
  1425.04,955.147 1419.74,830.878 
  "/>
<circle clip-path="url(#clip872)" cx="1417.29" cy="773.326" r="21" fill="#ff5a80" fill-rule="evenodd" fill-opacity="1" stroke="#000000" stroke-opacity="1" stroke-width="0"/>
<circle clip-path="url(#clip872)" cx="1414.96" cy="718.535" r="21" fill="#ff588c" fill-rule="evenodd" fill-opacity="1" stroke="#000000" stroke-opacity="1" stroke-width="0"/>
<circle clip-path="url(#clip872)" cx="1410.62" cy="616.481" r="21" fill="#ff55a1" fill-rule="evenodd" fill-opacity="1" stroke="#000000" stroke-opacity="1" stroke-width="0"/>
<circle clip-path="url(#clip872)" cx="1403.96" cy="460.204" r="21" fill="#ff4fc2" fill-rule="evenodd" fill-opacity="1" stroke="#000000" stroke-opacity="1" stroke-width="0"/>
<circle clip-path="url(#clip872)" cx="1398.38" cy="329.147" r="21" fill="#ff4bde" fill-rule="evenodd" fill-opacity="1" stroke="#000000" stroke-opacity="1" stroke-width="0"/>
<circle clip-path="url(#clip872)" cx="1392.26" cy="185.327" r="21" fill="#ff46fc" fill-rule="evenodd" fill-opacity="1" stroke="#000000" stroke-opacity="1" stroke-width="0"/>
<circle clip-path="url(#clip872)" cx="1320.06" cy="168.409" r="21" fill="#a161ff" fill-rule="evenodd" fill-opacity="1" stroke="#000000" stroke-opacity="1" stroke-width="0"/>
<circle clip-path="url(#clip872)" cx="1266.82" cy="164.766" r="21" fill="#5b75ff" fill-rule="evenodd" fill-opacity="1" stroke="#000000" stroke-opacity="1" stroke-width="0"/>
<circle clip-path="url(#clip872)" cx="1200.89" cy="160.256" r="21" fill="#058eff" fill-rule="evenodd" fill-opacity="1" stroke="#000000" stroke-opacity="1" stroke-width="0"/>
<circle clip-path="url(#clip872)" cx="1204.46" cy="341.893" r="21" fill="#0096d8" fill-rule="evenodd" fill-opacity="1" stroke="#000000" stroke-opacity="1" stroke-width="0"/>
<circle clip-path="url(#clip872)" cx="1209.95" cy="470.79" r="21" fill="#009abd" fill-rule="evenodd" fill-opacity="1" stroke="#000000" stroke-opacity="1" stroke-width="0"/>
<circle clip-path="url(#clip872)" cx="1215.09" cy="591.505" r="21" fill="#009ea4" fill-rule="evenodd" fill-opacity="1" stroke="#000000" stroke-opacity="1" stroke-width="0"/>
<circle clip-path="url(#clip872)" cx="1220.38" cy="715.774" r="21" fill="#00a28a" fill-rule="evenodd" fill-opacity="1" stroke="#000000" stroke-opacity="1" stroke-width="0"/>
<circle clip-path="url(#clip872)" cx="1222.83" cy="773.326" r="21" fill="#00a47e" fill-rule="evenodd" fill-opacity="1" stroke="#000000" stroke-opacity="1" stroke-width="0"/>
<circle clip-path="url(#clip872)" cx="1225.16" cy="828.116" r="21" fill="#00a672" fill-rule="evenodd" fill-opacity="1" stroke="#000000" stroke-opacity="1" stroke-width="0"/>
<circle clip-path="url(#clip872)" cx="1229.51" cy="930.171" r="21" fill="#00a95d" fill-rule="evenodd" fill-opacity="1" stroke="#000000" stroke-opacity="1" stroke-width="0"/>
<circle clip-path="url(#clip872)" cx="1236.16" cy="1086.45" r="21" fill="#00af3c" fill-rule="evenodd" fill-opacity="1" stroke="#000000" stroke-opacity="1" stroke-width="0"/>
<circle clip-path="url(#clip872)" cx="1241.74" cy="1217.5" r="21" fill="#00b320" fill-rule="evenodd" fill-opacity="1" stroke="#000000" stroke-opacity="1" stroke-width="0"/>
<circle clip-path="url(#clip872)" cx="1247.86" cy="1361.33" r="21" fill="#00b802" fill-rule="evenodd" fill-opacity="1" stroke="#000000" stroke-opacity="1" stroke-width="0"/>
<circle clip-path="url(#clip872)" cx="1320.06" cy="1378.24" r="21" fill="#5d9d00" fill-rule="evenodd" fill-opacity="1" stroke="#000000" stroke-opacity="1" stroke-width="0"/>
<circle clip-path="url(#clip872)" cx="1373.3" cy="1381.89" r="21" fill="#a38900" fill-rule="evenodd" fill-opacity="1" stroke="#000000" stroke-opacity="1" stroke-width="0"/>
<circle clip-path="url(#clip872)" cx="1439.23" cy="1386.4" r="21" fill="#f97000" fill-rule="evenodd" fill-opacity="1" stroke="#000000" stroke-opacity="1" stroke-width="0"/>
<circle clip-path="url(#clip872)" cx="1435.66" cy="1204.76" r="21" fill="#ff6826" fill-rule="evenodd" fill-opacity="1" stroke="#000000" stroke-opacity="1" stroke-width="0"/>
<circle clip-path="url(#clip872)" cx="1430.17" cy="1075.86" r="21" fill="#ff6441" fill-rule="evenodd" fill-opacity="1" stroke="#000000" stroke-opacity="1" stroke-width="0"/>
<circle clip-path="url(#clip872)" cx="1425.04" cy="955.147" r="21" fill="#ff605a" fill-rule="evenodd" fill-opacity="1" stroke="#000000" stroke-opacity="1" stroke-width="0"/>
<circle clip-path="url(#clip872)" cx="1419.74" cy="830.878" r="21" fill="#ff5c74" fill-rule="evenodd" fill-opacity="1" stroke="#000000" stroke-opacity="1" stroke-width="0"/>
</svg>
