<?xml version="1.0" encoding="utf-8"?>
<svg xmlns="http://www.w3.org/2000/svg" xmlns:xlink="http://www.w3.org/1999/xlink" width="400" height="400" viewBox="0 0 1600 1600">
<defs>
  <clipPath id="clip210">
    <rect x="0" y="0" width="1600" height="1600"/>
  </clipPath>
</defs>
<path clip-path="url(#clip210)" d="M0 1600 L1600 1600 L1600 0 L0 0  Z" fill="#ffffff" fill-rule="evenodd" fill-opacity="1"/>
<defs>
  <clipPath id="clip211">
    <rect x="320" y="160" width="1121" height="1121"/>
  </clipPath>
</defs>
<path clip-path="url(#clip210)" d="M303.126 1382.14 L1552.76 1382.14 L1552.76 153.712 L303.126 153.712  Z" fill="#ffffff" fill-rule="evenodd" fill-opacity="1"/>
<defs>
  <clipPath id="clip212">
    <rect x="303" y="153" width="1251" height="1229"/>
  </clipPath>
</defs>
<polyline clip-path="url(#clip212)" style="stroke:#000000; stroke-linecap:round; stroke-linejoin:round; stroke-width:2; stroke-opacity:0.1; fill:none" points="305.7,1382.14 305.7,153.712 "/>
<polyline clip-path="url(#clip212)" style="stroke:#000000; stroke-linecap:round; stroke-linejoin:round; stroke-width:2; stroke-opacity:0.1; fill:none" points="616.821,1382.14 616.821,153.712 "/>
<polyline clip-path="url(#clip212)" style="stroke:#000000; stroke-linecap:round; stroke-linejoin:round; stroke-width:2; stroke-opacity:0.1; fill:none" points="927.941,1382.14 927.941,153.712 "/>
<polyline clip-path="url(#clip212)" style="stroke:#000000; stroke-linecap:round; stroke-linejoin:round; stroke-width:2; stroke-opacity:0.1; fill:none" points="1239.06,1382.14 1239.06,153.712 "/>
<polyline clip-path="url(#clip212)" style="stroke:#000000; stroke-linecap:round; stroke-linejoin:round; stroke-width:2; stroke-opacity:0.1; fill:none" points="1550.18,1382.14 1550.18,153.712 "/>
<polyline clip-path="url(#clip210)" style="stroke:#000000; stroke-linecap:round; stroke-linejoin:round; stroke-width:4; stroke-opacity:1; fill:none" points="303.126,1382.14 1552.76,1382.14 "/>
<polyline clip-path="url(#clip210)" style="stroke:#000000; stroke-linecap:round; stroke-linejoin:round; stroke-width:4; stroke-opacity:1; fill:none" points="305.7,1382.14 305.7,1401.04 "/>
<polyline clip-path="url(#clip210)" style="stroke:#000000; stroke-linecap:round; stroke-linejoin:round; stroke-width:4; stroke-opacity:1; fill:none" points="616.821,1382.14 616.821,1401.04 "/>
<polyline clip-path="url(#clip210)" style="stroke:#000000; stroke-linecap:round; stroke-linejoin:round; stroke-width:4; stroke-opacity:1; fill:none" points="927.941,1382.14 927.941,1401.04 "/>
<polyline clip-path="url(#clip210)" style="stroke:#000000; stroke-linecap:round; stroke-linejoin:round; stroke-width:4; stroke-opacity:1; fill:none" points="1239.06,1382.14 1239.06,1401.04 "/>
<polyline clip-path="url(#clip210)" style="stroke:#000000; stroke-linecap:round; stroke-linejoin:round; stroke-width:4; stroke-opacity:1; fill:none" points="1550.18,1382.14 1550.18,1401.04 "/>
<path clip-path="url(#clip210)" d="M252.228 1427.71 L281.904 1427.71 L281.904 1431.65 L252.228 1431.65 L252.228 1427.71 Z" fill="#000000" fill-rule="nonzero" fill-opacity="1" /><path clip-path="url(#clip210)" d="M292.807 1440.6 L300.446 1440.6 L300.446 1414.24 L292.135 1415.91 L292.135 1411.65 L300.399 1409.98 L305.075 1409.98 L305.075 1440.6 L312.714 1440.6 L312.714 1444.54 L292.807 1444.54 L292.807 1440.6 Z" fill="#000000" fill-rule="nonzero" fill-opacity="1" /><path clip-path="url(#clip210)" d="M322.158 1438.66 L327.043 1438.66 L327.043 1444.54 L322.158 1444.54 L322.158 1438.66 Z" fill="#000000" fill-rule="nonzero" fill-opacity="1" /><path clip-path="url(#clip210)" d="M347.228 1413.06 Q343.617 1413.06 341.788 1416.62 Q339.982 1420.16 339.982 1427.29 Q339.982 1434.4 341.788 1437.97 Q343.617 1441.51 347.228 1441.51 Q350.862 1441.51 352.668 1437.97 Q354.496 1434.4 354.496 1427.29 Q354.496 1420.16 352.668 1416.62 Q350.862 1413.06 347.228 1413.06 M347.228 1409.35 Q353.038 1409.35 356.093 1413.96 Q359.172 1418.54 359.172 1427.29 Q359.172 1436.02 356.093 1440.63 Q353.038 1445.21 347.228 1445.21 Q341.418 1445.21 338.339 1440.63 Q335.283 1436.02 335.283 1427.29 Q335.283 1418.54 338.339 1413.96 Q341.418 1409.35 347.228 1409.35 Z" fill="#000000" fill-rule="nonzero" fill-opacity="1" /><path clip-path="url(#clip210)" d="M563.846 1427.71 L593.522 1427.71 L593.522 1431.65 L563.846 1431.65 L563.846 1427.71 Z" fill="#000000" fill-rule="nonzero" fill-opacity="1" /><path clip-path="url(#clip210)" d="M613.615 1413.06 Q610.003 1413.06 608.175 1416.62 Q606.369 1420.16 606.369 1427.29 Q606.369 1434.4 608.175 1437.97 Q610.003 1441.51 613.615 1441.51 Q617.249 1441.51 619.054 1437.97 Q620.883 1434.4 620.883 1427.29 Q620.883 1420.16 619.054 1416.62 Q617.249 1413.06 613.615 1413.06 M613.615 1409.35 Q619.425 1409.35 622.48 1413.96 Q625.559 1418.54 625.559 1427.29 Q625.559 1436.02 622.48 1440.63 Q619.425 1445.21 613.615 1445.21 Q607.804 1445.21 604.726 1440.63 Q601.67 1436.02 601.67 1427.29 Q601.67 1418.54 604.726 1413.96 Q607.804 1409.35 613.615 1409.35 Z" fill="#000000" fill-rule="nonzero" fill-opacity="1" /><path clip-path="url(#clip210)" d="M633.776 1438.66 L638.661 1438.66 L638.661 1444.54 L633.776 1444.54 L633.776 1438.66 Z" fill="#000000" fill-rule="nonzero" fill-opacity="1" /><path clip-path="url(#clip210)" d="M648.892 1409.98 L667.249 1409.98 L667.249 1413.92 L653.175 1413.92 L653.175 1422.39 Q654.193 1422.04 655.212 1421.88 Q656.23 1421.69 657.249 1421.69 Q663.036 1421.69 666.415 1424.86 Q669.795 1428.04 669.795 1433.45 Q669.795 1439.03 666.323 1442.13 Q662.85 1445.21 656.531 1445.21 Q654.355 1445.21 652.087 1444.84 Q649.841 1444.47 647.434 1443.73 L647.434 1439.03 Q649.517 1440.16 651.739 1440.72 Q653.962 1441.28 656.438 1441.28 Q660.443 1441.28 662.781 1439.17 Q665.119 1437.06 665.119 1433.45 Q665.119 1429.84 662.781 1427.73 Q660.443 1425.63 656.438 1425.63 Q654.563 1425.63 652.688 1426.04 Q650.837 1426.46 648.892 1427.34 L648.892 1409.98 Z" fill="#000000" fill-rule="nonzero" fill-opacity="1" /><path clip-path="url(#clip210)" d="M905.325 1413.06 Q901.714 1413.06 899.885 1416.62 Q898.08 1420.16 898.08 1427.29 Q898.08 1434.4 899.885 1437.97 Q901.714 1441.51 905.325 1441.51 Q908.96 1441.51 910.765 1437.97 Q912.594 1434.4 912.594 1427.29 Q912.594 1420.16 910.765 1416.62 Q908.96 1413.06 905.325 1413.06 M905.325 1409.35 Q911.135 1409.35 914.191 1413.96 Q917.27 1418.54 917.27 1427.29 Q917.27 1436.02 914.191 1440.63 Q911.135 1445.21 905.325 1445.21 Q899.515 1445.21 896.436 1440.63 Q893.381 1436.02 893.381 1427.29 Q893.381 1418.54 896.436 1413.96 Q899.515 1409.35 905.325 1409.35 Z" fill="#000000" fill-rule="nonzero" fill-opacity="1" /><path clip-path="url(#clip210)" d="M925.487 1438.66 L930.371 1438.66 L930.371 1444.54 L925.487 1444.54 L925.487 1438.66 Z" fill="#000000" fill-rule="nonzero" fill-opacity="1" /><path clip-path="url(#clip210)" d="M950.557 1413.06 Q946.945 1413.06 945.117 1416.62 Q943.311 1420.16 943.311 1427.29 Q943.311 1434.4 945.117 1437.97 Q946.945 1441.51 950.557 1441.51 Q954.191 1441.51 955.996 1437.97 Q957.825 1434.4 957.825 1427.29 Q957.825 1420.16 955.996 1416.62 Q954.191 1413.06 950.557 1413.06 M950.557 1409.35 Q956.367 1409.35 959.422 1413.96 Q962.501 1418.54 962.501 1427.29 Q962.501 1436.02 959.422 1440.63 Q956.367 1445.21 950.557 1445.21 Q944.746 1445.21 941.668 1440.63 Q938.612 1436.02 938.612 1427.29 Q938.612 1418.54 941.668 1413.96 Q944.746 1409.35 950.557 1409.35 Z" fill="#000000" fill-rule="nonzero" fill-opacity="1" /><path clip-path="url(#clip210)" d="M1216.94 1413.06 Q1213.33 1413.06 1211.5 1416.62 Q1209.7 1420.16 1209.7 1427.29 Q1209.7 1434.4 1211.5 1437.97 Q1213.33 1441.51 1216.94 1441.51 Q1220.58 1441.51 1222.38 1437.97 Q1224.21 1434.4 1224.21 1427.29 Q1224.21 1420.16 1222.38 1416.62 Q1220.58 1413.06 1216.94 1413.06 M1216.94 1409.35 Q1222.75 1409.35 1225.81 1413.96 Q1228.89 1418.54 1228.89 1427.29 Q1228.89 1436.02 1225.81 1440.63 Q1222.75 1445.21 1216.94 1445.21 Q1211.13 1445.21 1208.05 1440.63 Q1205 1436.02 1205 1427.29 Q1205 1418.54 1208.05 1413.96 Q1211.13 1409.35 1216.94 1409.35 Z" fill="#000000" fill-rule="nonzero" fill-opacity="1" /><path clip-path="url(#clip210)" d="M1237.11 1438.66 L1241.99 1438.66 L1241.99 1444.54 L1237.11 1444.54 L1237.11 1438.66 Z" fill="#000000" fill-rule="nonzero" fill-opacity="1" /><path clip-path="url(#clip210)" d="M1252.22 1409.98 L1270.58 1409.98 L1270.58 1413.92 L1256.5 1413.92 L1256.5 1422.39 Q1257.52 1422.04 1258.54 1421.88 Q1259.56 1421.69 1260.58 1421.69 Q1266.36 1421.69 1269.74 1424.86 Q1273.12 1428.04 1273.12 1433.45 Q1273.12 1439.03 1269.65 1442.13 Q1266.18 1445.21 1259.86 1445.21 Q1257.68 1445.21 1255.42 1444.84 Q1253.17 1444.47 1250.76 1443.73 L1250.76 1439.03 Q1252.85 1440.16 1255.07 1440.72 Q1257.29 1441.28 1259.77 1441.28 Q1263.77 1441.28 1266.11 1439.17 Q1268.45 1437.06 1268.45 1433.45 Q1268.45 1429.84 1266.11 1427.73 Q1263.77 1425.63 1259.77 1425.63 Q1257.89 1425.63 1256.02 1426.04 Q1254.17 1426.46 1252.22 1427.34 L1252.22 1409.98 Z" fill="#000000" fill-rule="nonzero" fill-opacity="1" /><path clip-path="url(#clip210)" d="M1517.33 1440.6 L1524.97 1440.6 L1524.97 1414.24 L1516.66 1415.91 L1516.66 1411.65 L1524.93 1409.98 L1529.6 1409.98 L1529.6 1440.6 L1537.24 1440.6 L1537.24 1444.54 L1517.33 1444.54 L1517.33 1440.6 Z" fill="#000000" fill-rule="nonzero" fill-opacity="1" /><path clip-path="url(#clip210)" d="M1546.69 1438.66 L1551.57 1438.66 L1551.57 1444.54 L1546.69 1444.54 L1546.69 1438.66 Z" fill="#000000" fill-rule="nonzero" fill-opacity="1" /><path clip-path="url(#clip210)" d="M1571.76 1413.06 Q1568.14 1413.06 1566.32 1416.62 Q1564.51 1420.16 1564.51 1427.29 Q1564.51 1434.4 1566.32 1437.97 Q1568.14 1441.51 1571.76 1441.51 Q1575.39 1441.51 1577.2 1437.97 Q1579.02 1434.4 1579.02 1427.29 Q1579.02 1420.16 1577.2 1416.62 Q1575.39 1413.06 1571.76 1413.06 M1571.76 1409.35 Q1577.57 1409.35 1580.62 1413.96 Q1583.7 1418.54 1583.7 1427.29 Q1583.7 1436.02 1580.62 1440.63 Q1577.57 1445.21 1571.76 1445.21 Q1565.95 1445.21 1562.87 1440.63 Q1559.81 1436.02 1559.81 1427.29 Q1559.81 1418.54 1562.87 1413.96 Q1565.95 1409.35 1571.76 1409.35 Z" fill="#000000" fill-rule="nonzero" fill-opacity="1" /><path clip-path="url(#clip210)" d="M876.856 1467.48 L883.285 1467.48 L883.285 1509.59 L906.425 1509.59 L906.425 1515 L876.856 1515 L876.856 1467.48 Z" fill="#000000" fill-rule="nonzero" fill-opacity="1" /><path clip-path="url(#clip210)" d="M908.812 1494.54 L925.968 1494.54 L925.968 1499.76 L908.812 1499.76 L908.812 1494.54 Z" fill="#000000" fill-rule="nonzero" fill-opacity="1" /><path clip-path="url(#clip210)" d="M935.548 1467.48 L945.128 1467.48 L957.255 1499.82 L969.445 1467.48 L979.026 1467.48 L979.026 1515 L972.755 1515 L972.755 1473.28 L960.501 1505.87 L954.04 1505.87 L941.786 1473.28 L941.786 1515 L935.548 1515 L935.548 1467.48 Z" fill="#000000" fill-rule="nonzero" fill-opacity="1" /><polyline clip-path="url(#clip212)" style="stroke:#000000; stroke-linecap:round; stroke-linejoin:round; stroke-width:2; stroke-opacity:0.1; fill:none" points="303.126,1234.61 1552.76,1234.61 "/>
<polyline clip-path="url(#clip212)" style="stroke:#000000; stroke-linecap:round; stroke-linejoin:round; stroke-width:2; stroke-opacity:0.1; fill:none" points="303.126,1079.05 1552.76,1079.05 "/>
<polyline clip-path="url(#clip212)" style="stroke:#000000; stroke-linecap:round; stroke-linejoin:round; stroke-width:2; stroke-opacity:0.1; fill:none" points="303.126,923.486 1552.76,923.486 "/>
<polyline clip-path="url(#clip212)" style="stroke:#000000; stroke-linecap:round; stroke-linejoin:round; stroke-width:2; stroke-opacity:0.1; fill:none" points="303.126,767.926 1552.76,767.926 "/>
<polyline clip-path="url(#clip212)" style="stroke:#000000; stroke-linecap:round; stroke-linejoin:round; stroke-width:2; stroke-opacity:0.1; fill:none" points="303.126,612.366 1552.76,612.366 "/>
<polyline clip-path="url(#clip212)" style="stroke:#000000; stroke-linecap:round; stroke-linejoin:round; stroke-width:2; stroke-opacity:0.1; fill:none" points="303.126,456.806 1552.76,456.806 "/>
<polyline clip-path="url(#clip212)" style="stroke:#000000; stroke-linecap:round; stroke-linejoin:round; stroke-width:2; stroke-opacity:0.1; fill:none" points="303.126,301.245 1552.76,301.245 "/>
<polyline clip-path="url(#clip210)" style="stroke:#000000; stroke-linecap:round; stroke-linejoin:round; stroke-width:4; stroke-opacity:1; fill:none" points="303.126,1382.14 303.126,153.712 "/>
<polyline clip-path="url(#clip210)" style="stroke:#000000; stroke-linecap:round; stroke-linejoin:round; stroke-width:4; stroke-opacity:1; fill:none" points="303.126,1234.61 284.228,1234.61 "/>
<polyline clip-path="url(#clip210)" style="stroke:#000000; stroke-linecap:round; stroke-linejoin:round; stroke-width:4; stroke-opacity:1; fill:none" points="303.126,1079.05 284.228,1079.05 "/>
<polyline clip-path="url(#clip210)" style="stroke:#000000; stroke-linecap:round; stroke-linejoin:round; stroke-width:4; stroke-opacity:1; fill:none" points="303.126,923.486 284.228,923.486 "/>
<polyline clip-path="url(#clip210)" style="stroke:#000000; stroke-linecap:round; stroke-linejoin:round; stroke-width:4; stroke-opacity:1; fill:none" points="303.126,767.926 284.228,767.926 "/>
<polyline clip-path="url(#clip210)" style="stroke:#000000; stroke-linecap:round; stroke-linejoin:round; stroke-width:4; stroke-opacity:1; fill:none" points="303.126,612.366 284.228,612.366 "/>
<polyline clip-path="url(#clip210)" style="stroke:#000000; stroke-linecap:round; stroke-linejoin:round; stroke-width:4; stroke-opacity:1; fill:none" points="303.126,456.806 284.228,456.806 "/>
<polyline clip-path="url(#clip210)" style="stroke:#000000; stroke-linecap:round; stroke-linejoin:round; stroke-width:4; stroke-opacity:1; fill:none" points="303.126,301.245 284.228,301.245 "/>
<path clip-path="url(#clip210)" d="M131.016 1235.06 L160.691 1235.06 L160.691 1238.99 L131.016 1238.99 L131.016 1235.06 Z" fill="#000000" fill-rule="nonzero" fill-opacity="1" /><path clip-path="url(#clip210)" d="M180.784 1220.41 Q177.173 1220.41 175.344 1223.97 Q173.538 1227.51 173.538 1234.64 Q173.538 1241.75 175.344 1245.31 Q177.173 1248.85 180.784 1248.85 Q184.418 1248.85 186.224 1245.31 Q188.052 1241.75 188.052 1234.64 Q188.052 1227.51 186.224 1223.97 Q184.418 1220.41 180.784 1220.41 M180.784 1216.7 Q186.594 1216.7 189.649 1221.31 Q192.728 1225.89 192.728 1234.64 Q192.728 1243.37 189.649 1247.97 Q186.594 1252.56 180.784 1252.56 Q174.974 1252.56 171.895 1247.97 Q168.839 1243.37 168.839 1234.64 Q168.839 1225.89 171.895 1221.31 Q174.974 1216.7 180.784 1216.7 Z" fill="#000000" fill-rule="nonzero" fill-opacity="1" /><path clip-path="url(#clip210)" d="M200.946 1246.01 L205.83 1246.01 L205.83 1251.89 L200.946 1251.89 L200.946 1246.01 Z" fill="#000000" fill-rule="nonzero" fill-opacity="1" /><path clip-path="url(#clip210)" d="M214.835 1217.33 L237.057 1217.33 L237.057 1219.32 L224.51 1251.89 L219.626 1251.89 L231.432 1221.26 L214.835 1221.26 L214.835 1217.33 Z" fill="#000000" fill-rule="nonzero" fill-opacity="1" /><path clip-path="url(#clip210)" d="M246.223 1217.33 L264.58 1217.33 L264.58 1221.26 L250.506 1221.26 L250.506 1229.73 Q251.524 1229.39 252.543 1229.22 Q253.561 1229.04 254.58 1229.04 Q260.367 1229.04 263.746 1232.21 Q267.126 1235.38 267.126 1240.8 Q267.126 1246.38 263.654 1249.48 Q260.181 1252.56 253.862 1252.56 Q251.686 1252.56 249.418 1252.19 Q247.172 1251.82 244.765 1251.08 L244.765 1246.38 Q246.848 1247.51 249.07 1248.07 Q251.293 1248.62 253.769 1248.62 Q257.774 1248.62 260.112 1246.52 Q262.45 1244.41 262.45 1240.8 Q262.45 1237.19 260.112 1235.08 Q257.774 1232.97 253.769 1232.97 Q251.895 1232.97 250.02 1233.39 Q248.168 1233.81 246.223 1234.69 L246.223 1217.33 Z" fill="#000000" fill-rule="nonzero" fill-opacity="1" /><path clip-path="url(#clip210)" d="M130.02 1079.5 L159.696 1079.5 L159.696 1083.43 L130.02 1083.43 L130.02 1079.5 Z" fill="#000000" fill-rule="nonzero" fill-opacity="1" /><path clip-path="url(#clip210)" d="M179.788 1064.85 Q176.177 1064.85 174.349 1068.41 Q172.543 1071.95 172.543 1079.08 Q172.543 1086.19 174.349 1089.75 Q176.177 1093.29 179.788 1093.29 Q183.423 1093.29 185.228 1089.75 Q187.057 1086.19 187.057 1079.08 Q187.057 1071.95 185.228 1068.41 Q183.423 1064.85 179.788 1064.85 M179.788 1061.14 Q185.599 1061.14 188.654 1065.75 Q191.733 1070.33 191.733 1079.08 Q191.733 1087.81 188.654 1092.41 Q185.599 1097 179.788 1097 Q173.978 1097 170.9 1092.41 Q167.844 1087.81 167.844 1079.08 Q167.844 1070.33 170.9 1065.75 Q173.978 1061.14 179.788 1061.14 Z" fill="#000000" fill-rule="nonzero" fill-opacity="1" /><path clip-path="url(#clip210)" d="M199.95 1090.45 L204.835 1090.45 L204.835 1096.33 L199.95 1096.33 L199.95 1090.45 Z" fill="#000000" fill-rule="nonzero" fill-opacity="1" /><path clip-path="url(#clip210)" d="M215.066 1061.77 L233.422 1061.77 L233.422 1065.7 L219.348 1065.7 L219.348 1074.17 Q220.367 1073.83 221.385 1073.66 Q222.404 1073.48 223.422 1073.48 Q229.209 1073.48 232.589 1076.65 Q235.969 1079.82 235.969 1085.24 Q235.969 1090.82 232.496 1093.92 Q229.024 1097 222.705 1097 Q220.529 1097 218.26 1096.63 Q216.015 1096.26 213.608 1095.52 L213.608 1090.82 Q215.691 1091.95 217.913 1092.51 Q220.135 1093.06 222.612 1093.06 Q226.617 1093.06 228.955 1090.96 Q231.293 1088.85 231.293 1085.24 Q231.293 1081.63 228.955 1079.52 Q226.617 1077.41 222.612 1077.41 Q220.737 1077.41 218.862 1077.83 Q217.01 1078.25 215.066 1079.13 L215.066 1061.77 Z" fill="#000000" fill-rule="nonzero" fill-opacity="1" /><path clip-path="url(#clip210)" d="M255.182 1064.85 Q251.57 1064.85 249.742 1068.41 Q247.936 1071.95 247.936 1079.08 Q247.936 1086.19 249.742 1089.75 Q251.57 1093.29 255.182 1093.29 Q258.816 1093.29 260.621 1089.75 Q262.45 1086.19 262.45 1079.08 Q262.45 1071.95 260.621 1068.41 Q258.816 1064.85 255.182 1064.85 M255.182 1061.14 Q260.992 1061.14 264.047 1065.75 Q267.126 1070.33 267.126 1079.08 Q267.126 1087.81 264.047 1092.41 Q260.992 1097 255.182 1097 Q249.371 1097 246.293 1092.41 Q243.237 1087.81 243.237 1079.08 Q243.237 1070.33 246.293 1065.75 Q249.371 1061.14 255.182 1061.14 Z" fill="#000000" fill-rule="nonzero" fill-opacity="1" /><path clip-path="url(#clip210)" d="M131.016 923.938 L160.691 923.938 L160.691 927.873 L131.016 927.873 L131.016 923.938 Z" fill="#000000" fill-rule="nonzero" fill-opacity="1" /><path clip-path="url(#clip210)" d="M180.784 909.285 Q177.173 909.285 175.344 912.85 Q173.538 916.391 173.538 923.521 Q173.538 930.627 175.344 934.192 Q177.173 937.734 180.784 937.734 Q184.418 937.734 186.224 934.192 Q188.052 930.627 188.052 923.521 Q188.052 916.391 186.224 912.85 Q184.418 909.285 180.784 909.285 M180.784 905.581 Q186.594 905.581 189.649 910.188 Q192.728 914.771 192.728 923.521 Q192.728 932.248 189.649 936.854 Q186.594 941.437 180.784 941.437 Q174.974 941.437 171.895 936.854 Q168.839 932.248 168.839 923.521 Q168.839 914.771 171.895 910.188 Q174.974 905.581 180.784 905.581 Z" fill="#000000" fill-rule="nonzero" fill-opacity="1" /><path clip-path="url(#clip210)" d="M200.946 934.887 L205.83 934.887 L205.83 940.766 L200.946 940.766 L200.946 934.887 Z" fill="#000000" fill-rule="nonzero" fill-opacity="1" /><path clip-path="url(#clip210)" d="M220.043 936.831 L236.362 936.831 L236.362 940.766 L214.418 940.766 L214.418 936.831 Q217.08 934.076 221.663 929.447 Q226.27 924.794 227.45 923.451 Q229.696 920.928 230.575 919.192 Q231.478 917.433 231.478 915.743 Q231.478 912.989 229.534 911.252 Q227.612 909.516 224.51 909.516 Q222.311 909.516 219.858 910.28 Q217.427 911.044 214.649 912.595 L214.649 907.873 Q217.473 906.739 219.927 906.16 Q222.381 905.581 224.418 905.581 Q229.788 905.581 232.983 908.266 Q236.177 910.952 236.177 915.442 Q236.177 917.572 235.367 919.493 Q234.58 921.391 232.473 923.984 Q231.895 924.655 228.793 927.873 Q225.691 931.067 220.043 936.831 Z" fill="#000000" fill-rule="nonzero" fill-opacity="1" /><path clip-path="url(#clip210)" d="M246.223 906.206 L264.58 906.206 L264.58 910.141 L250.506 910.141 L250.506 918.613 Q251.524 918.266 252.543 918.104 Q253.561 917.919 254.58 917.919 Q260.367 917.919 263.746 921.09 Q267.126 924.262 267.126 929.678 Q267.126 935.257 263.654 938.359 Q260.181 941.437 253.862 941.437 Q251.686 941.437 249.418 941.067 Q247.172 940.697 244.765 939.956 L244.765 935.257 Q246.848 936.391 249.07 936.947 Q251.293 937.502 253.769 937.502 Q257.774 937.502 260.112 935.396 Q262.45 933.289 262.45 929.678 Q262.45 926.067 260.112 923.961 Q257.774 921.854 253.769 921.854 Q251.895 921.854 250.02 922.271 Q248.168 922.688 246.223 923.567 L246.223 906.206 Z" fill="#000000" fill-rule="nonzero" fill-opacity="1" /><path clip-path="url(#clip210)" d="M179.788 753.725 Q176.177 753.725 174.349 757.289 Q172.543 760.831 172.543 767.961 Q172.543 775.067 174.349 778.632 Q176.177 782.174 179.788 782.174 Q183.423 782.174 185.228 778.632 Q187.057 775.067 187.057 767.961 Q187.057 760.831 185.228 757.289 Q183.423 753.725 179.788 753.725 M179.788 750.021 Q185.599 750.021 188.654 754.627 Q191.733 759.211 191.733 767.961 Q191.733 776.688 188.654 781.294 Q185.599 785.877 179.788 785.877 Q173.978 785.877 170.9 781.294 Q167.844 776.688 167.844 767.961 Q167.844 759.211 170.9 754.627 Q173.978 750.021 179.788 750.021 Z" fill="#000000" fill-rule="nonzero" fill-opacity="1" /><path clip-path="url(#clip210)" d="M199.95 779.326 L204.835 779.326 L204.835 785.206 L199.95 785.206 L199.95 779.326 Z" fill="#000000" fill-rule="nonzero" fill-opacity="1" /><path clip-path="url(#clip210)" d="M225.02 753.725 Q221.409 753.725 219.58 757.289 Q217.774 760.831 217.774 767.961 Q217.774 775.067 219.58 778.632 Q221.409 782.174 225.02 782.174 Q228.654 782.174 230.459 778.632 Q232.288 775.067 232.288 767.961 Q232.288 760.831 230.459 757.289 Q228.654 753.725 225.02 753.725 M225.02 750.021 Q230.83 750.021 233.885 754.627 Q236.964 759.211 236.964 767.961 Q236.964 776.688 233.885 781.294 Q230.83 785.877 225.02 785.877 Q219.209 785.877 216.131 781.294 Q213.075 776.688 213.075 767.961 Q213.075 759.211 216.131 754.627 Q219.209 750.021 225.02 750.021 Z" fill="#000000" fill-rule="nonzero" fill-opacity="1" /><path clip-path="url(#clip210)" d="M255.182 753.725 Q251.57 753.725 249.742 757.289 Q247.936 760.831 247.936 767.961 Q247.936 775.067 249.742 778.632 Q251.57 782.174 255.182 782.174 Q258.816 782.174 260.621 778.632 Q262.45 775.067 262.45 767.961 Q262.45 760.831 260.621 757.289 Q258.816 753.725 255.182 753.725 M255.182 750.021 Q260.992 750.021 264.047 754.627 Q267.126 759.211 267.126 767.961 Q267.126 776.688 264.047 781.294 Q260.992 785.877 255.182 785.877 Q249.371 785.877 246.293 781.294 Q243.237 776.688 243.237 767.961 Q243.237 759.211 246.293 754.627 Q249.371 750.021 255.182 750.021 Z" fill="#000000" fill-rule="nonzero" fill-opacity="1" /><path clip-path="url(#clip210)" d="M180.784 598.164 Q177.173 598.164 175.344 601.729 Q173.538 605.271 173.538 612.401 Q173.538 619.507 175.344 623.072 Q177.173 626.613 180.784 626.613 Q184.418 626.613 186.224 623.072 Q188.052 619.507 188.052 612.401 Q188.052 605.271 186.224 601.729 Q184.418 598.164 180.784 598.164 M180.784 594.461 Q186.594 594.461 189.649 599.067 Q192.728 603.651 192.728 612.401 Q192.728 621.127 189.649 625.734 Q186.594 630.317 180.784 630.317 Q174.974 630.317 171.895 625.734 Q168.839 621.127 168.839 612.401 Q168.839 603.651 171.895 599.067 Q174.974 594.461 180.784 594.461 Z" fill="#000000" fill-rule="nonzero" fill-opacity="1" /><path clip-path="url(#clip210)" d="M200.946 623.766 L205.83 623.766 L205.83 629.646 L200.946 629.646 L200.946 623.766 Z" fill="#000000" fill-rule="nonzero" fill-opacity="1" /><path clip-path="url(#clip210)" d="M220.043 625.711 L236.362 625.711 L236.362 629.646 L214.418 629.646 L214.418 625.711 Q217.08 622.956 221.663 618.326 Q226.27 613.674 227.45 612.331 Q229.696 609.808 230.575 608.072 Q231.478 606.313 231.478 604.623 Q231.478 601.868 229.534 600.132 Q227.612 598.396 224.51 598.396 Q222.311 598.396 219.858 599.16 Q217.427 599.924 214.649 601.475 L214.649 596.752 Q217.473 595.618 219.927 595.04 Q222.381 594.461 224.418 594.461 Q229.788 594.461 232.983 597.146 Q236.177 599.831 236.177 604.322 Q236.177 606.451 235.367 608.373 Q234.58 610.271 232.473 612.863 Q231.895 613.535 228.793 616.752 Q225.691 619.947 220.043 625.711 Z" fill="#000000" fill-rule="nonzero" fill-opacity="1" /><path clip-path="url(#clip210)" d="M246.223 595.086 L264.58 595.086 L264.58 599.021 L250.506 599.021 L250.506 607.493 Q251.524 607.146 252.543 606.984 Q253.561 606.799 254.58 606.799 Q260.367 606.799 263.746 609.97 Q267.126 613.141 267.126 618.558 Q267.126 624.137 263.654 627.238 Q260.181 630.317 253.862 630.317 Q251.686 630.317 249.418 629.947 Q247.172 629.576 244.765 628.836 L244.765 624.137 Q246.848 625.271 249.07 625.826 Q251.293 626.382 253.769 626.382 Q257.774 626.382 260.112 624.275 Q262.45 622.169 262.45 618.558 Q262.45 614.947 260.112 612.84 Q257.774 610.734 253.769 610.734 Q251.895 610.734 250.02 611.151 Q248.168 611.567 246.223 612.447 L246.223 595.086 Z" fill="#000000" fill-rule="nonzero" fill-opacity="1" /><path clip-path="url(#clip210)" d="M179.788 442.604 Q176.177 442.604 174.349 446.169 Q172.543 449.711 172.543 456.84 Q172.543 463.947 174.349 467.512 Q176.177 471.053 179.788 471.053 Q183.423 471.053 185.228 467.512 Q187.057 463.947 187.057 456.84 Q187.057 449.711 185.228 446.169 Q183.423 442.604 179.788 442.604 M179.788 438.901 Q185.599 438.901 188.654 443.507 Q191.733 448.09 191.733 456.84 Q191.733 465.567 188.654 470.174 Q185.599 474.757 179.788 474.757 Q173.978 474.757 170.9 470.174 Q167.844 465.567 167.844 456.84 Q167.844 448.09 170.9 443.507 Q173.978 438.901 179.788 438.901 Z" fill="#000000" fill-rule="nonzero" fill-opacity="1" /><path clip-path="url(#clip210)" d="M199.95 468.206 L204.835 468.206 L204.835 474.086 L199.95 474.086 L199.95 468.206 Z" fill="#000000" fill-rule="nonzero" fill-opacity="1" /><path clip-path="url(#clip210)" d="M215.066 439.526 L233.422 439.526 L233.422 443.461 L219.348 443.461 L219.348 451.933 Q220.367 451.586 221.385 451.424 Q222.404 451.239 223.422 451.239 Q229.209 451.239 232.589 454.41 Q235.969 457.581 235.969 462.998 Q235.969 468.576 232.496 471.678 Q229.024 474.757 222.705 474.757 Q220.529 474.757 218.26 474.387 Q216.015 474.016 213.608 473.275 L213.608 468.576 Q215.691 469.711 217.913 470.266 Q220.135 470.822 222.612 470.822 Q226.617 470.822 228.955 468.715 Q231.293 466.609 231.293 462.998 Q231.293 459.387 228.955 457.28 Q226.617 455.174 222.612 455.174 Q220.737 455.174 218.862 455.59 Q217.01 456.007 215.066 456.887 L215.066 439.526 Z" fill="#000000" fill-rule="nonzero" fill-opacity="1" /><path clip-path="url(#clip210)" d="M255.182 442.604 Q251.57 442.604 249.742 446.169 Q247.936 449.711 247.936 456.84 Q247.936 463.947 249.742 467.512 Q251.57 471.053 255.182 471.053 Q258.816 471.053 260.621 467.512 Q262.45 463.947 262.45 456.84 Q262.45 449.711 260.621 446.169 Q258.816 442.604 255.182 442.604 M255.182 438.901 Q260.992 438.901 264.047 443.507 Q267.126 448.09 267.126 456.84 Q267.126 465.567 264.047 470.174 Q260.992 474.757 255.182 474.757 Q249.371 474.757 246.293 470.174 Q243.237 465.567 243.237 456.84 Q243.237 448.09 246.293 443.507 Q249.371 438.901 255.182 438.901 Z" fill="#000000" fill-rule="nonzero" fill-opacity="1" /><path clip-path="url(#clip210)" d="M180.784 287.044 Q177.173 287.044 175.344 290.609 Q173.538 294.151 173.538 301.28 Q173.538 308.387 175.344 311.951 Q177.173 315.493 180.784 315.493 Q184.418 315.493 186.224 311.951 Q188.052 308.387 188.052 301.28 Q188.052 294.151 186.224 290.609 Q184.418 287.044 180.784 287.044 M180.784 283.34 Q186.594 283.34 189.649 287.947 Q192.728 292.53 192.728 301.28 Q192.728 310.007 189.649 314.613 Q186.594 319.197 180.784 319.197 Q174.974 319.197 171.895 314.613 Q168.839 310.007 168.839 301.28 Q168.839 292.53 171.895 287.947 Q174.974 283.34 180.784 283.34 Z" fill="#000000" fill-rule="nonzero" fill-opacity="1" /><path clip-path="url(#clip210)" d="M200.946 312.646 L205.83 312.646 L205.83 318.525 L200.946 318.525 L200.946 312.646 Z" fill="#000000" fill-rule="nonzero" fill-opacity="1" /><path clip-path="url(#clip210)" d="M214.835 283.965 L237.057 283.965 L237.057 285.956 L224.51 318.525 L219.626 318.525 L231.432 287.901 L214.835 287.901 L214.835 283.965 Z" fill="#000000" fill-rule="nonzero" fill-opacity="1" /><path clip-path="url(#clip210)" d="M246.223 283.965 L264.58 283.965 L264.58 287.901 L250.506 287.901 L250.506 296.373 Q251.524 296.026 252.543 295.864 Q253.561 295.678 254.58 295.678 Q260.367 295.678 263.746 298.85 Q267.126 302.021 267.126 307.438 Q267.126 313.016 263.654 316.118 Q260.181 319.197 253.862 319.197 Q251.686 319.197 249.418 318.826 Q247.172 318.456 244.765 317.715 L244.765 313.016 Q246.848 314.15 249.07 314.706 Q251.293 315.262 253.769 315.262 Q257.774 315.262 260.112 313.155 Q262.45 311.049 262.45 307.438 Q262.45 303.826 260.112 301.72 Q257.774 299.614 253.769 299.614 Q251.895 299.614 250.02 300.03 Q248.168 300.447 246.223 301.326 L246.223 283.965 Z" fill="#000000" fill-rule="nonzero" fill-opacity="1" /><path clip-path="url(#clip210)" d="M57.8038 863.857 L64.074 863.857 Q62.3234 867.517 61.464 870.764 Q60.6047 874.01 60.6047 877.034 Q60.6047 882.286 62.6417 885.15 Q64.6787 887.983 68.4345 887.983 Q71.5855 887.983 73.2088 886.105 Q74.8002 884.196 75.7869 878.912 L76.5826 875.029 Q77.9512 867.836 81.4205 864.43 Q84.858 860.993 90.6508 860.993 Q97.5576 860.993 101.122 865.64 Q104.687 870.255 104.687 879.199 Q104.687 882.572 103.923 886.392 Q103.159 890.179 101.663 894.253 L95.0431 894.253 Q97.2393 890.339 98.3533 886.583 Q99.4673 882.827 99.4673 879.199 Q99.4673 873.692 97.303 870.7 Q95.1386 867.708 91.1282 867.708 Q87.6271 867.708 85.6537 869.873 Q83.6804 872.005 82.6937 876.907 L81.9298 880.822 Q80.4975 888.015 77.442 891.23 Q74.3864 894.444 68.9437 894.444 Q62.6417 894.444 59.0132 890.02 Q55.3848 885.564 55.3848 877.766 Q55.3848 874.424 55.9895 870.955 Q56.5943 867.486 57.8038 863.857 Z" fill="#000000" fill-rule="nonzero" fill-opacity="1" /><path clip-path="url(#clip210)" d="M83.2984 854.181 L83.2984 837.026 L88.5183 837.026 L88.5183 854.181 L83.2984 854.181 Z" fill="#000000" fill-rule="nonzero" fill-opacity="1" /><path clip-path="url(#clip210)" d="M54.3026 813.632 Q61.6232 817.897 68.7846 819.966 Q75.946 822.034 83.2984 822.034 Q90.6508 822.034 97.8759 819.966 Q105.069 817.865 112.358 813.632 L112.358 818.724 Q104.878 823.499 97.6531 825.886 Q90.428 828.241 83.2984 828.241 Q76.2006 828.241 69.0074 825.886 Q61.8142 823.53 54.3026 818.724 L54.3026 813.632 Z" fill="#000000" fill-rule="nonzero" fill-opacity="1" /><path clip-path="url(#clip210)" d="M56.2442 802.014 L56.2442 795.585 L98.3533 795.585 L98.3533 772.446 L103.764 772.446 L103.764 802.014 L56.2442 802.014 Z" fill="#000000" fill-rule="nonzero" fill-opacity="1" /><path clip-path="url(#clip210)" d="M62.8963 742.113 L80.6248 742.113 L80.6248 724.385 L86.0357 724.385 L86.0357 742.113 L103.764 742.113 L103.764 747.46 L86.0357 747.46 L86.0357 765.189 L80.6248 765.189 L80.6248 747.46 L62.8963 747.46 L62.8963 742.113 Z" fill="#000000" fill-rule="nonzero" fill-opacity="1" /><path clip-path="url(#clip210)" d="M56.2442 711.08 L56.2442 701.5 L88.5819 689.373 L56.2442 677.183 L56.2442 667.602 L103.764 667.602 L103.764 673.873 L62.037 673.873 L94.6294 686.127 L94.6294 692.588 L62.037 704.842 L103.764 704.842 L103.764 711.08 L56.2442 711.08 Z" fill="#000000" fill-rule="nonzero" fill-opacity="1" /><path clip-path="url(#clip210)" d="M54.3026 656.017 L54.3026 650.924 Q61.8142 646.15 69.0074 643.795 Q76.2006 641.408 83.2984 641.408 Q90.428 641.408 97.6531 643.795 Q104.878 646.15 112.358 650.924 L112.358 656.017 Q105.069 651.784 97.8759 649.715 Q90.6508 647.614 83.2984 647.614 Q75.946 647.614 68.7846 649.715 Q61.6232 651.784 54.3026 656.017 Z" fill="#000000" fill-rule="nonzero" fill-opacity="1" /><path clip-path="url(#clip210)" d="M633.926 18.8205 L633.926 65.8515 L643.81 65.8515 Q656.328 65.8515 662.121 60.1802 Q667.954 54.509 667.954 42.2752 Q667.954 30.1225 662.121 24.4918 Q656.328 18.8205 643.81 18.8205 L633.926 18.8205 M625.743 12.096 L642.555 12.096 Q660.136 12.096 668.359 19.4281 Q676.582 26.7198 676.582 42.2752 Q676.582 57.9117 668.318 65.2439 Q660.055 72.576 642.555 72.576 L625.743 72.576 L625.743 12.096 Z" fill="#000000" fill-rule="nonzero" fill-opacity="1" /><path clip-path="url(#clip210)" d="M689.626 12.096 L697.809 12.096 L697.809 37.6572 L724.95 12.096 L735.482 12.096 L705.465 40.2903 L737.629 72.576 L726.854 72.576 L697.809 43.45 L697.809 72.576 L689.626 72.576 L689.626 12.096 Z" fill="#000000" fill-rule="nonzero" fill-opacity="1" /><path clip-path="url(#clip210)" d="M744.03 12.096 L752.213 12.096 L752.213 65.6895 L781.663 65.6895 L781.663 72.576 L744.03 72.576 L744.03 12.096 Z" fill="#000000" fill-rule="nonzero" fill-opacity="1" /><path clip-path="url(#clip210)" d="M824.4 86.3491 L824.4 92.1419 L781.298 92.1419 L781.298 86.3491 L824.4 86.3491 Z" fill="#000000" fill-rule="nonzero" fill-opacity="1" /><path clip-path="url(#clip210)" d="M839.51 65.6895 L868.069 65.6895 L868.069 72.576 L829.666 72.576 L829.666 65.6895 Q834.325 60.8689 842.345 52.7671 Q850.407 44.6248 852.473 42.2752 Q856.402 37.8598 857.941 34.8216 Q859.521 31.7429 859.521 28.7857 Q859.521 23.9651 856.118 20.927 Q852.756 17.8888 847.328 17.8888 Q843.48 17.8888 839.186 19.2256 Q834.932 20.5624 830.071 23.2765 L830.071 15.0127 Q835.013 13.0277 839.307 12.015 Q843.601 11.0023 847.166 11.0023 Q856.564 11.0023 862.154 15.7013 Q867.744 20.4004 867.744 28.2591 Q867.744 31.9859 866.327 35.3482 Q864.949 38.6699 861.263 43.2069 Q860.25 44.3817 854.822 50.0125 Q849.394 55.6027 839.51 65.6895 Z" fill="#000000" fill-rule="nonzero" fill-opacity="1" /><path clip-path="url(#clip210)" d="M903.757 39.075 Q898.248 39.075 895.007 42.8424 Q891.807 46.6097 891.807 53.1722 Q891.807 59.6941 895.007 63.502 Q898.248 67.2693 903.757 67.2693 Q909.266 67.2693 912.466 63.502 Q915.707 59.6941 915.707 53.1722 Q915.707 46.6097 912.466 42.8424 Q909.266 39.075 903.757 39.075 M920.001 13.4328 L920.001 20.8865 Q916.922 19.4281 913.763 18.6585 Q910.644 17.8888 907.565 17.8888 Q899.463 17.8888 895.169 23.3575 Q890.916 28.8262 890.308 39.8852 Q892.698 36.3609 896.303 34.4975 Q899.909 32.5936 904.243 32.5936 Q913.358 32.5936 918.624 38.1433 Q923.931 43.6525 923.931 53.1722 Q923.931 62.4892 918.421 68.12 Q912.912 73.7508 903.757 73.7508 Q893.265 73.7508 887.715 65.73 Q882.166 57.6687 882.166 42.3968 Q882.166 28.0566 888.971 19.5497 Q895.777 11.0023 907.241 11.0023 Q910.319 11.0023 913.439 11.6099 Q916.598 12.2175 920.001 13.4328 Z" fill="#000000" fill-rule="nonzero" fill-opacity="1" /><path clip-path="url(#clip210)" d="M937.298 12.096 L945.481 12.096 L945.481 36.8875 L975.215 36.8875 L975.215 12.096 L983.398 12.096 L983.398 72.576 L975.215 72.576 L975.215 43.7741 L945.481 43.7741 L945.481 72.576 L937.298 72.576 L937.298 12.096 Z" fill="#000000" fill-rule="nonzero" fill-opacity="1" /><path clip-path="url(#clip210)" d="M998.589 54.671 L998.589 27.2059 L1006.04 27.2059 L1006.04 54.3874 Q1006.04 60.8284 1008.55 64.0691 Q1011.07 67.2693 1016.09 67.2693 Q1022.12 67.2693 1025.61 63.421 Q1029.13 59.5726 1029.13 52.9291 L1029.13 27.2059 L1036.59 27.2059 L1036.59 72.576 L1029.13 72.576 L1029.13 65.6084 Q1026.42 69.7404 1022.81 71.7658 Q1019.25 73.7508 1014.51 73.7508 Q1006.69 73.7508 1002.64 68.8897 Q998.589 64.0286 998.589 54.671 M1017.34 26.1121 L1017.34 26.1121 Z" fill="#000000" fill-rule="nonzero" fill-opacity="1" /><path clip-path="url(#clip210)" d="M1090.75 48.0275 L1090.75 51.6733 L1056.48 51.6733 Q1056.96 59.3701 1061.09 63.421 Q1065.27 67.4314 1072.68 67.4314 Q1076.97 67.4314 1080.98 66.3781 Q1085.03 65.3249 1089 63.2184 L1089 70.267 Q1084.99 71.9684 1080.78 72.8596 Q1076.57 73.7508 1072.23 73.7508 Q1061.38 73.7508 1055.02 67.4314 Q1048.7 61.1119 1048.7 50.3365 Q1048.7 39.1965 1054.69 32.6746 Q1060.73 26.1121 1070.94 26.1121 Q1080.09 26.1121 1085.4 32.0264 Q1090.75 37.9003 1090.75 48.0275 M1083.29 45.84 Q1083.21 39.7232 1079.85 36.0774 Q1076.53 32.4315 1071.02 32.4315 Q1064.78 32.4315 1061.01 35.9558 Q1057.29 39.4801 1056.72 45.8805 L1083.29 45.84 Z" fill="#000000" fill-rule="nonzero" fill-opacity="1" /><path clip-path="url(#clip210)" d="M1137.45 86.3491 L1137.45 92.1419 L1094.35 92.1419 L1094.35 86.3491 L1137.45 86.3491 Z" fill="#000000" fill-rule="nonzero" fill-opacity="1" /><path clip-path="url(#clip210)" d="M1144.79 12.096 L1152.97 12.096 L1152.97 65.6895 L1182.42 65.6895 L1182.42 72.576 L1144.79 72.576 L1144.79 12.096 Z" fill="#000000" fill-rule="nonzero" fill-opacity="1" /><path clip-path="url(#clip210)" d="M1209.24 17.4837 Q1202.92 17.4837 1199.72 23.7221 Q1196.56 29.92 1196.56 42.3968 Q1196.56 54.833 1199.72 61.0714 Q1202.92 67.2693 1209.24 67.2693 Q1215.6 67.2693 1218.76 61.0714 Q1221.96 54.833 1221.96 42.3968 Q1221.96 29.92 1218.76 23.7221 Q1215.6 17.4837 1209.24 17.4837 M1209.24 11.0023 Q1219.4 11.0023 1224.75 19.0636 Q1230.14 27.0843 1230.14 42.3968 Q1230.14 57.6687 1224.75 65.73 Q1219.4 73.7508 1209.24 73.7508 Q1199.07 73.7508 1193.68 65.73 Q1188.33 57.6687 1188.33 42.3968 Q1188.33 27.0843 1193.68 19.0636 Q1199.07 11.0023 1209.24 11.0023 Z" fill="#000000" fill-rule="nonzero" fill-opacity="1" /><polyline clip-path="url(#clip212)" style="stroke:#7f7f7f; stroke-linecap:round; stroke-linejoin:round; stroke-width:4; stroke-opacity:0.5; fill:none" points="927.941,767.926 1018.71,767.926 "/>
<polyline clip-path="url(#clip212)" style="stroke:#7f7f7f; stroke-linecap:round; stroke-linejoin:round; stroke-width:4; stroke-opacity:0.5; fill:none" points="927.941,767.926 1016.54,716.773 "/>
<polyline clip-path="url(#clip212)" style="stroke:#7f7f7f; stroke-linecap:round; stroke-linejoin:round; stroke-width:4; stroke-opacity:0.5; fill:none" points="927.941,767.926 1012.5,621.469 "/>
<polyline clip-path="url(#clip212)" style="stroke:#7f7f7f; stroke-linecap:round; stroke-linejoin:round; stroke-width:4; stroke-opacity:0.5; fill:none" points="927.941,767.926 1006.3,475.468 "/>
<polyline clip-path="url(#clip212)" style="stroke:#7f7f7f; stroke-linecap:round; stroke-linejoin:round; stroke-width:4; stroke-opacity:0.5; fill:none" points="927.941,767.926 1001.11,352.97 "/>
<polyline clip-path="url(#clip212)" style="stroke:#7f7f7f; stroke-linecap:round; stroke-linejoin:round; stroke-width:4; stroke-opacity:0.5; fill:none" points="927.941,767.926 995.404,218.483 "/>
<polyline clip-path="url(#clip212)" style="stroke:#7f7f7f; stroke-linecap:round; stroke-linejoin:round; stroke-width:4; stroke-opacity:0.5; fill:none" points="927.941,767.926 927.941,195.979 "/>
<polyline clip-path="url(#clip212)" style="stroke:#7f7f7f; stroke-linecap:round; stroke-linejoin:round; stroke-width:4; stroke-opacity:0.5; fill:none" points="927.941,767.926 877.609,192.628 "/>
<polyline clip-path="url(#clip212)" style="stroke:#7f7f7f; stroke-linecap:round; stroke-linejoin:round; stroke-width:4; stroke-opacity:0.5; fill:none" points="927.941,767.926 815.308,188.479 "/>
<polyline clip-path="url(#clip212)" style="stroke:#7f7f7f; stroke-linecap:round; stroke-linejoin:round; stroke-width:4; stroke-opacity:0.5; fill:none" points="927.941,767.926 820.099,365.455 "/>
<polyline clip-path="url(#clip212)" style="stroke:#7f7f7f; stroke-linecap:round; stroke-linejoin:round; stroke-width:4; stroke-opacity:0.5; fill:none" points="927.941,767.926 825.197,485.64 "/>
<polyline clip-path="url(#clip212)" style="stroke:#7f7f7f; stroke-linecap:round; stroke-linejoin:round; stroke-width:4; stroke-opacity:0.5; fill:none" points="927.941,767.926 829.974,598.242 "/>
<polyline clip-path="url(#clip212)" style="stroke:#7f7f7f; stroke-linecap:round; stroke-linejoin:round; stroke-width:4; stroke-opacity:0.5; fill:none" points="927.941,767.926 834.893,714.205 "/>
<polyline clip-path="url(#clip212)" style="stroke:#7f7f7f; stroke-linecap:round; stroke-linejoin:round; stroke-width:4; stroke-opacity:0.5; fill:none" points="927.941,767.926 837.171,767.926 "/>
<polyline clip-path="url(#clip212)" style="stroke:#7f7f7f; stroke-linecap:round; stroke-linejoin:round; stroke-width:4; stroke-opacity:0.5; fill:none" points="927.941,767.926 839.341,819.079 "/>
<polyline clip-path="url(#clip212)" style="stroke:#7f7f7f; stroke-linecap:round; stroke-linejoin:round; stroke-width:4; stroke-opacity:0.5; fill:none" points="927.941,767.926 843.384,914.383 "/>
<polyline clip-path="url(#clip212)" style="stroke:#7f7f7f; stroke-linecap:round; stroke-linejoin:round; stroke-width:4; stroke-opacity:0.5; fill:none" points="927.941,767.926 849.577,1060.38 "/>
<polyline clip-path="url(#clip212)" style="stroke:#7f7f7f; stroke-linecap:round; stroke-linejoin:round; stroke-width:4; stroke-opacity:0.5; fill:none" points="927.941,767.926 854.773,1182.88 "/>
<polyline clip-path="url(#clip212)" style="stroke:#7f7f7f; stroke-linecap:round; stroke-linejoin:round; stroke-width:4; stroke-opacity:0.5; fill:none" points="927.941,767.926 860.478,1317.37 "/>
<polyline clip-path="url(#clip212)" style="stroke:#7f7f7f; stroke-linecap:round; stroke-linejoin:round; stroke-width:4; stroke-opacity:0.5; fill:none" points="927.941,767.926 927.941,1339.87 "/>
<polyline clip-path="url(#clip212)" style="stroke:#7f7f7f; stroke-linecap:round; stroke-linejoin:round; stroke-width:4; stroke-opacity:0.5; fill:none" points="927.941,767.926 978.273,1343.22 "/>
<polyline clip-path="url(#clip212)" style="stroke:#7f7f7f; stroke-linecap:round; stroke-linejoin:round; stroke-width:4; stroke-opacity:0.5; fill:none" points="927.941,767.926 1040.57,1347.37 "/>
<polyline clip-path="url(#clip212)" style="stroke:#7f7f7f; stroke-linecap:round; stroke-linejoin:round; stroke-width:4; stroke-opacity:0.5; fill:none" points="927.941,767.926 1035.78,1170.4 "/>
<polyline clip-path="url(#clip212)" style="stroke:#7f7f7f; stroke-linecap:round; stroke-linejoin:round; stroke-width:4; stroke-opacity:0.5; fill:none" points="927.941,767.926 1030.68,1050.21 "/>
<polyline clip-path="url(#clip212)" style="stroke:#7f7f7f; stroke-linecap:round; stroke-linejoin:round; stroke-width:4; stroke-opacity:0.5; fill:none" points="927.941,767.926 1025.91,937.61 "/>
<polyline clip-path="url(#clip212)" style="stroke:#7f7f7f; stroke-linecap:round; stroke-linejoin:round; stroke-width:4; stroke-opacity:0.5; fill:none" points="927.941,767.926 1020.99,821.647 "/>
<polyline clip-path="url(#clip212)" style="stroke:#ff5a80; stroke-linecap:round; stroke-linejoin:round; stroke-width:6; stroke-opacity:1; fill:none" points="1018.71,767.926 1016.54,716.773 "/>
<polyline clip-path="url(#clip212)" style="stroke:#ff588c; stroke-linecap:round; stroke-linejoin:round; stroke-width:6; stroke-opacity:1; fill:none" points="1016.54,716.773 1012.5,621.469 "/>
<polyline clip-path="url(#clip212)" style="stroke:#ff55a1; stroke-linecap:round; stroke-linejoin:round; stroke-width:6; stroke-opacity:1; fill:none" points="1012.5,621.469 1006.3,475.468 "/>
<polyline clip-path="url(#clip212)" style="stroke:#ff50c1; stroke-linecap:round; stroke-linejoin:round; stroke-width:6; stroke-opacity:1; fill:none" points="1006.3,475.468 1001.11,352.97 "/>
<polyline clip-path="url(#clip212)" style="stroke:#ff4cdd; stroke-linecap:round; stroke-linejoin:round; stroke-width:6; stroke-opacity:1; fill:none" points="1001.11,352.97 995.404,218.483 "/>
<polyline clip-path="url(#clip212)" style="stroke:#ff47fa; stroke-linecap:round; stroke-linejoin:round; stroke-width:6; stroke-opacity:1; fill:none" points="995.404,218.483 927.941,195.979 "/>
<polyline clip-path="url(#clip212)" style="stroke:#a161ff; stroke-linecap:round; stroke-linejoin:round; stroke-width:6; stroke-opacity:1; fill:none" points="927.941,195.979 877.609,192.628 "/>
<polyline clip-path="url(#clip212)" style="stroke:#5b75ff; stroke-linecap:round; stroke-linejoin:round; stroke-width:6; stroke-opacity:1; fill:none" points="877.609,192.628 815.308,188.479 "/>
<polyline clip-path="url(#clip212)" style="stroke:#038eff; stroke-linecap:round; stroke-linejoin:round; stroke-width:6; stroke-opacity:1; fill:none" points="815.308,188.479 820.099,365.455 "/>
<polyline clip-path="url(#clip212)" style="stroke:#0096d7; stroke-linecap:round; stroke-linejoin:round; stroke-width:6; stroke-opacity:1; fill:none" points="820.099,365.455 825.197,485.64 "/>
<polyline clip-path="url(#clip212)" style="stroke:#009abc; stroke-linecap:round; stroke-linejoin:round; stroke-width:6; stroke-opacity:1; fill:none" points="825.197,485.64 829.974,598.242 "/>
<polyline clip-path="url(#clip212)" style="stroke:#009ea3; stroke-linecap:round; stroke-linejoin:round; stroke-width:6; stroke-opacity:1; fill:none" points="829.974,598.242 834.893,714.205 "/>
<polyline clip-path="url(#clip212)" style="stroke:#00a28a; stroke-linecap:round; stroke-linejoin:round; stroke-width:6; stroke-opacity:1; fill:none" points="834.893,714.205 837.171,767.926 "/>
<polyline clip-path="url(#clip212)" style="stroke:#00a47e; stroke-linecap:round; stroke-linejoin:round; stroke-width:6; stroke-opacity:1; fill:none" points="837.171,767.926 839.341,819.079 "/>
<polyline clip-path="url(#clip212)" style="stroke:#00a672; stroke-linecap:round; stroke-linejoin:round; stroke-width:6; stroke-opacity:1; fill:none" points="839.341,819.079 843.384,914.383 "/>
<polyline clip-path="url(#clip212)" style="stroke:#00a95d; stroke-linecap:round; stroke-linejoin:round; stroke-width:6; stroke-opacity:1; fill:none" points="843.384,914.383 849.577,1060.38 "/>
<polyline clip-path="url(#clip212)" style="stroke:#00ae3d; stroke-linecap:round; stroke-linejoin:round; stroke-width:6; stroke-opacity:1; fill:none" points="849.577,1060.38 854.773,1182.88 "/>
<polyline clip-path="url(#clip212)" style="stroke:#00b221; stroke-linecap:round; stroke-linejoin:round; stroke-width:6; stroke-opacity:1; fill:none" points="854.773,1182.88 860.478,1317.37 "/>
<polyline clip-path="url(#clip212)" style="stroke:#00b704; stroke-linecap:round; stroke-linejoin:round; stroke-width:6; stroke-opacity:1; fill:none" points="860.478,1317.37 927.941,1339.87 "/>
<polyline clip-path="url(#clip212)" style="stroke:#5d9d00; stroke-linecap:round; stroke-linejoin:round; stroke-width:6; stroke-opacity:1; fill:none" points="927.941,1339.87 978.273,1343.22 "/>
<polyline clip-path="url(#clip212)" style="stroke:#a38900; stroke-linecap:round; stroke-linejoin:round; stroke-width:6; stroke-opacity:1; fill:none" points="978.273,1343.22 1040.57,1347.37 "/>
<polyline clip-path="url(#clip212)" style="stroke:#fb7000; stroke-linecap:round; stroke-linejoin:round; stroke-width:6; stroke-opacity:1; fill:none" points="1040.57,1347.37 1035.78,1170.4 "/>
<polyline clip-path="url(#clip212)" style="stroke:#ff6827; stroke-linecap:round; stroke-linejoin:round; stroke-width:6; stroke-opacity:1; fill:none" points="1035.78,1170.4 1030.68,1050.21 "/>
<polyline clip-path="url(#clip212)" style="stroke:#ff6442; stroke-linecap:round; stroke-linejoin:round; stroke-width:6; stroke-opacity:1; fill:none" points="1030.68,1050.21 1025.91,937.61 "/>
<polyline clip-path="url(#clip212)" style="stroke:#ff605b; stroke-linecap:round; stroke-linejoin:round; stroke-width:6; stroke-opacity:1; fill:none" points="1025.91,937.61 1020.99,821.647 "/>
<circle clip-path="url(#clip212)" cx="1018.71" cy="767.926" r="18" fill="#ff5a80" fill-rule="evenodd" fill-opacity="1" stroke="none"/>
<circle clip-path="url(#clip212)" cx="1016.54" cy="716.773" r="18" fill="#ff588c" fill-rule="evenodd" fill-opacity="1" stroke="none"/>
<circle clip-path="url(#clip212)" cx="1012.5" cy="621.469" r="18" fill="#ff55a1" fill-rule="evenodd" fill-opacity="1" stroke="none"/>
<circle clip-path="url(#clip212)" cx="1006.3" cy="475.468" r="18" fill="#ff50c1" fill-rule="evenodd" fill-opacity="1" stroke="none"/>
<circle clip-path="url(#clip212)" cx="1001.11" cy="352.97" r="18" fill="#ff4cdd" fill-rule="evenodd" fill-opacity="1" stroke="none"/>
<circle clip-path="url(#clip212)" cx="995.404" cy="218.483" r="18" fill="#ff47fa" fill-rule="evenodd" fill-opacity="1" stroke="none"/>
<circle clip-path="url(#clip212)" cx="927.941" cy="195.979" r="18" fill="#a161ff" fill-rule="evenodd" fill-opacity="1" stroke="none"/>
<circle clip-path="url(#clip212)" cx="877.609" cy="192.628" r="18" fill="#5b75ff" fill-rule="evenodd" fill-opacity="1" stroke="none"/>
<circle clip-path="url(#clip212)" cx="815.308" cy="188.479" r="18" fill="#038eff" fill-rule="evenodd" fill-opacity="1" stroke="none"/>
<circle clip-path="url(#clip212)" cx="820.099" cy="365.455" r="18" fill="#0096d7" fill-rule="evenodd" fill-opacity="1" stroke="none"/>
<circle clip-path="url(#clip212)" cx="825.197" cy="485.64" r="18" fill="#009abc" fill-rule="evenodd" fill-opacity="1" stroke="none"/>
<circle clip-path="url(#clip212)" cx="829.974" cy="598.242" r="18" fill="#009ea3" fill-rule="evenodd" fill-opacity="1" stroke="none"/>
<circle clip-path="url(#clip212)" cx="834.893" cy="714.205" r="18" fill="#00a28a" fill-rule="evenodd" fill-opacity="1" stroke="none"/>
<circle clip-path="url(#clip212)" cx="837.171" cy="767.926" r="18" fill="#00a47e" fill-rule="evenodd" fill-opacity="1" stroke="none"/>
<circle clip-path="url(#clip212)" cx="839.341" cy="819.079" r="18" fill="#00a672" fill-rule="evenodd" fill-opacity="1" stroke="none"/>
<circle clip-path="url(#clip212)" cx="843.384" cy="914.383" r="18" fill="#00a95d" fill-rule="evenodd" fill-opacity="1" stroke="none"/>
<circle clip-path="url(#clip212)" cx="849.577" cy="1060.38" r="18" fill="#00ae3d" fill-rule="evenodd" fill-opacity="1" stroke="none"/>
<circle clip-path="url(#clip212)" cx="854.773" cy="1182.88" r="18" fill="#00b221" fill-rule="evenodd" fill-opacity="1" stroke="none"/>
<circle clip-path="url(#clip212)" cx="860.478" cy="1317.37" r="18" fill="#00b704" fill-rule="evenodd" fill-opacity="1" stroke="none"/>
<circle clip-path="url(#clip212)" cx="927.941" cy="1339.87" r="18" fill="#5d9d00" fill-rule="evenodd" fill-opacity="1" stroke="none"/>
<circle clip-path="url(#clip212)" cx="978.273" cy="1343.22" r="18" fill="#a38900" fill-rule="evenodd" fill-opacity="1" stroke="none"/>
<circle clip-path="url(#clip212)" cx="1040.57" cy="1347.37" r="18" fill="#fb7000" fill-rule="evenodd" fill-opacity="1" stroke="none"/>
<circle clip-path="url(#clip212)" cx="1035.78" cy="1170.4" r="18" fill="#ff6827" fill-rule="evenodd" fill-opacity="1" stroke="none"/>
<circle clip-path="url(#clip212)" cx="1030.68" cy="1050.21" r="18" fill="#ff6442" fill-rule="evenodd" fill-opacity="1" stroke="none"/>
<circle clip-path="url(#clip212)" cx="1025.91" cy="937.61" r="18" fill="#ff605b" fill-rule="evenodd" fill-opacity="1" stroke="none"/>
<circle clip-path="url(#clip212)" cx="1020.99" cy="821.647" r="18" fill="#ff5c74" fill-rule="evenodd" fill-opacity="1" stroke="none"/>
</svg>
