<?xml version="1.0" encoding="utf-8"?>
<svg xmlns="http://www.w3.org/2000/svg" xmlns:xlink="http://www.w3.org/1999/xlink" width="600" height="400" viewBox="0 0 2400 1600">
<defs>
  <clipPath id="clip690">
    <rect x="0" y="0" width="2400" height="1600"/>
  </clipPath>
</defs>
<path clip-path="url(#clip690)" d="
M0 1600 L2400 1600 L2400 0 L0 0  Z
  " fill="#ffffff" fill-rule="evenodd" fill-opacity="1"/>
<defs>
  <clipPath id="clip691">
    <rect x="480" y="0" width="1681" height="1600"/>
  </clipPath>
</defs>
<path clip-path="url(#clip690)" d="
M225.723 1423.18 L2352.76 1423.18 L2352.76 123.472 L225.723 123.472  Z
  " fill="#ffffff" fill-rule="evenodd" fill-opacity="1"/>
<defs>
  <clipPath id="clip692">
    <rect x="225" y="123" width="2128" height="1301"/>
  </clipPath>
</defs>
<polyline clip-path="url(#clip692)" style="stroke:#000000; stroke-width:2; stroke-opacity:0.1; fill:none" points="
  369.635,1423.18 369.635,123.472 
  "/>
<polyline clip-path="url(#clip692)" style="stroke:#000000; stroke-width:2; stroke-opacity:0.1; fill:none" points="
  676.17,1423.18 676.17,123.472 
  "/>
<polyline clip-path="url(#clip692)" style="stroke:#000000; stroke-width:2; stroke-opacity:0.1; fill:none" points="
  982.704,1423.18 982.704,123.472 
  "/>
<polyline clip-path="url(#clip692)" style="stroke:#000000; stroke-width:2; stroke-opacity:0.1; fill:none" points="
  1289.24,1423.18 1289.24,123.472 
  "/>
<polyline clip-path="url(#clip692)" style="stroke:#000000; stroke-width:2; stroke-opacity:0.1; fill:none" points="
  1595.77,1423.18 1595.77,123.472 
  "/>
<polyline clip-path="url(#clip692)" style="stroke:#000000; stroke-width:2; stroke-opacity:0.1; fill:none" points="
  1902.31,1423.18 1902.31,123.472 
  "/>
<polyline clip-path="url(#clip692)" style="stroke:#000000; stroke-width:2; stroke-opacity:0.1; fill:none" points="
  2208.84,1423.18 2208.84,123.472 
  "/>
<polyline clip-path="url(#clip692)" style="stroke:#000000; stroke-width:2; stroke-opacity:0.1; fill:none" points="
  225.723,1386.4 2352.76,1386.4 
  "/>
<polyline clip-path="url(#clip692)" style="stroke:#000000; stroke-width:2; stroke-opacity:0.1; fill:none" points="
  225.723,1079.86 2352.76,1079.86 
  "/>
<polyline clip-path="url(#clip692)" style="stroke:#000000; stroke-width:2; stroke-opacity:0.1; fill:none" points="
  225.723,773.326 2352.76,773.326 
  "/>
<polyline clip-path="url(#clip692)" style="stroke:#000000; stroke-width:2; stroke-opacity:0.1; fill:none" points="
  225.723,466.791 2352.76,466.791 
  "/>
<polyline clip-path="url(#clip692)" style="stroke:#000000; stroke-width:2; stroke-opacity:0.1; fill:none" points="
  225.723,160.256 2352.76,160.256 
  "/>
<polyline clip-path="url(#clip690)" style="stroke:#000000; stroke-width:4; stroke-opacity:1; fill:none" points="
  225.723,1423.18 2352.76,1423.18 
  "/>
<polyline clip-path="url(#clip690)" style="stroke:#000000; stroke-width:4; stroke-opacity:1; fill:none" points="
  225.723,1423.18 225.723,123.472 
  "/>
<polyline clip-path="url(#clip690)" style="stroke:#000000; stroke-width:4; stroke-opacity:1; fill:none" points="
  369.635,1423.18 369.635,1407.58 
  "/>
<polyline clip-path="url(#clip690)" style="stroke:#000000; stroke-width:4; stroke-opacity:1; fill:none" points="
  676.17,1423.18 676.17,1407.58 
  "/>
<polyline clip-path="url(#clip690)" style="stroke:#000000; stroke-width:4; stroke-opacity:1; fill:none" points="
  982.704,1423.18 982.704,1407.58 
  "/>
<polyline clip-path="url(#clip690)" style="stroke:#000000; stroke-width:4; stroke-opacity:1; fill:none" points="
  1289.24,1423.18 1289.24,1407.58 
  "/>
<polyline clip-path="url(#clip690)" style="stroke:#000000; stroke-width:4; stroke-opacity:1; fill:none" points="
  1595.77,1423.18 1595.77,1407.58 
  "/>
<polyline clip-path="url(#clip690)" style="stroke:#000000; stroke-width:4; stroke-opacity:1; fill:none" points="
  1902.31,1423.18 1902.31,1407.58 
  "/>
<polyline clip-path="url(#clip690)" style="stroke:#000000; stroke-width:4; stroke-opacity:1; fill:none" points="
  2208.84,1423.18 2208.84,1407.58 
  "/>
<polyline clip-path="url(#clip690)" style="stroke:#000000; stroke-width:4; stroke-opacity:1; fill:none" points="
  225.723,1386.4 251.247,1386.4 
  "/>
<polyline clip-path="url(#clip690)" style="stroke:#000000; stroke-width:4; stroke-opacity:1; fill:none" points="
  225.723,1079.86 251.247,1079.86 
  "/>
<polyline clip-path="url(#clip690)" style="stroke:#000000; stroke-width:4; stroke-opacity:1; fill:none" points="
  225.723,773.326 251.247,773.326 
  "/>
<polyline clip-path="url(#clip690)" style="stroke:#000000; stroke-width:4; stroke-opacity:1; fill:none" points="
  225.723,466.791 251.247,466.791 
  "/>
<polyline clip-path="url(#clip690)" style="stroke:#000000; stroke-width:4; stroke-opacity:1; fill:none" points="
  225.723,160.256 251.247,160.256 
  "/>
<path clip-path="url(#clip690)" d="M 0 0 M332.517 1461.77 L344.994 1461.77 L344.994 1465.56 L332.517 1465.56 L332.517 1461.77 Z" fill="#000000" fill-rule="evenodd" fill-opacity="1" /><path clip-path="url(#clip690)" d="M 0 0 M350.873 1472.72 L358.512 1472.72 L358.512 1446.35 L350.202 1448.02 L350.202 1443.76 L358.466 1442.09 L363.142 1442.09 L363.142 1472.72 L370.781 1472.72 L370.781 1476.65 L350.873 1476.65 L350.873 1472.72 Z" fill="#000000" fill-rule="evenodd" fill-opacity="1" /><path clip-path="url(#clip690)" d="M 0 0 M375.85 1470.77 L380.734 1470.77 L380.734 1476.65 L375.85 1476.65 L375.85 1470.77 Z" fill="#000000" fill-rule="evenodd" fill-opacity="1" /><path clip-path="url(#clip690)" d="M 0 0 M385.85 1442.09 L404.206 1442.09 L404.206 1446.03 L390.132 1446.03 L390.132 1454.5 Q391.151 1454.15 392.169 1453.99 Q393.188 1453.8 394.206 1453.8 Q399.993 1453.8 403.373 1456.98 Q406.753 1460.15 406.753 1465.56 Q406.753 1471.14 403.28 1474.24 Q399.808 1477.32 393.489 1477.32 Q391.313 1477.32 389.044 1476.95 Q386.799 1476.58 384.392 1475.84 L384.392 1471.14 Q386.475 1472.28 388.697 1472.83 Q390.919 1473.39 393.396 1473.39 Q397.401 1473.39 399.739 1471.28 Q402.077 1469.18 402.077 1465.56 Q402.077 1461.95 399.739 1459.85 Q397.401 1457.74 393.396 1457.74 Q391.521 1457.74 389.646 1458.16 Q387.794 1458.57 385.85 1459.45 L385.85 1442.09 Z" fill="#000000" fill-rule="evenodd" fill-opacity="1" /><path clip-path="url(#clip690)" d="M 0 0 M638.554 1461.77 L651.031 1461.77 L651.031 1465.56 L638.554 1465.56 L638.554 1461.77 Z" fill="#000000" fill-rule="evenodd" fill-opacity="1" /><path clip-path="url(#clip690)" d="M 0 0 M656.91 1472.72 L664.549 1472.72 L664.549 1446.35 L656.239 1448.02 L656.239 1443.76 L664.503 1442.09 L669.179 1442.09 L669.179 1472.72 L676.818 1472.72 L676.818 1476.65 L656.91 1476.65 L656.91 1472.72 Z" fill="#000000" fill-rule="evenodd" fill-opacity="1" /><path clip-path="url(#clip690)" d="M 0 0 M681.887 1470.77 L686.771 1470.77 L686.771 1476.65 L681.887 1476.65 L681.887 1470.77 Z" fill="#000000" fill-rule="evenodd" fill-opacity="1" /><path clip-path="url(#clip690)" d="M 0 0 M701.841 1445.17 Q698.23 1445.17 696.401 1448.74 Q694.595 1452.28 694.595 1459.41 Q694.595 1466.51 696.401 1470.08 Q698.23 1473.62 701.841 1473.62 Q705.475 1473.62 707.281 1470.08 Q709.109 1466.51 709.109 1459.41 Q709.109 1452.28 707.281 1448.74 Q705.475 1445.17 701.841 1445.17 M701.841 1441.47 Q707.651 1441.47 710.706 1446.07 Q713.785 1450.66 713.785 1459.41 Q713.785 1468.13 710.706 1472.74 Q707.651 1477.32 701.841 1477.32 Q696.031 1477.32 692.952 1472.74 Q689.896 1468.13 689.896 1459.41 Q689.896 1450.66 692.952 1446.07 Q696.031 1441.47 701.841 1441.47 Z" fill="#000000" fill-rule="evenodd" fill-opacity="1" /><path clip-path="url(#clip690)" d="M 0 0 M944.973 1461.77 L957.45 1461.77 L957.45 1465.56 L944.973 1465.56 L944.973 1461.77 Z" fill="#000000" fill-rule="evenodd" fill-opacity="1" /><path clip-path="url(#clip690)" d="M 0 0 M972.519 1445.17 Q968.908 1445.17 967.08 1448.74 Q965.274 1452.28 965.274 1459.41 Q965.274 1466.51 967.08 1470.08 Q968.908 1473.62 972.519 1473.62 Q976.154 1473.62 977.959 1470.08 Q979.788 1466.51 979.788 1459.41 Q979.788 1452.28 977.959 1448.74 Q976.154 1445.17 972.519 1445.17 M972.519 1441.47 Q978.329 1441.47 981.385 1446.07 Q984.464 1450.66 984.464 1459.41 Q984.464 1468.13 981.385 1472.74 Q978.329 1477.32 972.519 1477.32 Q966.709 1477.32 963.631 1472.74 Q960.575 1468.13 960.575 1459.41 Q960.575 1450.66 963.631 1446.07 Q966.709 1441.47 972.519 1441.47 Z" fill="#000000" fill-rule="evenodd" fill-opacity="1" /><path clip-path="url(#clip690)" d="M 0 0 M989.533 1470.77 L994.417 1470.77 L994.417 1476.65 L989.533 1476.65 L989.533 1470.77 Z" fill="#000000" fill-rule="evenodd" fill-opacity="1" /><path clip-path="url(#clip690)" d="M 0 0 M999.533 1442.09 L1017.89 1442.09 L1017.89 1446.03 L1003.82 1446.03 L1003.82 1454.5 Q1004.83 1454.15 1005.85 1453.99 Q1006.87 1453.8 1007.89 1453.8 Q1013.68 1453.8 1017.06 1456.98 Q1020.44 1460.15 1020.44 1465.56 Q1020.44 1471.14 1016.96 1474.24 Q1013.49 1477.32 1007.17 1477.32 Q1005 1477.32 1002.73 1476.95 Q1000.48 1476.58 998.075 1475.84 L998.075 1471.14 Q1000.16 1472.28 1002.38 1472.83 Q1004.6 1473.39 1007.08 1473.39 Q1011.08 1473.39 1013.42 1471.28 Q1015.76 1469.18 1015.76 1465.56 Q1015.76 1461.95 1013.42 1459.85 Q1011.08 1457.74 1007.08 1457.74 Q1005.2 1457.74 1003.33 1458.16 Q1001.48 1458.57 999.533 1459.45 L999.533 1442.09 Z" fill="#000000" fill-rule="evenodd" fill-opacity="1" /><path clip-path="url(#clip690)" d="M 0 0 M1270.76 1445.17 Q1267.14 1445.17 1265.32 1448.74 Q1263.51 1452.28 1263.51 1459.41 Q1263.51 1466.51 1265.32 1470.08 Q1267.14 1473.62 1270.76 1473.62 Q1274.39 1473.62 1276.2 1470.08 Q1278.02 1466.51 1278.02 1459.41 Q1278.02 1452.28 1276.2 1448.74 Q1274.39 1445.17 1270.76 1445.17 M1270.76 1441.47 Q1276.57 1441.47 1279.62 1446.07 Q1282.7 1450.66 1282.7 1459.41 Q1282.7 1468.13 1279.62 1472.74 Q1276.57 1477.32 1270.76 1477.32 Q1264.95 1477.32 1261.87 1472.74 Q1258.81 1468.13 1258.81 1459.41 Q1258.81 1450.66 1261.87 1446.07 Q1264.95 1441.47 1270.76 1441.47 Z" fill="#000000" fill-rule="evenodd" fill-opacity="1" /><path clip-path="url(#clip690)" d="M 0 0 M1287.77 1470.77 L1292.65 1470.77 L1292.65 1476.65 L1287.77 1476.65 L1287.77 1470.77 Z" fill="#000000" fill-rule="evenodd" fill-opacity="1" /><path clip-path="url(#clip690)" d="M 0 0 M1307.72 1445.17 Q1304.11 1445.17 1302.28 1448.74 Q1300.48 1452.28 1300.48 1459.41 Q1300.48 1466.51 1302.28 1470.08 Q1304.11 1473.62 1307.72 1473.62 Q1311.36 1473.62 1313.16 1470.08 Q1314.99 1466.51 1314.99 1459.41 Q1314.99 1452.28 1313.16 1448.74 Q1311.36 1445.17 1307.72 1445.17 M1307.72 1441.47 Q1313.53 1441.47 1316.59 1446.07 Q1319.67 1450.66 1319.67 1459.41 Q1319.67 1468.13 1316.59 1472.74 Q1313.53 1477.32 1307.72 1477.32 Q1301.91 1477.32 1298.83 1472.74 Q1295.78 1468.13 1295.78 1459.41 Q1295.78 1450.66 1298.83 1446.07 Q1301.91 1441.47 1307.72 1441.47 Z" fill="#000000" fill-rule="evenodd" fill-opacity="1" /><path clip-path="url(#clip690)" d="M 0 0 M1577.79 1445.17 Q1574.18 1445.17 1572.35 1448.74 Q1570.54 1452.28 1570.54 1459.41 Q1570.54 1466.51 1572.35 1470.08 Q1574.18 1473.62 1577.79 1473.62 Q1581.42 1473.62 1583.23 1470.08 Q1585.06 1466.51 1585.06 1459.41 Q1585.06 1452.28 1583.23 1448.74 Q1581.42 1445.17 1577.79 1445.17 M1577.79 1441.47 Q1583.6 1441.47 1586.65 1446.07 Q1589.73 1450.66 1589.73 1459.41 Q1589.73 1468.13 1586.65 1472.74 Q1583.6 1477.32 1577.79 1477.32 Q1571.98 1477.32 1568.9 1472.74 Q1565.84 1468.13 1565.84 1459.41 Q1565.84 1450.66 1568.9 1446.07 Q1571.98 1441.47 1577.79 1441.47 Z" fill="#000000" fill-rule="evenodd" fill-opacity="1" /><path clip-path="url(#clip690)" d="M 0 0 M1594.8 1470.77 L1599.69 1470.77 L1599.69 1476.65 L1594.8 1476.65 L1594.8 1470.77 Z" fill="#000000" fill-rule="evenodd" fill-opacity="1" /><path clip-path="url(#clip690)" d="M 0 0 M1604.8 1442.09 L1623.16 1442.09 L1623.16 1446.03 L1609.08 1446.03 L1609.08 1454.5 Q1610.1 1454.15 1611.12 1453.99 Q1612.14 1453.8 1613.16 1453.8 Q1618.95 1453.8 1622.32 1456.98 Q1625.7 1460.15 1625.7 1465.56 Q1625.7 1471.14 1622.23 1474.24 Q1618.76 1477.32 1612.44 1477.32 Q1610.26 1477.32 1608 1476.95 Q1605.75 1476.58 1603.34 1475.84 L1603.34 1471.14 Q1605.43 1472.28 1607.65 1472.83 Q1609.87 1473.39 1612.35 1473.39 Q1616.35 1473.39 1618.69 1471.28 Q1621.03 1469.18 1621.03 1465.56 Q1621.03 1461.95 1618.69 1459.85 Q1616.35 1457.74 1612.35 1457.74 Q1610.47 1457.74 1608.6 1458.16 Q1606.75 1458.57 1604.8 1459.45 L1604.8 1442.09 Z" fill="#000000" fill-rule="evenodd" fill-opacity="1" /><path clip-path="url(#clip690)" d="M 0 0 M1874.21 1472.72 L1881.85 1472.72 L1881.85 1446.35 L1873.54 1448.02 L1873.54 1443.76 L1881.8 1442.09 L1886.48 1442.09 L1886.48 1472.72 L1894.11 1472.72 L1894.11 1476.65 L1874.21 1476.65 L1874.21 1472.72 Z" fill="#000000" fill-rule="evenodd" fill-opacity="1" /><path clip-path="url(#clip690)" d="M 0 0 M1899.18 1470.77 L1904.07 1470.77 L1904.07 1476.65 L1899.18 1476.65 L1899.18 1470.77 Z" fill="#000000" fill-rule="evenodd" fill-opacity="1" /><path clip-path="url(#clip690)" d="M 0 0 M1919.14 1445.17 Q1915.53 1445.17 1913.7 1448.74 Q1911.89 1452.28 1911.89 1459.41 Q1911.89 1466.51 1913.7 1470.08 Q1915.53 1473.62 1919.14 1473.62 Q1922.77 1473.62 1924.58 1470.08 Q1926.41 1466.51 1926.41 1459.41 Q1926.41 1452.28 1924.58 1448.74 Q1922.77 1445.17 1919.14 1445.17 M1919.14 1441.47 Q1924.95 1441.47 1928 1446.07 Q1931.08 1450.66 1931.08 1459.41 Q1931.08 1468.13 1928 1472.74 Q1924.95 1477.32 1919.14 1477.32 Q1913.33 1477.32 1910.25 1472.74 Q1907.19 1468.13 1907.19 1459.41 Q1907.19 1450.66 1910.25 1446.07 Q1913.33 1441.47 1919.14 1441.47 Z" fill="#000000" fill-rule="evenodd" fill-opacity="1" /><path clip-path="url(#clip690)" d="M 0 0 M2181.24 1472.72 L2188.88 1472.72 L2188.88 1446.35 L2180.57 1448.02 L2180.57 1443.76 L2188.83 1442.09 L2193.51 1442.09 L2193.51 1472.72 L2201.15 1472.72 L2201.15 1476.65 L2181.24 1476.65 L2181.24 1472.72 Z" fill="#000000" fill-rule="evenodd" fill-opacity="1" /><path clip-path="url(#clip690)" d="M 0 0 M2206.22 1470.77 L2211.1 1470.77 L2211.1 1476.65 L2206.22 1476.65 L2206.22 1470.77 Z" fill="#000000" fill-rule="evenodd" fill-opacity="1" /><path clip-path="url(#clip690)" d="M 0 0 M2216.22 1442.09 L2234.57 1442.09 L2234.57 1446.03 L2220.5 1446.03 L2220.5 1454.5 Q2221.52 1454.15 2222.54 1453.99 Q2223.55 1453.8 2224.57 1453.8 Q2230.36 1453.8 2233.74 1456.98 Q2237.12 1460.15 2237.12 1465.56 Q2237.12 1471.14 2233.65 1474.24 Q2230.17 1477.32 2223.86 1477.32 Q2221.68 1477.32 2219.41 1476.95 Q2217.17 1476.58 2214.76 1475.84 L2214.76 1471.14 Q2216.84 1472.28 2219.06 1472.83 Q2221.29 1473.39 2223.76 1473.39 Q2227.77 1473.39 2230.11 1471.28 Q2232.44 1469.18 2232.44 1465.56 Q2232.44 1461.95 2230.11 1459.85 Q2227.77 1457.74 2223.76 1457.74 Q2221.89 1457.74 2220.01 1458.16 Q2218.16 1458.57 2216.22 1459.45 L2216.22 1442.09 Z" fill="#000000" fill-rule="evenodd" fill-opacity="1" /><path clip-path="url(#clip690)" d="M 0 0 M126.492 1388.79 L138.968 1388.79 L138.968 1392.59 L126.492 1392.59 L126.492 1388.79 Z" fill="#000000" fill-rule="evenodd" fill-opacity="1" /><path clip-path="url(#clip690)" d="M 0 0 M144.848 1399.74 L152.487 1399.74 L152.487 1373.37 L144.177 1375.04 L144.177 1370.78 L152.441 1369.12 L157.116 1369.12 L157.116 1399.74 L164.755 1399.74 L164.755 1403.68 L144.848 1403.68 L144.848 1399.74 Z" fill="#000000" fill-rule="evenodd" fill-opacity="1" /><path clip-path="url(#clip690)" d="M 0 0 M169.825 1397.8 L174.709 1397.8 L174.709 1403.68 L169.825 1403.68 L169.825 1397.8 Z" fill="#000000" fill-rule="evenodd" fill-opacity="1" /><path clip-path="url(#clip690)" d="M 0 0 M189.778 1372.19 Q186.167 1372.19 184.339 1375.76 Q182.533 1379.3 182.533 1386.43 Q182.533 1393.54 184.339 1397.1 Q186.167 1400.64 189.778 1400.64 Q193.413 1400.64 195.218 1397.1 Q197.047 1393.54 197.047 1386.43 Q197.047 1379.3 195.218 1375.76 Q193.413 1372.19 189.778 1372.19 M189.778 1368.49 Q195.588 1368.49 198.644 1373.1 Q201.723 1377.68 201.723 1386.43 Q201.723 1395.16 198.644 1399.76 Q195.588 1404.35 189.778 1404.35 Q183.968 1404.35 180.889 1399.76 Q177.834 1395.16 177.834 1386.43 Q177.834 1377.68 180.889 1373.1 Q183.968 1368.49 189.778 1368.49 Z" fill="#000000" fill-rule="evenodd" fill-opacity="1" /><path clip-path="url(#clip690)" d="M 0 0 M126.26 1082.26 L138.737 1082.26 L138.737 1086.05 L126.26 1086.05 L126.26 1082.26 Z" fill="#000000" fill-rule="evenodd" fill-opacity="1" /><path clip-path="url(#clip690)" d="M 0 0 M153.806 1065.66 Q150.195 1065.66 148.367 1069.22 Q146.561 1072.77 146.561 1079.9 Q146.561 1087 148.367 1090.57 Q150.195 1094.11 153.806 1094.11 Q157.441 1094.11 159.246 1090.57 Q161.075 1087 161.075 1079.9 Q161.075 1072.77 159.246 1069.22 Q157.441 1065.66 153.806 1065.66 M153.806 1061.96 Q159.616 1061.96 162.672 1066.56 Q165.751 1071.15 165.751 1079.9 Q165.751 1088.62 162.672 1093.23 Q159.616 1097.81 153.806 1097.81 Q147.996 1097.81 144.917 1093.23 Q141.862 1088.62 141.862 1079.9 Q141.862 1071.15 144.917 1066.56 Q147.996 1061.96 153.806 1061.96 Z" fill="#000000" fill-rule="evenodd" fill-opacity="1" /><path clip-path="url(#clip690)" d="M 0 0 M170.82 1091.26 L175.704 1091.26 L175.704 1097.14 L170.82 1097.14 L170.82 1091.26 Z" fill="#000000" fill-rule="evenodd" fill-opacity="1" /><path clip-path="url(#clip690)" d="M 0 0 M180.82 1062.58 L199.176 1062.58 L199.176 1066.52 L185.102 1066.52 L185.102 1074.99 Q186.121 1074.64 187.139 1074.48 Q188.158 1074.29 189.176 1074.29 Q194.963 1074.29 198.343 1077.47 Q201.723 1080.64 201.723 1086.05 Q201.723 1091.63 198.251 1094.73 Q194.778 1097.81 188.459 1097.81 Q186.283 1097.81 184.014 1097.44 Q181.769 1097.07 179.362 1096.33 L179.362 1091.63 Q181.445 1092.77 183.667 1093.32 Q185.889 1093.88 188.366 1093.88 Q192.371 1093.88 194.709 1091.77 Q197.047 1089.66 197.047 1086.05 Q197.047 1082.44 194.709 1080.34 Q192.371 1078.23 188.366 1078.23 Q186.491 1078.23 184.616 1078.65 Q182.764 1079.06 180.82 1079.94 L180.82 1062.58 Z" fill="#000000" fill-rule="evenodd" fill-opacity="1" /><path clip-path="url(#clip690)" d="M 0 0 M152.811 759.125 Q149.2 759.125 147.371 762.689 Q145.566 766.231 145.566 773.361 Q145.566 780.467 147.371 784.032 Q149.2 787.574 152.811 787.574 Q156.445 787.574 158.251 784.032 Q160.079 780.467 160.079 773.361 Q160.079 766.231 158.251 762.689 Q156.445 759.125 152.811 759.125 M152.811 755.421 Q158.621 755.421 161.677 760.027 Q164.755 764.611 164.755 773.361 Q164.755 782.088 161.677 786.694 Q158.621 791.277 152.811 791.277 Q147.001 791.277 143.922 786.694 Q140.867 782.088 140.867 773.361 Q140.867 764.611 143.922 760.027 Q147.001 755.421 152.811 755.421 Z" fill="#000000" fill-rule="evenodd" fill-opacity="1" /><path clip-path="url(#clip690)" d="M 0 0 M169.825 784.726 L174.709 784.726 L174.709 790.606 L169.825 790.606 L169.825 784.726 Z" fill="#000000" fill-rule="evenodd" fill-opacity="1" /><path clip-path="url(#clip690)" d="M 0 0 M189.778 759.125 Q186.167 759.125 184.339 762.689 Q182.533 766.231 182.533 773.361 Q182.533 780.467 184.339 784.032 Q186.167 787.574 189.778 787.574 Q193.413 787.574 195.218 784.032 Q197.047 780.467 197.047 773.361 Q197.047 766.231 195.218 762.689 Q193.413 759.125 189.778 759.125 M189.778 755.421 Q195.588 755.421 198.644 760.027 Q201.723 764.611 201.723 773.361 Q201.723 782.088 198.644 786.694 Q195.588 791.277 189.778 791.277 Q183.968 791.277 180.889 786.694 Q177.834 782.088 177.834 773.361 Q177.834 764.611 180.889 760.027 Q183.968 755.421 189.778 755.421 Z" fill="#000000" fill-rule="evenodd" fill-opacity="1" /><path clip-path="url(#clip690)" d="M 0 0 M153.806 452.59 Q150.195 452.59 148.367 456.155 Q146.561 459.696 146.561 466.826 Q146.561 473.932 148.367 477.497 Q150.195 481.039 153.806 481.039 Q157.441 481.039 159.246 477.497 Q161.075 473.932 161.075 466.826 Q161.075 459.696 159.246 456.155 Q157.441 452.59 153.806 452.59 M153.806 448.886 Q159.616 448.886 162.672 453.493 Q165.751 458.076 165.751 466.826 Q165.751 475.553 162.672 480.159 Q159.616 484.742 153.806 484.742 Q147.996 484.742 144.917 480.159 Q141.862 475.553 141.862 466.826 Q141.862 458.076 144.917 453.493 Q147.996 448.886 153.806 448.886 Z" fill="#000000" fill-rule="evenodd" fill-opacity="1" /><path clip-path="url(#clip690)" d="M 0 0 M170.82 478.192 L175.704 478.192 L175.704 484.071 L170.82 484.071 L170.82 478.192 Z" fill="#000000" fill-rule="evenodd" fill-opacity="1" /><path clip-path="url(#clip690)" d="M 0 0 M180.82 449.511 L199.176 449.511 L199.176 453.446 L185.102 453.446 L185.102 461.918 Q186.121 461.571 187.139 461.409 Q188.158 461.224 189.176 461.224 Q194.963 461.224 198.343 464.395 Q201.723 467.567 201.723 472.983 Q201.723 478.562 198.251 481.664 Q194.778 484.742 188.459 484.742 Q186.283 484.742 184.014 484.372 Q181.769 484.002 179.362 483.261 L179.362 478.562 Q181.445 479.696 183.667 480.252 Q185.889 480.807 188.366 480.807 Q192.371 480.807 194.709 478.701 Q197.047 476.594 197.047 472.983 Q197.047 469.372 194.709 467.266 Q192.371 465.159 188.366 465.159 Q186.491 465.159 184.616 465.576 Q182.764 465.993 180.82 466.872 L180.82 449.511 Z" fill="#000000" fill-rule="evenodd" fill-opacity="1" /><path clip-path="url(#clip690)" d="M 0 0 M144.848 173.601 L152.487 173.601 L152.487 147.236 L144.177 148.902 L144.177 144.643 L152.441 142.976 L157.116 142.976 L157.116 173.601 L164.755 173.601 L164.755 177.536 L144.848 177.536 L144.848 173.601 Z" fill="#000000" fill-rule="evenodd" fill-opacity="1" /><path clip-path="url(#clip690)" d="M 0 0 M169.825 171.657 L174.709 171.657 L174.709 177.536 L169.825 177.536 L169.825 171.657 Z" fill="#000000" fill-rule="evenodd" fill-opacity="1" /><path clip-path="url(#clip690)" d="M 0 0 M189.778 146.055 Q186.167 146.055 184.339 149.62 Q182.533 153.161 182.533 160.291 Q182.533 167.397 184.339 170.962 Q186.167 174.504 189.778 174.504 Q193.413 174.504 195.218 170.962 Q197.047 167.397 197.047 160.291 Q197.047 153.161 195.218 149.62 Q193.413 146.055 189.778 146.055 M189.778 142.351 Q195.588 142.351 198.644 146.958 Q201.723 151.541 201.723 160.291 Q201.723 169.018 198.644 173.624 Q195.588 178.208 189.778 178.208 Q183.968 178.208 180.889 173.624 Q177.834 169.018 177.834 160.291 Q177.834 151.541 180.889 146.958 Q183.968 142.351 189.778 142.351 Z" fill="#000000" fill-rule="evenodd" fill-opacity="1" /><path clip-path="url(#clip690)" d="M 0 0 M996.926 12.096 L1005.11 12.096 L1005.11 36.8875 L1034.84 36.8875 L1034.84 12.096 L1043.03 12.096 L1043.03 72.576 L1034.84 72.576 L1034.84 43.7741 L1005.11 43.7741 L1005.11 72.576 L996.926 72.576 L996.926 12.096 Z" fill="#000000" fill-rule="evenodd" fill-opacity="1" /><path clip-path="url(#clip690)" d="M 0 0 M1087.42 14.0809 L1087.42 22.0612 Q1082.76 19.8332 1078.63 18.7395 Q1074.5 17.6457 1070.65 17.6457 Q1063.97 17.6457 1060.32 20.2383 Q1056.72 22.8309 1056.72 27.611 Q1056.72 31.6214 1059.11 33.6873 Q1061.54 35.7128 1068.26 36.9686 L1073.2 37.9813 Q1082.36 39.7232 1086.69 44.1387 Q1091.07 48.5136 1091.07 55.8863 Q1091.07 64.6767 1085.15 69.2137 Q1079.28 73.7508 1067.9 73.7508 Q1063.6 73.7508 1058.74 72.7785 Q1053.92 71.8063 1048.74 69.9024 L1048.74 61.4765 Q1053.72 64.2716 1058.5 65.6895 Q1063.28 67.1073 1067.9 67.1073 Q1074.91 67.1073 1078.71 64.3527 Q1082.52 61.598 1082.52 56.4939 Q1082.52 52.0379 1079.77 49.5264 Q1077.05 47.0148 1070.81 45.759 L1065.83 44.7868 Q1056.68 42.9639 1052.59 39.075 Q1048.49 35.1862 1048.49 28.2591 Q1048.49 20.2383 1054.12 15.6203 Q1059.8 11.0023 1069.72 11.0023 Q1073.97 11.0023 1078.39 11.7719 Q1082.81 12.5416 1087.42 14.0809 Z" fill="#000000" fill-rule="evenodd" fill-opacity="1" /><path clip-path="url(#clip690)" d="M 0 0 M1099.21 12.096 L1107.39 12.096 L1107.39 65.6895 L1136.84 65.6895 L1136.84 72.576 L1099.21 72.576 L1099.21 12.096 Z" fill="#000000" fill-rule="evenodd" fill-opacity="1" /><path clip-path="url(#clip690)" d="M 0 0 M1179.14 86.3491 L1179.14 92.1419 L1136.03 92.1419 L1136.03 86.3491 L1179.14 86.3491 Z" fill="#000000" fill-rule="evenodd" fill-opacity="1" /><path clip-path="url(#clip690)" d="M 0 0 M1189.43 65.6895 L1202.79 65.6895 L1202.79 19.5497 L1188.25 22.4663 L1188.25 15.0127 L1202.71 12.096 L1210.89 12.096 L1210.89 65.6895 L1224.26 65.6895 L1224.26 72.576 L1189.43 72.576 L1189.43 65.6895 Z" fill="#000000" fill-rule="evenodd" fill-opacity="1" /><path clip-path="url(#clip690)" d="M 0 0 M1240.18 65.6895 L1268.74 65.6895 L1268.74 72.576 L1230.34 72.576 L1230.34 65.6895 Q1235 60.8689 1243.02 52.7671 Q1251.08 44.6248 1253.15 42.2752 Q1257.08 37.8598 1258.61 34.8216 Q1260.19 31.7429 1260.19 28.7857 Q1260.19 23.9651 1256.79 20.927 Q1253.43 17.8888 1248 17.8888 Q1244.15 17.8888 1239.86 19.2256 Q1235.61 20.5624 1230.74 23.2765 L1230.74 15.0127 Q1235.69 13.0277 1239.98 12.015 Q1244.27 11.0023 1247.84 11.0023 Q1257.24 11.0023 1262.83 15.7013 Q1268.42 20.4004 1268.42 28.2591 Q1268.42 31.9859 1267 35.3482 Q1265.62 38.6699 1261.94 43.2069 Q1260.92 44.3817 1255.5 50.0125 Q1250.07 55.6027 1240.18 65.6895 Z" fill="#000000" fill-rule="evenodd" fill-opacity="1" /><path clip-path="url(#clip690)" d="M 0 0 M1276.88 12.096 L1285.07 12.096 L1285.07 36.8875 L1314.8 36.8875 L1314.8 12.096 L1322.98 12.096 L1322.98 72.576 L1314.8 72.576 L1314.8 43.7741 L1285.07 43.7741 L1285.07 72.576 L1276.88 72.576 L1276.88 12.096 Z" fill="#000000" fill-rule="evenodd" fill-opacity="1" /><path clip-path="url(#clip690)" d="M 0 0 M1330.03 54.671 L1330.03 27.2059 L1337.49 27.2059 L1337.49 54.3874 Q1337.49 60.8284 1340 64.0691 Q1342.51 67.2693 1347.53 67.2693 Q1353.57 67.2693 1357.05 63.421 Q1360.58 59.5726 1360.58 52.9291 L1360.58 27.2059 L1368.03 27.2059 L1368.03 72.576 L1360.58 72.576 L1360.58 65.6084 Q1357.86 69.7404 1354.26 71.7658 Q1350.69 73.7508 1345.95 73.7508 Q1338.13 73.7508 1334.08 68.8897 Q1330.03 64.0286 1330.03 54.671 M1348.79 26.1121 L1348.79 26.1121 Z" fill="#000000" fill-rule="evenodd" fill-opacity="1" /><path clip-path="url(#clip690)" d="M 0 0 M1414.66 48.0275 L1414.66 51.6733 L1380.38 51.6733 Q1380.87 59.3701 1385 63.421 Q1389.18 67.4314 1396.59 67.4314 Q1400.88 67.4314 1404.89 66.3781 Q1408.94 65.3249 1412.91 63.2184 L1412.91 70.267 Q1408.9 71.9684 1404.69 72.8596 Q1400.48 73.7508 1396.14 73.7508 Q1385.29 73.7508 1378.93 67.4314 Q1372.61 61.1119 1372.61 50.3365 Q1372.61 39.1965 1378.6 32.6746 Q1384.64 26.1121 1394.85 26.1121 Q1404 26.1121 1409.31 32.0264 Q1414.66 37.9003 1414.66 48.0275 M1407.2 45.84 Q1407.12 39.7232 1403.76 36.0774 Q1400.44 32.4315 1394.93 32.4315 Q1388.69 32.4315 1384.92 35.9558 Q1381.19 39.4801 1380.63 45.8805 L1407.2 45.84 Z" fill="#000000" fill-rule="evenodd" fill-opacity="1" /><path clip-path="url(#clip690)" d="M 0 0 M1456.95 86.3491 L1456.95 92.1419 L1413.85 92.1419 L1413.85 86.3491 L1456.95 86.3491 Z" fill="#000000" fill-rule="evenodd" fill-opacity="1" /><path clip-path="url(#clip690)" d="M 0 0 M1456.78 12.096 L1465.58 12.096 L1482.35 36.9686 L1499 12.096 L1507.79 12.096 L1486.4 43.7741 L1486.4 72.576 L1478.17 72.576 L1478.17 43.7741 L1456.78 12.096 Z" fill="#000000" fill-rule="evenodd" fill-opacity="1" /><path clip-path="url(#clip690)" d="M 0 0 M1550.93 35.9153 Q1553.72 30.8922 1557.61 28.5022 Q1561.5 26.1121 1566.77 26.1121 Q1573.86 26.1121 1577.7 31.0947 Q1581.55 36.0368 1581.55 45.1919 L1581.55 72.576 L1574.06 72.576 L1574.06 45.4349 Q1574.06 38.913 1571.75 35.7533 Q1569.44 32.5936 1564.7 32.5936 Q1558.91 32.5936 1555.55 36.4419 Q1552.18 40.2903 1552.18 46.9338 L1552.18 72.576 L1544.69 72.576 L1544.69 45.4349 Q1544.69 38.8725 1542.38 35.7533 Q1540.07 32.5936 1535.25 32.5936 Q1529.54 32.5936 1526.18 36.4824 Q1522.81 40.3308 1522.81 46.9338 L1522.81 72.576 L1515.32 72.576 L1515.32 27.2059 L1522.81 27.2059 L1522.81 34.2544 Q1525.37 30.082 1528.93 28.0971 Q1532.5 26.1121 1537.4 26.1121 Q1542.34 26.1121 1545.78 28.6237 Q1549.27 31.1352 1550.93 35.9153 Z" fill="#000000" fill-rule="evenodd" fill-opacity="1" /><path clip-path="url(#clip690)" d="M 0 0 M1303.1 1510.08 L1303.1 1516.35 Q1299.44 1514.6 1296.19 1513.74 Q1292.95 1512.88 1289.92 1512.88 Q1284.67 1512.88 1281.81 1514.92 Q1278.97 1516.96 1278.97 1520.71 Q1278.97 1523.87 1280.85 1525.49 Q1282.76 1527.08 1288.05 1528.07 L1291.93 1528.86 Q1299.12 1530.23 1302.53 1533.7 Q1305.97 1537.14 1305.97 1542.93 Q1305.97 1549.84 1301.32 1553.4 Q1296.7 1556.97 1287.76 1556.97 Q1284.39 1556.97 1280.57 1556.2 Q1276.78 1555.44 1272.7 1553.94 L1272.7 1547.32 Q1276.62 1549.52 1280.38 1550.63 Q1284.13 1551.75 1287.76 1551.75 Q1293.27 1551.75 1296.26 1549.58 Q1299.25 1547.42 1299.25 1543.41 Q1299.25 1539.91 1297.09 1537.93 Q1294.95 1535.96 1290.05 1534.97 L1286.14 1534.21 Q1278.94 1532.78 1275.73 1529.72 Q1272.51 1526.67 1272.51 1521.22 Q1272.51 1514.92 1276.94 1511.29 Q1281.39 1507.66 1289.19 1507.66 Q1292.53 1507.66 1296 1508.27 Q1299.47 1508.87 1303.1 1510.08 Z" fill="#000000" fill-rule="evenodd" fill-opacity="1" /><path clip-path="url(#clip690)" d="M 0 0 M42.0438 759.465 L48.314 759.465 Q46.5634 763.125 45.704 766.371 Q44.8447 769.618 44.8447 772.642 Q44.8447 777.893 46.8817 780.758 Q48.9187 783.591 52.6745 783.591 Q55.8255 783.591 57.4488 781.713 Q59.0402 779.803 60.0269 774.52 L60.8226 770.636 Q62.1912 763.443 65.6605 760.038 Q69.098 756.6 74.8908 756.6 Q81.7976 756.6 85.3624 761.247 Q88.9272 765.862 88.9272 774.806 Q88.9272 778.18 88.1633 781.999 Q87.3994 785.787 85.9035 789.861 L79.2831 789.861 Q81.4793 785.946 82.5933 782.19 Q83.7073 778.434 83.7073 774.806 Q83.7073 769.3 81.543 766.308 Q79.3786 763.316 75.3682 763.316 Q71.8671 763.316 69.8937 765.48 Q67.9204 767.613 66.9337 772.514 L66.1698 776.429 Q64.7375 783.623 61.682 786.837 Q58.6264 790.052 53.1837 790.052 Q46.8817 790.052 43.2532 785.628 Q39.6248 781.172 39.6248 773.374 Q39.6248 770.032 40.2295 766.562 Q40.8343 763.093 42.0438 759.465 Z" fill="#000000" fill-rule="evenodd" fill-opacity="1" /><polyline clip-path="url(#clip692)" style="stroke:#7f7f7f; stroke-width:4; stroke-opacity:0.5; fill:none" points="
  1289.24,773.326 1902.31,773.326 
  "/>
<polyline clip-path="url(#clip692)" style="stroke:#7f7f7f; stroke-width:4; stroke-opacity:0.5; fill:none" points="
  1289.24,773.326 1820.17,466.791 
  "/>
<polyline clip-path="url(#clip692)" style="stroke:#7f7f7f; stroke-width:4; stroke-opacity:0.5; fill:none" points="
  1289.24,773.326 1595.77,242.392 
  "/>
<polyline clip-path="url(#clip692)" style="stroke:#7f7f7f; stroke-width:4; stroke-opacity:0.5; fill:none" points="
  1289.24,773.326 1289.24,160.256 
  "/>
<polyline clip-path="url(#clip692)" style="stroke:#7f7f7f; stroke-width:4; stroke-opacity:0.5; fill:none" points="
  1289.24,773.326 982.704,242.392 
  "/>
<polyline clip-path="url(#clip692)" style="stroke:#7f7f7f; stroke-width:4; stroke-opacity:0.5; fill:none" points="
  1289.24,773.326 758.305,466.791 
  "/>
<polyline clip-path="url(#clip692)" style="stroke:#7f7f7f; stroke-width:4; stroke-opacity:0.5; fill:none" points="
  1289.24,773.326 676.17,773.326 
  "/>
<polyline clip-path="url(#clip692)" style="stroke:#7f7f7f; stroke-width:4; stroke-opacity:0.5; fill:none" points="
  1289.24,773.326 758.305,1079.86 
  "/>
<polyline clip-path="url(#clip692)" style="stroke:#7f7f7f; stroke-width:4; stroke-opacity:0.5; fill:none" points="
  1289.24,773.326 982.704,1304.26 
  "/>
<polyline clip-path="url(#clip692)" style="stroke:#7f7f7f; stroke-width:4; stroke-opacity:0.5; fill:none" points="
  1289.24,773.326 1289.24,1386.4 
  "/>
<polyline clip-path="url(#clip692)" style="stroke:#7f7f7f; stroke-width:4; stroke-opacity:0.5; fill:none" points="
  1289.24,773.326 1595.77,1304.26 
  "/>
<polyline clip-path="url(#clip692)" style="stroke:#7f7f7f; stroke-width:4; stroke-opacity:0.5; fill:none" points="
  1289.24,773.326 1820.17,1079.86 
  "/>
<polyline clip-path="url(#clip692)" style="stroke:#560101; stroke-width:6; stroke-opacity:1; fill:none" points="
  1902.31,773.326 1820.17,466.791 
  "/>
<polyline clip-path="url(#clip692)" style="stroke:#320c01; stroke-width:6; stroke-opacity:1; fill:none" points="
  1820.17,466.791 1595.77,242.392 
  "/>
<polyline clip-path="url(#clip692)" style="stroke:#111501; stroke-width:6; stroke-opacity:1; fill:none" points="
  1595.77,242.392 1289.24,160.256 
  "/>
<polyline clip-path="url(#clip692)" style="stroke:#011a01; stroke-width:6; stroke-opacity:1; fill:none" points="
  1289.24,160.256 982.704,242.392 
  "/>
<polyline clip-path="url(#clip692)" style="stroke:#001c01; stroke-width:6; stroke-opacity:1; fill:none" points="
  982.704,242.392 758.305,466.791 
  "/>
<polyline clip-path="url(#clip692)" style="stroke:#001b07; stroke-width:6; stroke-opacity:1; fill:none" points="
  758.305,466.791 676.17,773.326 
  "/>
<polyline clip-path="url(#clip692)" style="stroke:#001819; stroke-width:6; stroke-opacity:1; fill:none" points="
  676.17,773.326 758.305,1079.86 
  "/>
<polyline clip-path="url(#clip692)" style="stroke:#010c59; stroke-width:6; stroke-opacity:1; fill:none" points="
  758.305,1079.86 982.704,1304.26 
  "/>
<polyline clip-path="url(#clip692)" style="stroke:#1000df; stroke-width:6; stroke-opacity:1; fill:none" points="
  982.704,1304.26 1289.24,1386.4 
  "/>
<polyline clip-path="url(#clip692)" style="stroke:#28008b; stroke-width:6; stroke-opacity:1; fill:none" points="
  1289.24,1386.4 1595.77,1304.26 
  "/>
<polyline clip-path="url(#clip692)" style="stroke:#460040; stroke-width:6; stroke-opacity:1; fill:none" points="
  1595.77,1304.26 1820.17,1079.86 
  "/>
<circle clip-path="url(#clip692)" cx="1902.31" cy="773.326" r="32" fill="#560101" fill-rule="evenodd" fill-opacity="1" stroke="#000000" stroke-opacity="1" stroke-width="0"/>
<circle clip-path="url(#clip692)" cx="1820.17" cy="466.791" r="32" fill="#560101" fill-rule="evenodd" fill-opacity="1" stroke="#000000" stroke-opacity="1" stroke-width="0"/>
<circle clip-path="url(#clip692)" cx="1820.17" cy="466.791" r="32" fill="#320c01" fill-rule="evenodd" fill-opacity="1" stroke="#000000" stroke-opacity="1" stroke-width="0"/>
<circle clip-path="url(#clip692)" cx="1595.77" cy="242.392" r="32" fill="#320c01" fill-rule="evenodd" fill-opacity="1" stroke="#000000" stroke-opacity="1" stroke-width="0"/>
<circle clip-path="url(#clip692)" cx="1595.77" cy="242.392" r="32" fill="#111501" fill-rule="evenodd" fill-opacity="1" stroke="#000000" stroke-opacity="1" stroke-width="0"/>
<circle clip-path="url(#clip692)" cx="1289.24" cy="160.256" r="32" fill="#111501" fill-rule="evenodd" fill-opacity="1" stroke="#000000" stroke-opacity="1" stroke-width="0"/>
<circle clip-path="url(#clip692)" cx="1289.24" cy="160.256" r="32" fill="#011a01" fill-rule="evenodd" fill-opacity="1" stroke="#000000" stroke-opacity="1" stroke-width="0"/>
<circle clip-path="url(#clip692)" cx="982.704" cy="242.392" r="32" fill="#011a01" fill-rule="evenodd" fill-opacity="1" stroke="#000000" stroke-opacity="1" stroke-width="0"/>
<circle clip-path="url(#clip692)" cx="982.704" cy="242.392" r="32" fill="#001c01" fill-rule="evenodd" fill-opacity="1" stroke="#000000" stroke-opacity="1" stroke-width="0"/>
<circle clip-path="url(#clip692)" cx="758.305" cy="466.791" r="32" fill="#001c01" fill-rule="evenodd" fill-opacity="1" stroke="#000000" stroke-opacity="1" stroke-width="0"/>
<circle clip-path="url(#clip692)" cx="758.305" cy="466.791" r="32" fill="#001b07" fill-rule="evenodd" fill-opacity="1" stroke="#000000" stroke-opacity="1" stroke-width="0"/>
<circle clip-path="url(#clip692)" cx="676.17" cy="773.326" r="32" fill="#001b07" fill-rule="evenodd" fill-opacity="1" stroke="#000000" stroke-opacity="1" stroke-width="0"/>
<circle clip-path="url(#clip692)" cx="676.17" cy="773.326" r="32" fill="#001819" fill-rule="evenodd" fill-opacity="1" stroke="#000000" stroke-opacity="1" stroke-width="0"/>
<circle clip-path="url(#clip692)" cx="758.305" cy="1079.86" r="32" fill="#001819" fill-rule="evenodd" fill-opacity="1" stroke="#000000" stroke-opacity="1" stroke-width="0"/>
<circle clip-path="url(#clip692)" cx="758.305" cy="1079.86" r="32" fill="#010c59" fill-rule="evenodd" fill-opacity="1" stroke="#000000" stroke-opacity="1" stroke-width="0"/>
<circle clip-path="url(#clip692)" cx="982.704" cy="1304.26" r="32" fill="#010c59" fill-rule="evenodd" fill-opacity="1" stroke="#000000" stroke-opacity="1" stroke-width="0"/>
<circle clip-path="url(#clip692)" cx="982.704" cy="1304.26" r="32" fill="#1000df" fill-rule="evenodd" fill-opacity="1" stroke="#000000" stroke-opacity="1" stroke-width="0"/>
<circle clip-path="url(#clip692)" cx="1289.24" cy="1386.4" r="32" fill="#1000df" fill-rule="evenodd" fill-opacity="1" stroke="#000000" stroke-opacity="1" stroke-width="0"/>
<circle clip-path="url(#clip692)" cx="1289.24" cy="1386.4" r="32" fill="#28008b" fill-rule="evenodd" fill-opacity="1" stroke="#000000" stroke-opacity="1" stroke-width="0"/>
<circle clip-path="url(#clip692)" cx="1595.77" cy="1304.26" r="32" fill="#28008b" fill-rule="evenodd" fill-opacity="1" stroke="#000000" stroke-opacity="1" stroke-width="0"/>
<circle clip-path="url(#clip692)" cx="1595.77" cy="1304.26" r="32" fill="#460040" fill-rule="evenodd" fill-opacity="1" stroke="#000000" stroke-opacity="1" stroke-width="0"/>
<circle clip-path="url(#clip692)" cx="1820.17" cy="1079.86" r="32" fill="#460040" fill-rule="evenodd" fill-opacity="1" stroke="#000000" stroke-opacity="1" stroke-width="0"/>
</svg>
