<?xml version="1.0" encoding="utf-8"?>
<svg xmlns="http://www.w3.org/2000/svg" xmlns:xlink="http://www.w3.org/1999/xlink" width="600" height="400" viewBox="0 0 2400 1600">
<defs>
  <clipPath id="clip670">
    <rect x="0" y="0" width="2400" height="1600"/>
  </clipPath>
</defs>
<path clip-path="url(#clip670)" d="
M0 1600 L2400 1600 L2400 0 L0 0  Z
  " fill="#ffffff" fill-rule="evenodd" fill-opacity="1"/>
<defs>
  <clipPath id="clip671">
    <rect x="480" y="0" width="1681" height="1600"/>
  </clipPath>
</defs>
<path clip-path="url(#clip670)" d="
M242.922 1423.18 L2352.76 1423.18 L2352.76 123.472 L242.922 123.472  Z
  " fill="#ffffff" fill-rule="evenodd" fill-opacity="1"/>
<defs>
  <clipPath id="clip672">
    <rect x="242" y="123" width="2111" height="1301"/>
  </clipPath>
</defs>
<polyline clip-path="url(#clip672)" style="stroke:#000000; stroke-width:2; stroke-opacity:0.1; fill:none" points="
  378.234,1423.18 378.234,123.472 
  "/>
<polyline clip-path="url(#clip672)" style="stroke:#000000; stroke-width:2; stroke-opacity:0.1; fill:none" points="
  684.769,1423.18 684.769,123.472 
  "/>
<polyline clip-path="url(#clip672)" style="stroke:#000000; stroke-width:2; stroke-opacity:0.1; fill:none" points="
  991.304,1423.18 991.304,123.472 
  "/>
<polyline clip-path="url(#clip672)" style="stroke:#000000; stroke-width:2; stroke-opacity:0.1; fill:none" points="
  1297.84,1423.18 1297.84,123.472 
  "/>
<polyline clip-path="url(#clip672)" style="stroke:#000000; stroke-width:2; stroke-opacity:0.1; fill:none" points="
  1604.37,1423.18 1604.37,123.472 
  "/>
<polyline clip-path="url(#clip672)" style="stroke:#000000; stroke-width:2; stroke-opacity:0.1; fill:none" points="
  1910.91,1423.18 1910.91,123.472 
  "/>
<polyline clip-path="url(#clip672)" style="stroke:#000000; stroke-width:2; stroke-opacity:0.1; fill:none" points="
  2217.44,1423.18 2217.44,123.472 
  "/>
<polyline clip-path="url(#clip672)" style="stroke:#000000; stroke-width:2; stroke-opacity:0.1; fill:none" points="
  242.922,1386.4 2352.76,1386.4 
  "/>
<polyline clip-path="url(#clip672)" style="stroke:#000000; stroke-width:2; stroke-opacity:0.1; fill:none" points="
  242.922,1079.86 2352.76,1079.86 
  "/>
<polyline clip-path="url(#clip672)" style="stroke:#000000; stroke-width:2; stroke-opacity:0.1; fill:none" points="
  242.922,773.326 2352.76,773.326 
  "/>
<polyline clip-path="url(#clip672)" style="stroke:#000000; stroke-width:2; stroke-opacity:0.1; fill:none" points="
  242.922,466.791 2352.76,466.791 
  "/>
<polyline clip-path="url(#clip672)" style="stroke:#000000; stroke-width:2; stroke-opacity:0.1; fill:none" points="
  242.922,160.256 2352.76,160.256 
  "/>
<polyline clip-path="url(#clip670)" style="stroke:#000000; stroke-width:4; stroke-opacity:1; fill:none" points="
  242.922,1423.18 2352.76,1423.18 
  "/>
<polyline clip-path="url(#clip670)" style="stroke:#000000; stroke-width:4; stroke-opacity:1; fill:none" points="
  242.922,1423.18 242.922,123.472 
  "/>
<polyline clip-path="url(#clip670)" style="stroke:#000000; stroke-width:4; stroke-opacity:1; fill:none" points="
  378.234,1423.18 378.234,1407.58 
  "/>
<polyline clip-path="url(#clip670)" style="stroke:#000000; stroke-width:4; stroke-opacity:1; fill:none" points="
  684.769,1423.18 684.769,1407.58 
  "/>
<polyline clip-path="url(#clip670)" style="stroke:#000000; stroke-width:4; stroke-opacity:1; fill:none" points="
  991.304,1423.18 991.304,1407.58 
  "/>
<polyline clip-path="url(#clip670)" style="stroke:#000000; stroke-width:4; stroke-opacity:1; fill:none" points="
  1297.84,1423.18 1297.84,1407.58 
  "/>
<polyline clip-path="url(#clip670)" style="stroke:#000000; stroke-width:4; stroke-opacity:1; fill:none" points="
  1604.37,1423.18 1604.37,1407.58 
  "/>
<polyline clip-path="url(#clip670)" style="stroke:#000000; stroke-width:4; stroke-opacity:1; fill:none" points="
  1910.91,1423.18 1910.91,1407.58 
  "/>
<polyline clip-path="url(#clip670)" style="stroke:#000000; stroke-width:4; stroke-opacity:1; fill:none" points="
  2217.44,1423.18 2217.44,1407.58 
  "/>
<polyline clip-path="url(#clip670)" style="stroke:#000000; stroke-width:4; stroke-opacity:1; fill:none" points="
  242.922,1386.4 268.24,1386.4 
  "/>
<polyline clip-path="url(#clip670)" style="stroke:#000000; stroke-width:4; stroke-opacity:1; fill:none" points="
  242.922,1079.86 268.24,1079.86 
  "/>
<polyline clip-path="url(#clip670)" style="stroke:#000000; stroke-width:4; stroke-opacity:1; fill:none" points="
  242.922,773.326 268.24,773.326 
  "/>
<polyline clip-path="url(#clip670)" style="stroke:#000000; stroke-width:4; stroke-opacity:1; fill:none" points="
  242.922,466.791 268.24,466.791 
  "/>
<polyline clip-path="url(#clip670)" style="stroke:#000000; stroke-width:4; stroke-opacity:1; fill:none" points="
  242.922,160.256 268.24,160.256 
  "/>
<path clip-path="url(#clip670)" d="M 0 0 M332.517 1459.82 L362.193 1459.82 L362.193 1463.76 L332.517 1463.76 L332.517 1459.82 Z" fill="#000000" fill-rule="evenodd" fill-opacity="1" /><path clip-path="url(#clip670)" d="M 0 0 M368.072 1472.72 L375.711 1472.72 L375.711 1446.35 L367.401 1448.02 L367.401 1443.76 L375.665 1442.09 L380.341 1442.09 L380.341 1472.72 L387.98 1472.72 L387.98 1476.65 L368.072 1476.65 L368.072 1472.72 Z" fill="#000000" fill-rule="evenodd" fill-opacity="1" /><path clip-path="url(#clip670)" d="M 0 0 M393.049 1470.77 L397.933 1470.77 L397.933 1476.65 L393.049 1476.65 L393.049 1470.77 Z" fill="#000000" fill-rule="evenodd" fill-opacity="1" /><path clip-path="url(#clip670)" d="M 0 0 M403.049 1442.09 L421.405 1442.09 L421.405 1446.03 L407.331 1446.03 L407.331 1454.5 Q408.35 1454.15 409.368 1453.99 Q410.387 1453.8 411.405 1453.8 Q417.192 1453.8 420.572 1456.98 Q423.952 1460.15 423.952 1465.56 Q423.952 1471.14 420.479 1474.24 Q417.007 1477.32 410.688 1477.32 Q408.512 1477.32 406.243 1476.95 Q403.998 1476.58 401.591 1475.84 L401.591 1471.14 Q403.674 1472.28 405.896 1472.83 Q408.118 1473.39 410.595 1473.39 Q414.6 1473.39 416.938 1471.28 Q419.276 1469.18 419.276 1465.56 Q419.276 1461.95 416.938 1459.85 Q414.6 1457.74 410.595 1457.74 Q408.72 1457.74 406.845 1458.16 Q404.993 1458.57 403.049 1459.45 L403.049 1442.09 Z" fill="#000000" fill-rule="evenodd" fill-opacity="1" /><path clip-path="url(#clip670)" d="M 0 0 M638.554 1459.82 L668.23 1459.82 L668.23 1463.76 L638.554 1463.76 L638.554 1459.82 Z" fill="#000000" fill-rule="evenodd" fill-opacity="1" /><path clip-path="url(#clip670)" d="M 0 0 M674.109 1472.72 L681.748 1472.72 L681.748 1446.35 L673.438 1448.02 L673.438 1443.76 L681.702 1442.09 L686.378 1442.09 L686.378 1472.72 L694.017 1472.72 L694.017 1476.65 L674.109 1476.65 L674.109 1472.72 Z" fill="#000000" fill-rule="evenodd" fill-opacity="1" /><path clip-path="url(#clip670)" d="M 0 0 M699.086 1470.77 L703.97 1470.77 L703.97 1476.65 L699.086 1476.65 L699.086 1470.77 Z" fill="#000000" fill-rule="evenodd" fill-opacity="1" /><path clip-path="url(#clip670)" d="M 0 0 M719.04 1445.17 Q715.429 1445.17 713.6 1448.74 Q711.794 1452.28 711.794 1459.41 Q711.794 1466.51 713.6 1470.08 Q715.429 1473.62 719.04 1473.62 Q722.674 1473.62 724.48 1470.08 Q726.308 1466.51 726.308 1459.41 Q726.308 1452.28 724.48 1448.74 Q722.674 1445.17 719.04 1445.17 M719.04 1441.47 Q724.85 1441.47 727.905 1446.07 Q730.984 1450.66 730.984 1459.41 Q730.984 1468.13 727.905 1472.74 Q724.85 1477.32 719.04 1477.32 Q713.23 1477.32 710.151 1472.74 Q707.095 1468.13 707.095 1459.41 Q707.095 1450.66 710.151 1446.07 Q713.23 1441.47 719.04 1441.47 Z" fill="#000000" fill-rule="evenodd" fill-opacity="1" /><path clip-path="url(#clip670)" d="M 0 0 M944.973 1459.82 L974.649 1459.82 L974.649 1463.76 L944.973 1463.76 L944.973 1459.82 Z" fill="#000000" fill-rule="evenodd" fill-opacity="1" /><path clip-path="url(#clip670)" d="M 0 0 M989.718 1445.17 Q986.107 1445.17 984.279 1448.74 Q982.473 1452.28 982.473 1459.41 Q982.473 1466.51 984.279 1470.08 Q986.107 1473.62 989.718 1473.62 Q993.353 1473.62 995.158 1470.08 Q996.987 1466.51 996.987 1459.41 Q996.987 1452.28 995.158 1448.74 Q993.353 1445.17 989.718 1445.17 M989.718 1441.47 Q995.528 1441.47 998.584 1446.07 Q1001.66 1450.66 1001.66 1459.41 Q1001.66 1468.13 998.584 1472.74 Q995.528 1477.32 989.718 1477.32 Q983.908 1477.32 980.829 1472.74 Q977.774 1468.13 977.774 1459.41 Q977.774 1450.66 980.829 1446.07 Q983.908 1441.47 989.718 1441.47 Z" fill="#000000" fill-rule="evenodd" fill-opacity="1" /><path clip-path="url(#clip670)" d="M 0 0 M1006.73 1470.77 L1011.62 1470.77 L1011.62 1476.65 L1006.73 1476.65 L1006.73 1470.77 Z" fill="#000000" fill-rule="evenodd" fill-opacity="1" /><path clip-path="url(#clip670)" d="M 0 0 M1016.73 1442.09 L1035.09 1442.09 L1035.09 1446.03 L1021.01 1446.03 L1021.01 1454.5 Q1022.03 1454.15 1023.05 1453.99 Q1024.07 1453.8 1025.09 1453.8 Q1030.88 1453.8 1034.26 1456.98 Q1037.63 1460.15 1037.63 1465.56 Q1037.63 1471.14 1034.16 1474.24 Q1030.69 1477.32 1024.37 1477.32 Q1022.2 1477.32 1019.93 1476.95 Q1017.68 1476.58 1015.27 1475.84 L1015.27 1471.14 Q1017.36 1472.28 1019.58 1472.83 Q1021.8 1473.39 1024.28 1473.39 Q1028.28 1473.39 1030.62 1471.28 Q1032.96 1469.18 1032.96 1465.56 Q1032.96 1461.95 1030.62 1459.85 Q1028.28 1457.74 1024.28 1457.74 Q1022.4 1457.74 1020.53 1458.16 Q1018.68 1458.57 1016.73 1459.45 L1016.73 1442.09 Z" fill="#000000" fill-rule="evenodd" fill-opacity="1" /><path clip-path="url(#clip670)" d="M 0 0 M1279.36 1445.17 Q1275.74 1445.17 1273.92 1448.74 Q1272.11 1452.28 1272.11 1459.41 Q1272.11 1466.51 1273.92 1470.08 Q1275.74 1473.62 1279.36 1473.62 Q1282.99 1473.62 1284.79 1470.08 Q1286.62 1466.51 1286.62 1459.41 Q1286.62 1452.28 1284.79 1448.74 Q1282.99 1445.17 1279.36 1445.17 M1279.36 1441.47 Q1285.17 1441.47 1288.22 1446.07 Q1291.3 1450.66 1291.3 1459.41 Q1291.3 1468.13 1288.22 1472.74 Q1285.17 1477.32 1279.36 1477.32 Q1273.54 1477.32 1270.47 1472.74 Q1267.41 1468.13 1267.41 1459.41 Q1267.41 1450.66 1270.47 1446.07 Q1273.54 1441.47 1279.36 1441.47 Z" fill="#000000" fill-rule="evenodd" fill-opacity="1" /><path clip-path="url(#clip670)" d="M 0 0 M1296.37 1470.77 L1301.25 1470.77 L1301.25 1476.65 L1296.37 1476.65 L1296.37 1470.77 Z" fill="#000000" fill-rule="evenodd" fill-opacity="1" /><path clip-path="url(#clip670)" d="M 0 0 M1316.32 1445.17 Q1312.71 1445.17 1310.88 1448.74 Q1309.08 1452.28 1309.08 1459.41 Q1309.08 1466.51 1310.88 1470.08 Q1312.71 1473.62 1316.32 1473.62 Q1319.96 1473.62 1321.76 1470.08 Q1323.59 1466.51 1323.59 1459.41 Q1323.59 1452.28 1321.76 1448.74 Q1319.96 1445.17 1316.32 1445.17 M1316.32 1441.47 Q1322.13 1441.47 1325.19 1446.07 Q1328.27 1450.66 1328.27 1459.41 Q1328.27 1468.13 1325.19 1472.74 Q1322.13 1477.32 1316.32 1477.32 Q1310.51 1477.32 1307.43 1472.74 Q1304.38 1468.13 1304.38 1459.41 Q1304.38 1450.66 1307.43 1446.07 Q1310.51 1441.47 1316.32 1441.47 Z" fill="#000000" fill-rule="evenodd" fill-opacity="1" /><path clip-path="url(#clip670)" d="M 0 0 M1586.39 1445.17 Q1582.78 1445.17 1580.95 1448.74 Q1579.14 1452.28 1579.14 1459.41 Q1579.14 1466.51 1580.95 1470.08 Q1582.78 1473.62 1586.39 1473.62 Q1590.02 1473.62 1591.83 1470.08 Q1593.66 1466.51 1593.66 1459.41 Q1593.66 1452.28 1591.83 1448.74 Q1590.02 1445.17 1586.39 1445.17 M1586.39 1441.47 Q1592.2 1441.47 1595.25 1446.07 Q1598.33 1450.66 1598.33 1459.41 Q1598.33 1468.13 1595.25 1472.74 Q1592.2 1477.32 1586.39 1477.32 Q1580.58 1477.32 1577.5 1472.74 Q1574.44 1468.13 1574.44 1459.41 Q1574.44 1450.66 1577.5 1446.07 Q1580.58 1441.47 1586.39 1441.47 Z" fill="#000000" fill-rule="evenodd" fill-opacity="1" /><path clip-path="url(#clip670)" d="M 0 0 M1603.4 1470.77 L1608.29 1470.77 L1608.29 1476.65 L1603.4 1476.65 L1603.4 1470.77 Z" fill="#000000" fill-rule="evenodd" fill-opacity="1" /><path clip-path="url(#clip670)" d="M 0 0 M1613.4 1442.09 L1631.76 1442.09 L1631.76 1446.03 L1617.68 1446.03 L1617.68 1454.5 Q1618.7 1454.15 1619.72 1453.99 Q1620.74 1453.8 1621.76 1453.8 Q1627.54 1453.8 1630.92 1456.98 Q1634.3 1460.15 1634.3 1465.56 Q1634.3 1471.14 1630.83 1474.24 Q1627.36 1477.32 1621.04 1477.32 Q1618.86 1477.32 1616.6 1476.95 Q1614.35 1476.58 1611.94 1475.84 L1611.94 1471.14 Q1614.03 1472.28 1616.25 1472.83 Q1618.47 1473.39 1620.95 1473.39 Q1624.95 1473.39 1627.29 1471.28 Q1629.63 1469.18 1629.63 1465.56 Q1629.63 1461.95 1627.29 1459.85 Q1624.95 1457.74 1620.95 1457.74 Q1619.07 1457.74 1617.2 1458.16 Q1615.35 1458.57 1613.4 1459.45 L1613.4 1442.09 Z" fill="#000000" fill-rule="evenodd" fill-opacity="1" /><path clip-path="url(#clip670)" d="M 0 0 M1882.81 1472.72 L1890.45 1472.72 L1890.45 1446.35 L1882.14 1448.02 L1882.14 1443.76 L1890.4 1442.09 L1895.08 1442.09 L1895.08 1472.72 L1902.71 1472.72 L1902.71 1476.65 L1882.81 1476.65 L1882.81 1472.72 Z" fill="#000000" fill-rule="evenodd" fill-opacity="1" /><path clip-path="url(#clip670)" d="M 0 0 M1907.78 1470.77 L1912.67 1470.77 L1912.67 1476.65 L1907.78 1476.65 L1907.78 1470.77 Z" fill="#000000" fill-rule="evenodd" fill-opacity="1" /><path clip-path="url(#clip670)" d="M 0 0 M1927.74 1445.17 Q1924.13 1445.17 1922.3 1448.74 Q1920.49 1452.28 1920.49 1459.41 Q1920.49 1466.51 1922.3 1470.08 Q1924.13 1473.62 1927.74 1473.62 Q1931.37 1473.62 1933.18 1470.08 Q1935.01 1466.51 1935.01 1459.41 Q1935.01 1452.28 1933.18 1448.74 Q1931.37 1445.17 1927.74 1445.17 M1927.74 1441.47 Q1933.55 1441.47 1936.6 1446.07 Q1939.68 1450.66 1939.68 1459.41 Q1939.68 1468.13 1936.6 1472.74 Q1933.55 1477.32 1927.74 1477.32 Q1921.93 1477.32 1918.85 1472.74 Q1915.79 1468.13 1915.79 1459.41 Q1915.79 1450.66 1918.85 1446.07 Q1921.93 1441.47 1927.74 1441.47 Z" fill="#000000" fill-rule="evenodd" fill-opacity="1" /><path clip-path="url(#clip670)" d="M 0 0 M2189.84 1472.72 L2197.48 1472.72 L2197.48 1446.35 L2189.17 1448.02 L2189.17 1443.76 L2197.43 1442.09 L2202.11 1442.09 L2202.11 1472.72 L2209.75 1472.72 L2209.75 1476.65 L2189.84 1476.65 L2189.84 1472.72 Z" fill="#000000" fill-rule="evenodd" fill-opacity="1" /><path clip-path="url(#clip670)" d="M 0 0 M2214.82 1470.77 L2219.7 1470.77 L2219.7 1476.65 L2214.82 1476.65 L2214.82 1470.77 Z" fill="#000000" fill-rule="evenodd" fill-opacity="1" /><path clip-path="url(#clip670)" d="M 0 0 M2224.82 1442.09 L2243.17 1442.09 L2243.17 1446.03 L2229.1 1446.03 L2229.1 1454.5 Q2230.12 1454.15 2231.14 1453.99 Q2232.15 1453.8 2233.17 1453.8 Q2238.96 1453.8 2242.34 1456.98 Q2245.72 1460.15 2245.72 1465.56 Q2245.72 1471.14 2242.25 1474.24 Q2238.77 1477.32 2232.45 1477.32 Q2230.28 1477.32 2228.01 1476.95 Q2225.77 1476.58 2223.36 1475.84 L2223.36 1471.14 Q2225.44 1472.28 2227.66 1472.83 Q2229.89 1473.39 2232.36 1473.39 Q2236.37 1473.39 2238.7 1471.28 Q2241.04 1469.18 2241.04 1465.56 Q2241.04 1461.95 2238.7 1459.85 Q2236.37 1457.74 2232.36 1457.74 Q2230.49 1457.74 2228.61 1458.16 Q2226.76 1458.57 2224.82 1459.45 L2224.82 1442.09 Z" fill="#000000" fill-rule="evenodd" fill-opacity="1" /><path clip-path="url(#clip670)" d="M 0 0 M126.492 1386.85 L156.167 1386.85 L156.167 1390.78 L126.492 1390.78 L126.492 1386.85 Z" fill="#000000" fill-rule="evenodd" fill-opacity="1" /><path clip-path="url(#clip670)" d="M 0 0 M162.047 1399.74 L169.686 1399.74 L169.686 1373.37 L161.376 1375.04 L161.376 1370.78 L169.64 1369.12 L174.315 1369.12 L174.315 1399.74 L181.954 1399.74 L181.954 1403.68 L162.047 1403.68 L162.047 1399.74 Z" fill="#000000" fill-rule="evenodd" fill-opacity="1" /><path clip-path="url(#clip670)" d="M 0 0 M187.024 1397.8 L191.908 1397.8 L191.908 1403.68 L187.024 1403.68 L187.024 1397.8 Z" fill="#000000" fill-rule="evenodd" fill-opacity="1" /><path clip-path="url(#clip670)" d="M 0 0 M206.977 1372.19 Q203.366 1372.19 201.538 1375.76 Q199.732 1379.3 199.732 1386.43 Q199.732 1393.54 201.538 1397.1 Q203.366 1400.64 206.977 1400.64 Q210.612 1400.64 212.417 1397.1 Q214.246 1393.54 214.246 1386.43 Q214.246 1379.3 212.417 1375.76 Q210.612 1372.19 206.977 1372.19 M206.977 1368.49 Q212.787 1368.49 215.843 1373.1 Q218.922 1377.68 218.922 1386.43 Q218.922 1395.16 215.843 1399.76 Q212.787 1404.35 206.977 1404.35 Q201.167 1404.35 198.088 1399.76 Q195.033 1395.16 195.033 1386.43 Q195.033 1377.68 198.088 1373.1 Q201.167 1368.49 206.977 1368.49 Z" fill="#000000" fill-rule="evenodd" fill-opacity="1" /><path clip-path="url(#clip670)" d="M 0 0 M126.26 1080.31 L155.936 1080.31 L155.936 1084.25 L126.26 1084.25 L126.26 1080.31 Z" fill="#000000" fill-rule="evenodd" fill-opacity="1" /><path clip-path="url(#clip670)" d="M 0 0 M171.005 1065.66 Q167.394 1065.66 165.566 1069.22 Q163.76 1072.77 163.76 1079.9 Q163.76 1087 165.566 1090.57 Q167.394 1094.11 171.005 1094.11 Q174.64 1094.11 176.445 1090.57 Q178.274 1087 178.274 1079.9 Q178.274 1072.77 176.445 1069.22 Q174.64 1065.66 171.005 1065.66 M171.005 1061.96 Q176.815 1061.96 179.871 1066.56 Q182.95 1071.15 182.95 1079.9 Q182.95 1088.62 179.871 1093.23 Q176.815 1097.81 171.005 1097.81 Q165.195 1097.81 162.116 1093.23 Q159.061 1088.62 159.061 1079.9 Q159.061 1071.15 162.116 1066.56 Q165.195 1061.96 171.005 1061.96 Z" fill="#000000" fill-rule="evenodd" fill-opacity="1" /><path clip-path="url(#clip670)" d="M 0 0 M188.019 1091.26 L192.903 1091.26 L192.903 1097.14 L188.019 1097.14 L188.019 1091.26 Z" fill="#000000" fill-rule="evenodd" fill-opacity="1" /><path clip-path="url(#clip670)" d="M 0 0 M198.019 1062.58 L216.375 1062.58 L216.375 1066.52 L202.301 1066.52 L202.301 1074.99 Q203.32 1074.64 204.338 1074.48 Q205.357 1074.29 206.375 1074.29 Q212.162 1074.29 215.542 1077.47 Q218.922 1080.64 218.922 1086.05 Q218.922 1091.63 215.449 1094.73 Q211.977 1097.81 205.658 1097.81 Q203.482 1097.81 201.213 1097.44 Q198.968 1097.07 196.561 1096.33 L196.561 1091.63 Q198.644 1092.77 200.866 1093.32 Q203.088 1093.88 205.565 1093.88 Q209.57 1093.88 211.908 1091.77 Q214.246 1089.66 214.246 1086.05 Q214.246 1082.44 211.908 1080.34 Q209.57 1078.23 205.565 1078.23 Q203.69 1078.23 201.815 1078.65 Q199.963 1079.06 198.019 1079.94 L198.019 1062.58 Z" fill="#000000" fill-rule="evenodd" fill-opacity="1" /><path clip-path="url(#clip670)" d="M 0 0 M170.01 759.125 Q166.399 759.125 164.57 762.689 Q162.765 766.231 162.765 773.361 Q162.765 780.467 164.57 784.032 Q166.399 787.574 170.01 787.574 Q173.644 787.574 175.45 784.032 Q177.278 780.467 177.278 773.361 Q177.278 766.231 175.45 762.689 Q173.644 759.125 170.01 759.125 M170.01 755.421 Q175.82 755.421 178.876 760.027 Q181.954 764.611 181.954 773.361 Q181.954 782.088 178.876 786.694 Q175.82 791.277 170.01 791.277 Q164.2 791.277 161.121 786.694 Q158.066 782.088 158.066 773.361 Q158.066 764.611 161.121 760.027 Q164.2 755.421 170.01 755.421 Z" fill="#000000" fill-rule="evenodd" fill-opacity="1" /><path clip-path="url(#clip670)" d="M 0 0 M187.024 784.726 L191.908 784.726 L191.908 790.606 L187.024 790.606 L187.024 784.726 Z" fill="#000000" fill-rule="evenodd" fill-opacity="1" /><path clip-path="url(#clip670)" d="M 0 0 M206.977 759.125 Q203.366 759.125 201.538 762.689 Q199.732 766.231 199.732 773.361 Q199.732 780.467 201.538 784.032 Q203.366 787.574 206.977 787.574 Q210.612 787.574 212.417 784.032 Q214.246 780.467 214.246 773.361 Q214.246 766.231 212.417 762.689 Q210.612 759.125 206.977 759.125 M206.977 755.421 Q212.787 755.421 215.843 760.027 Q218.922 764.611 218.922 773.361 Q218.922 782.088 215.843 786.694 Q212.787 791.277 206.977 791.277 Q201.167 791.277 198.088 786.694 Q195.033 782.088 195.033 773.361 Q195.033 764.611 198.088 760.027 Q201.167 755.421 206.977 755.421 Z" fill="#000000" fill-rule="evenodd" fill-opacity="1" /><path clip-path="url(#clip670)" d="M 0 0 M171.005 452.59 Q167.394 452.59 165.566 456.155 Q163.76 459.696 163.76 466.826 Q163.76 473.932 165.566 477.497 Q167.394 481.039 171.005 481.039 Q174.64 481.039 176.445 477.497 Q178.274 473.932 178.274 466.826 Q178.274 459.696 176.445 456.155 Q174.64 452.59 171.005 452.59 M171.005 448.886 Q176.815 448.886 179.871 453.493 Q182.95 458.076 182.95 466.826 Q182.95 475.553 179.871 480.159 Q176.815 484.742 171.005 484.742 Q165.195 484.742 162.116 480.159 Q159.061 475.553 159.061 466.826 Q159.061 458.076 162.116 453.493 Q165.195 448.886 171.005 448.886 Z" fill="#000000" fill-rule="evenodd" fill-opacity="1" /><path clip-path="url(#clip670)" d="M 0 0 M188.019 478.192 L192.903 478.192 L192.903 484.071 L188.019 484.071 L188.019 478.192 Z" fill="#000000" fill-rule="evenodd" fill-opacity="1" /><path clip-path="url(#clip670)" d="M 0 0 M198.019 449.511 L216.375 449.511 L216.375 453.446 L202.301 453.446 L202.301 461.918 Q203.32 461.571 204.338 461.409 Q205.357 461.224 206.375 461.224 Q212.162 461.224 215.542 464.395 Q218.922 467.567 218.922 472.983 Q218.922 478.562 215.449 481.664 Q211.977 484.742 205.658 484.742 Q203.482 484.742 201.213 484.372 Q198.968 484.002 196.561 483.261 L196.561 478.562 Q198.644 479.696 200.866 480.252 Q203.088 480.807 205.565 480.807 Q209.57 480.807 211.908 478.701 Q214.246 476.594 214.246 472.983 Q214.246 469.372 211.908 467.266 Q209.57 465.159 205.565 465.159 Q203.69 465.159 201.815 465.576 Q199.963 465.993 198.019 466.872 L198.019 449.511 Z" fill="#000000" fill-rule="evenodd" fill-opacity="1" /><path clip-path="url(#clip670)" d="M 0 0 M162.047 173.601 L169.686 173.601 L169.686 147.236 L161.376 148.902 L161.376 144.643 L169.64 142.976 L174.315 142.976 L174.315 173.601 L181.954 173.601 L181.954 177.536 L162.047 177.536 L162.047 173.601 Z" fill="#000000" fill-rule="evenodd" fill-opacity="1" /><path clip-path="url(#clip670)" d="M 0 0 M187.024 171.657 L191.908 171.657 L191.908 177.536 L187.024 177.536 L187.024 171.657 Z" fill="#000000" fill-rule="evenodd" fill-opacity="1" /><path clip-path="url(#clip670)" d="M 0 0 M206.977 146.055 Q203.366 146.055 201.538 149.62 Q199.732 153.161 199.732 160.291 Q199.732 167.397 201.538 170.962 Q203.366 174.504 206.977 174.504 Q210.612 174.504 212.417 170.962 Q214.246 167.397 214.246 160.291 Q214.246 153.161 212.417 149.62 Q210.612 146.055 206.977 146.055 M206.977 142.351 Q212.787 142.351 215.843 146.958 Q218.922 151.541 218.922 160.291 Q218.922 169.018 215.843 173.624 Q212.787 178.208 206.977 178.208 Q201.167 178.208 198.088 173.624 Q195.033 169.018 195.033 160.291 Q195.033 151.541 198.088 146.958 Q201.167 142.351 206.977 142.351 Z" fill="#000000" fill-rule="evenodd" fill-opacity="1" /><path clip-path="url(#clip670)" d="M 0 0 M1005.53 12.096 L1013.71 12.096 L1013.71 36.8875 L1043.44 36.8875 L1043.44 12.096 L1051.62 12.096 L1051.62 72.576 L1043.44 72.576 L1043.44 43.7741 L1013.71 43.7741 L1013.71 72.576 L1005.53 72.576 L1005.53 12.096 Z" fill="#000000" fill-rule="evenodd" fill-opacity="1" /><path clip-path="url(#clip670)" d="M 0 0 M1096.02 14.0809 L1096.02 22.0612 Q1091.36 19.8332 1087.23 18.7395 Q1083.1 17.6457 1079.25 17.6457 Q1072.57 17.6457 1068.92 20.2383 Q1065.32 22.8309 1065.32 27.611 Q1065.32 31.6214 1067.71 33.6873 Q1070.14 35.7128 1076.86 36.9686 L1081.8 37.9813 Q1090.96 39.7232 1095.29 44.1387 Q1099.67 48.5136 1099.67 55.8863 Q1099.67 64.6767 1093.75 69.2137 Q1087.88 73.7508 1076.5 73.7508 Q1072.2 73.7508 1067.34 72.7785 Q1062.52 71.8063 1057.34 69.9024 L1057.34 61.4765 Q1062.32 64.2716 1067.1 65.6895 Q1071.88 67.1073 1076.5 67.1073 Q1083.51 67.1073 1087.31 64.3527 Q1091.12 61.598 1091.12 56.4939 Q1091.12 52.0379 1088.37 49.5264 Q1085.65 47.0148 1079.41 45.759 L1074.43 44.7868 Q1065.28 42.9639 1061.18 39.075 Q1057.09 35.1862 1057.09 28.2591 Q1057.09 20.2383 1062.72 15.6203 Q1068.4 11.0023 1078.32 11.0023 Q1082.57 11.0023 1086.99 11.7719 Q1091.4 12.5416 1096.02 14.0809 Z" fill="#000000" fill-rule="evenodd" fill-opacity="1" /><path clip-path="url(#clip670)" d="M 0 0 M1107.81 12.096 L1115.99 12.096 L1115.99 65.6895 L1145.44 65.6895 L1145.44 72.576 L1107.81 72.576 L1107.81 12.096 Z" fill="#000000" fill-rule="evenodd" fill-opacity="1" /><path clip-path="url(#clip670)" d="M 0 0 M1187.74 86.3491 L1187.74 92.1419 L1144.63 92.1419 L1144.63 86.3491 L1187.74 86.3491 Z" fill="#000000" fill-rule="evenodd" fill-opacity="1" /><path clip-path="url(#clip670)" d="M 0 0 M1198.02 65.6895 L1211.39 65.6895 L1211.39 19.5497 L1196.85 22.4663 L1196.85 15.0127 L1211.31 12.096 L1219.49 12.096 L1219.49 65.6895 L1232.86 65.6895 L1232.86 72.576 L1198.02 72.576 L1198.02 65.6895 Z" fill="#000000" fill-rule="evenodd" fill-opacity="1" /><path clip-path="url(#clip670)" d="M 0 0 M1248.78 65.6895 L1277.34 65.6895 L1277.34 72.576 L1238.94 72.576 L1238.94 65.6895 Q1243.6 60.8689 1251.62 52.7671 Q1259.68 44.6248 1261.75 42.2752 Q1265.67 37.8598 1267.21 34.8216 Q1268.79 31.7429 1268.79 28.7857 Q1268.79 23.9651 1265.39 20.927 Q1262.03 17.8888 1256.6 17.8888 Q1252.75 17.8888 1248.46 19.2256 Q1244.2 20.5624 1239.34 23.2765 L1239.34 15.0127 Q1244.29 13.0277 1248.58 12.015 Q1252.87 11.0023 1256.44 11.0023 Q1265.84 11.0023 1271.43 15.7013 Q1277.02 20.4004 1277.02 28.2591 Q1277.02 31.9859 1275.6 35.3482 Q1274.22 38.6699 1270.54 43.2069 Q1269.52 44.3817 1264.09 50.0125 Q1258.67 55.6027 1248.78 65.6895 Z" fill="#000000" fill-rule="evenodd" fill-opacity="1" /><path clip-path="url(#clip670)" d="M 0 0 M1285.48 12.096 L1293.67 12.096 L1293.67 36.8875 L1323.4 36.8875 L1323.4 12.096 L1331.58 12.096 L1331.58 72.576 L1323.4 72.576 L1323.4 43.7741 L1293.67 43.7741 L1293.67 72.576 L1285.48 72.576 L1285.48 12.096 Z" fill="#000000" fill-rule="evenodd" fill-opacity="1" /><path clip-path="url(#clip670)" d="M 0 0 M1338.63 54.671 L1338.63 27.2059 L1346.09 27.2059 L1346.09 54.3874 Q1346.09 60.8284 1348.6 64.0691 Q1351.11 67.2693 1356.13 67.2693 Q1362.17 67.2693 1365.65 63.421 Q1369.18 59.5726 1369.18 52.9291 L1369.18 27.2059 L1376.63 27.2059 L1376.63 72.576 L1369.18 72.576 L1369.18 65.6084 Q1366.46 69.7404 1362.86 71.7658 Q1359.29 73.7508 1354.55 73.7508 Q1346.73 73.7508 1342.68 68.8897 Q1338.63 64.0286 1338.63 54.671 M1357.39 26.1121 L1357.39 26.1121 Z" fill="#000000" fill-rule="evenodd" fill-opacity="1" /><path clip-path="url(#clip670)" d="M 0 0 M1423.25 48.0275 L1423.25 51.6733 L1388.98 51.6733 Q1389.47 59.3701 1393.6 63.421 Q1397.77 67.4314 1405.19 67.4314 Q1409.48 67.4314 1413.49 66.3781 Q1417.54 65.3249 1421.51 63.2184 L1421.51 70.267 Q1417.5 71.9684 1413.29 72.8596 Q1409.08 73.7508 1404.74 73.7508 Q1393.89 73.7508 1387.53 67.4314 Q1381.21 61.1119 1381.21 50.3365 Q1381.21 39.1965 1387.2 32.6746 Q1393.24 26.1121 1403.45 26.1121 Q1412.6 26.1121 1417.91 32.0264 Q1423.25 37.9003 1423.25 48.0275 M1415.8 45.84 Q1415.72 39.7232 1412.36 36.0774 Q1409.04 32.4315 1403.53 32.4315 Q1397.29 32.4315 1393.52 35.9558 Q1389.79 39.4801 1389.23 45.8805 L1415.8 45.84 Z" fill="#000000" fill-rule="evenodd" fill-opacity="1" /><path clip-path="url(#clip670)" d="M 0 0 M1465.55 86.3491 L1465.55 92.1419 L1422.44 92.1419 L1422.44 86.3491 L1465.55 86.3491 Z" fill="#000000" fill-rule="evenodd" fill-opacity="1" /><path clip-path="url(#clip670)" d="M 0 0 M1465.38 12.096 L1474.17 12.096 L1490.95 36.9686 L1507.59 12.096 L1516.39 12.096 L1495 43.7741 L1495 72.576 L1486.77 72.576 L1486.77 43.7741 L1465.38 12.096 Z" fill="#000000" fill-rule="evenodd" fill-opacity="1" /><path clip-path="url(#clip670)" d="M 0 0 M1559.53 35.9153 Q1562.32 30.8922 1566.21 28.5022 Q1570.1 26.1121 1575.37 26.1121 Q1582.46 26.1121 1586.3 31.0947 Q1590.15 36.0368 1590.15 45.1919 L1590.15 72.576 L1582.66 72.576 L1582.66 45.4349 Q1582.66 38.913 1580.35 35.7533 Q1578.04 32.5936 1573.3 32.5936 Q1567.51 32.5936 1564.15 36.4419 Q1560.78 40.2903 1560.78 46.9338 L1560.78 72.576 L1553.29 72.576 L1553.29 45.4349 Q1553.29 38.8725 1550.98 35.7533 Q1548.67 32.5936 1543.85 32.5936 Q1538.14 32.5936 1534.78 36.4824 Q1531.41 40.3308 1531.41 46.9338 L1531.41 72.576 L1523.92 72.576 L1523.92 27.2059 L1531.41 27.2059 L1531.41 34.2544 Q1533.97 30.082 1537.53 28.0971 Q1541.1 26.1121 1546 26.1121 Q1550.94 26.1121 1554.38 28.6237 Q1557.87 31.1352 1559.53 35.9153 Z" fill="#000000" fill-rule="evenodd" fill-opacity="1" /><path clip-path="url(#clip670)" d="M 0 0 M1311.7 1510.08 L1311.7 1516.35 Q1308.04 1514.6 1304.79 1513.74 Q1301.55 1512.88 1298.52 1512.88 Q1293.27 1512.88 1290.41 1514.92 Q1287.57 1516.96 1287.57 1520.71 Q1287.57 1523.87 1289.45 1525.49 Q1291.36 1527.08 1296.65 1528.07 L1300.53 1528.86 Q1307.72 1530.23 1311.13 1533.7 Q1314.56 1537.14 1314.56 1542.93 Q1314.56 1549.84 1309.92 1553.4 Q1305.3 1556.97 1296.36 1556.97 Q1292.98 1556.97 1289.17 1556.2 Q1285.38 1555.44 1281.3 1553.94 L1281.3 1547.32 Q1285.22 1549.52 1288.97 1550.63 Q1292.73 1551.75 1296.36 1551.75 Q1301.87 1551.75 1304.86 1549.58 Q1307.85 1547.42 1307.85 1543.41 Q1307.85 1539.91 1305.68 1537.93 Q1303.55 1535.96 1298.65 1534.97 L1294.74 1534.21 Q1287.54 1532.78 1284.33 1529.72 Q1281.11 1526.67 1281.11 1521.22 Q1281.11 1514.92 1285.54 1511.29 Q1289.99 1507.66 1297.79 1507.66 Q1301.13 1507.66 1304.6 1508.27 Q1308.07 1508.87 1311.7 1510.08 Z" fill="#000000" fill-rule="evenodd" fill-opacity="1" /><path clip-path="url(#clip670)" d="M 0 0 M42.0438 759.465 L48.314 759.465 Q46.5634 763.125 45.704 766.371 Q44.8447 769.618 44.8447 772.642 Q44.8447 777.893 46.8817 780.758 Q48.9187 783.591 52.6745 783.591 Q55.8255 783.591 57.4488 781.713 Q59.0402 779.803 60.0269 774.52 L60.8226 770.636 Q62.1912 763.443 65.6605 760.038 Q69.098 756.6 74.8908 756.6 Q81.7976 756.6 85.3624 761.247 Q88.9272 765.862 88.9272 774.806 Q88.9272 778.18 88.1633 781.999 Q87.3994 785.787 85.9035 789.861 L79.2831 789.861 Q81.4793 785.946 82.5933 782.19 Q83.7073 778.434 83.7073 774.806 Q83.7073 769.3 81.543 766.308 Q79.3786 763.316 75.3682 763.316 Q71.8671 763.316 69.8937 765.48 Q67.9204 767.613 66.9337 772.514 L66.1698 776.429 Q64.7375 783.623 61.682 786.837 Q58.6264 790.052 53.1837 790.052 Q46.8817 790.052 43.2532 785.628 Q39.6248 781.172 39.6248 773.374 Q39.6248 770.032 40.2295 766.562 Q40.8343 763.093 42.0438 759.465 Z" fill="#000000" fill-rule="evenodd" fill-opacity="1" /><polyline clip-path="url(#clip672)" style="stroke:#7f7f7f; stroke-width:4; stroke-opacity:0.5; fill:none" points="
  1297.84,773.326 1910.91,773.326 
  "/>
<polyline clip-path="url(#clip672)" style="stroke:#7f7f7f; stroke-width:4; stroke-opacity:0.5; fill:none" points="
  1297.84,773.326 1828.77,466.791 
  "/>
<polyline clip-path="url(#clip672)" style="stroke:#7f7f7f; stroke-width:4; stroke-opacity:0.5; fill:none" points="
  1297.84,773.326 1604.37,242.392 
  "/>
<polyline clip-path="url(#clip672)" style="stroke:#7f7f7f; stroke-width:4; stroke-opacity:0.5; fill:none" points="
  1297.84,773.326 1297.84,160.256 
  "/>
<polyline clip-path="url(#clip672)" style="stroke:#7f7f7f; stroke-width:4; stroke-opacity:0.5; fill:none" points="
  1297.84,773.326 991.304,242.392 
  "/>
<polyline clip-path="url(#clip672)" style="stroke:#7f7f7f; stroke-width:4; stroke-opacity:0.5; fill:none" points="
  1297.84,773.326 766.905,466.791 
  "/>
<polyline clip-path="url(#clip672)" style="stroke:#7f7f7f; stroke-width:4; stroke-opacity:0.5; fill:none" points="
  1297.84,773.326 684.769,773.326 
  "/>
<polyline clip-path="url(#clip672)" style="stroke:#7f7f7f; stroke-width:4; stroke-opacity:0.5; fill:none" points="
  1297.84,773.326 766.905,1079.86 
  "/>
<polyline clip-path="url(#clip672)" style="stroke:#7f7f7f; stroke-width:4; stroke-opacity:0.5; fill:none" points="
  1297.84,773.326 991.304,1304.26 
  "/>
<polyline clip-path="url(#clip672)" style="stroke:#7f7f7f; stroke-width:4; stroke-opacity:0.5; fill:none" points="
  1297.84,773.326 1297.84,1386.4 
  "/>
<polyline clip-path="url(#clip672)" style="stroke:#7f7f7f; stroke-width:4; stroke-opacity:0.5; fill:none" points="
  1297.84,773.326 1604.37,1304.26 
  "/>
<polyline clip-path="url(#clip672)" style="stroke:#7f7f7f; stroke-width:4; stroke-opacity:0.5; fill:none" points="
  1297.84,773.326 1828.77,1079.86 
  "/>
<polyline clip-path="url(#clip672)" style="stroke:#560101; stroke-width:6; stroke-opacity:1; fill:none" points="
  1910.91,773.326 1828.77,466.791 
  "/>
<polyline clip-path="url(#clip672)" style="stroke:#320c01; stroke-width:6; stroke-opacity:1; fill:none" points="
  1828.77,466.791 1604.37,242.392 
  "/>
<polyline clip-path="url(#clip672)" style="stroke:#111501; stroke-width:6; stroke-opacity:1; fill:none" points="
  1604.37,242.392 1297.84,160.256 
  "/>
<polyline clip-path="url(#clip672)" style="stroke:#011a01; stroke-width:6; stroke-opacity:1; fill:none" points="
  1297.84,160.256 991.304,242.392 
  "/>
<polyline clip-path="url(#clip672)" style="stroke:#001c01; stroke-width:6; stroke-opacity:1; fill:none" points="
  991.304,242.392 766.905,466.791 
  "/>
<polyline clip-path="url(#clip672)" style="stroke:#001b07; stroke-width:6; stroke-opacity:1; fill:none" points="
  766.905,466.791 684.769,773.326 
  "/>
<polyline clip-path="url(#clip672)" style="stroke:#001819; stroke-width:6; stroke-opacity:1; fill:none" points="
  684.769,773.326 766.905,1079.86 
  "/>
<polyline clip-path="url(#clip672)" style="stroke:#010c59; stroke-width:6; stroke-opacity:1; fill:none" points="
  766.905,1079.86 991.304,1304.26 
  "/>
<polyline clip-path="url(#clip672)" style="stroke:#1000df; stroke-width:6; stroke-opacity:1; fill:none" points="
  991.304,1304.26 1297.84,1386.4 
  "/>
<polyline clip-path="url(#clip672)" style="stroke:#28008b; stroke-width:6; stroke-opacity:1; fill:none" points="
  1297.84,1386.4 1604.37,1304.26 
  "/>
<polyline clip-path="url(#clip672)" style="stroke:#460040; stroke-width:6; stroke-opacity:1; fill:none" points="
  1604.37,1304.26 1828.77,1079.86 
  "/>
<circle clip-path="url(#clip672)" cx="1910.91" cy="773.326" r="32" fill="#560101" fill-rule="evenodd" fill-opacity="1" stroke="#000000" stroke-opacity="1" stroke-width="0"/>
<circle clip-path="url(#clip672)" cx="1828.77" cy="466.791" r="32" fill="#320c01" fill-rule="evenodd" fill-opacity="1" stroke="#000000" stroke-opacity="1" stroke-width="0"/>
<circle clip-path="url(#clip672)" cx="1604.37" cy="242.392" r="32" fill="#111501" fill-rule="evenodd" fill-opacity="1" stroke="#000000" stroke-opacity="1" stroke-width="0"/>
<circle clip-path="url(#clip672)" cx="1297.84" cy="160.256" r="32" fill="#011a01" fill-rule="evenodd" fill-opacity="1" stroke="#000000" stroke-opacity="1" stroke-width="0"/>
<circle clip-path="url(#clip672)" cx="991.304" cy="242.392" r="32" fill="#001c01" fill-rule="evenodd" fill-opacity="1" stroke="#000000" stroke-opacity="1" stroke-width="0"/>
<circle clip-path="url(#clip672)" cx="766.905" cy="466.791" r="32" fill="#001b07" fill-rule="evenodd" fill-opacity="1" stroke="#000000" stroke-opacity="1" stroke-width="0"/>
<circle clip-path="url(#clip672)" cx="684.769" cy="773.326" r="32" fill="#001819" fill-rule="evenodd" fill-opacity="1" stroke="#000000" stroke-opacity="1" stroke-width="0"/>
<circle clip-path="url(#clip672)" cx="766.905" cy="1079.86" r="32" fill="#010c59" fill-rule="evenodd" fill-opacity="1" stroke="#000000" stroke-opacity="1" stroke-width="0"/>
<circle clip-path="url(#clip672)" cx="991.304" cy="1304.26" r="32" fill="#1000df" fill-rule="evenodd" fill-opacity="1" stroke="#000000" stroke-opacity="1" stroke-width="0"/>
<circle clip-path="url(#clip672)" cx="1297.84" cy="1386.4" r="32" fill="#28008b" fill-rule="evenodd" fill-opacity="1" stroke="#000000" stroke-opacity="1" stroke-width="0"/>
<circle clip-path="url(#clip672)" cx="1604.37" cy="1304.26" r="32" fill="#460040" fill-rule="evenodd" fill-opacity="1" stroke="#000000" stroke-opacity="1" stroke-width="0"/>
<circle clip-path="url(#clip672)" cx="1828.77" cy="1079.86" r="32" fill="#500110" fill-rule="evenodd" fill-opacity="1" stroke="#000000" stroke-opacity="1" stroke-width="0"/>
</svg>
