<?xml version="1.0" encoding="UTF-8" standalone="no"?>
<!-- Created with Inkscape (http://www.inkscape.org/) -->

<svg
   xmlns:osb="http://www.openswatchbook.org/uri/2009/osb"
   xmlns:dc="http://purl.org/dc/elements/1.1/"
   xmlns:cc="http://creativecommons.org/ns#"
   xmlns:rdf="http://www.w3.org/1999/02/22-rdf-syntax-ns#"
   xmlns:svg="http://www.w3.org/2000/svg"
   xmlns="http://www.w3.org/2000/svg"
   xmlns:sodipodi="http://sodipodi.sourceforge.net/DTD/sodipodi-0.dtd"
   xmlns:inkscape="http://www.inkscape.org/namespaces/inkscape"
   width="1024"
   height="1024"
   viewBox="0 0 270.93333 270.93333"
   version="1.1"
   id="svg8"
   sodipodi:docname="Command_Logo.svg"
   inkscape:export-filename="C:\Users\Alex\Command\Assets\Resources\Command_Logo.png"
   inkscape:export-xdpi="96.000008"
   inkscape:export-ydpi="96.000008"
   inkscape:version="0.92.3 (2405546, 2018-03-11)">
  <defs
     id="defs2">
    <linearGradient
       id="linearGradient6199"
       osb:paint="solid">
      <stop
         style="stop-color:#dd1331;stop-opacity:1;"
         offset="0"
         id="stop6197" />
    </linearGradient>
    <linearGradient
       id="linearGradient6067"
       osb:paint="solid">
      <stop
         style="stop-color:#dd5832;stop-opacity:1;"
         offset="0"
         id="stop6065" />
    </linearGradient>
  </defs>
  <sodipodi:namedview
     id="base"
     pagecolor="#ffffff"
     bordercolor="#666666"
     borderopacity="1.0"
     inkscape:pageopacity="0"
     inkscape:pageshadow="2"
     inkscape:zoom="0.68252378"
     inkscape:cx="1268.7252"
     inkscape:cy="329.78178"
     inkscape:document-units="mm"
     inkscape:current-layer="layer1"
     showgrid="false"
     fit-margin-top="10"
     fit-margin-right="10"
     fit-margin-left="10"
     fit-margin-bottom="10"
     units="px"
     inkscape:pagecheckerboard="false"
     showborder="true"
     borderlayer="false"
     inkscape:showpageshadow="true"
     inkscape:window-width="3840"
     inkscape:window-height="2035"
     inkscape:window-x="5459"
     inkscape:window-y="-13"
     inkscape:window-maximized="1" />
  <metadata
     id="metadata5">
    <rdf:RDF>
      <cc:Work
         rdf:about="">
        <dc:format>image/svg+xml</dc:format>
        <dc:type
           rdf:resource="http://purl.org/dc/dcmitype/StillImage" />
        <dc:title></dc:title>
      </cc:Work>
    </rdf:RDF>
  </metadata>
  <g
     inkscape:label="Layer 1"
     inkscape:groupmode="layer"
     id="layer1"
     transform="translate(-82.52621,99.959475)"
     style="display:inline">
    <g
       style="display:inline"
       id="g882"
       transform="translate(-323.51615,-3.6641221)">
      <path
         inkscape:connector-curvature="0"
         id="path822"
         d="m 546.54747,-93.228102 c 4.10802,14.293348 9.68658,38.099813 14.66114,59.178817 a 75.913177,75.913177 0 0 1 53.58741,53.536781 c 21.02528,4.961773 44.75033,10.521637 59.03775,14.623399 A 132.5778,132.5778 0 0 0 546.54747,-93.228102 Z m -10.09912,0.07493 A 132.5778,132.5778 0 0 0 409.10937,34.132599 c 14.29321,-4.10799 38.09989,-9.686084 59.17879,-14.660605 a 75.913177,75.913177 0 0 1 53.5368,-53.587425 c 4.96178,-21.025344 10.52161,-44.750201 14.62339,-59.03774 z M 673.9087,44.210019 c -14.29321,4.107987 -38.09989,9.686084 -59.17882,14.660602 a 75.913177,75.913177 0 0 1 -53.5373,53.587939 c -4.96176,21.02522 -10.52163,44.74983 -14.62339,59.03724 A 132.5778,132.5778 0 0 0 673.9087,44.210019 Z m -264.7244,0.0217 A 132.5778,132.5778 0 0 0 536.47007,171.57073 c -4.108,-14.29324 -9.6856,-38.09948 -14.66009,-59.17832 A 75.913177,75.913177 0 0 1 468.22202,58.855119 C 447.19674,53.893346 423.47169,48.333482 409.1843,44.231723 Z"
         style="opacity:1;fill:#323232;fill-opacity:1;stroke:none;stroke-width:1.5;stroke-linecap:butt;stroke-miterlimit:4;stroke-dasharray:none;stroke-dashoffset:0;stroke-opacity:1" />
      <circle
         r="50.539478"
         cy="39.171314"
         cx="541.50903"
         id="path4550-2"
         style="display:inline;fill:#dd1331;fill-opacity:1;stroke:none;stroke-width:11.06348991;stroke-miterlimit:4;stroke-dasharray:none;stroke-opacity:1" />
    </g>
  </g>
</svg>
