<?xml version="1.0" encoding="UTF-8" standalone="no"?>
<svg
   xmlns:dc="http://purl.org/dc/elements/1.1/"
   xmlns:cc="http://creativecommons.org/ns#"
   xmlns:rdf="http://www.w3.org/1999/02/22-rdf-syntax-ns#"
   xmlns:svg="http://www.w3.org/2000/svg"
   xmlns="http://www.w3.org/2000/svg"
   xmlns:sodipodi="http://sodipodi.sourceforge.net/DTD/sodipodi-0.dtd"
   xmlns:inkscape="http://www.inkscape.org/namespaces/inkscape"
   version="1.1"
   x="0px"
   y="0px"
   viewBox="0 0 1200 1200"
   enable-background="new 0 0 100 100"
   xml:space="preserve"
   id="svg2"
   inkscape:version="0.91 r13725"
   sodipodi:docname="noun_sun_cc.svg"
   width="1200"
   height="1200"><metadata
     id="metadata32"><rdf:RDF><cc:Work
         rdf:about=""><dc:format>image/svg+xml</dc:format><dc:type
           rdf:resource="http://purl.org/dc/dcmitype/StillImage" /><dc:title></dc:title></cc:Work></rdf:RDF></metadata><defs
     id="defs30" /><sodipodi:namedview
     pagecolor="#ffffff"
     bordercolor="#666666"
     borderopacity="1"
     objecttolerance="10"
     gridtolerance="10"
     guidetolerance="10"
     inkscape:pageopacity="0"
     inkscape:pageshadow="2"
     inkscape:window-width="1368"
     inkscape:window-height="849"
     id="namedview28"
     showgrid="false"
     inkscape:zoom="0.472"
     inkscape:cx="447.9026"
     inkscape:cy="524.55392"
     inkscape:window-x="-8"
     inkscape:window-y="-8"
     inkscape:window-maximized="1"
     inkscape:current-layer="svg2" /><g
     id="g4144"
     transform="translate(55.084746,110.16949)"
     style="fill:#000000;fill-opacity:1"
     inkscape:export-xdpi="94"
     inkscape:export-ydpi="94"><path
       inkscape:connector-curvature="0"
       id="path4"
       d="m 698.10623,906.69299 c 50.53246,-41.08836 99.07554,-170.39813 46.78324,-249.17543 -24.34259,21.77389 -52.19393,39.67832 -82.63583,52.76232 34.33322,36.34446 46.14927,138.45873 35.85259,196.41311 z"
       style="fill:#000000;fill-opacity:1" /><path
       inkscape:connector-curvature="0"
       id="path6"
       d="m 455.23778,721.71335 c 2.91849,49.93128 -53.65863,135.72607 -98.81321,173.45873 65.10304,1.06027 185.36222,-66.74265 195.99775,-160.68078 -3.11524,0.10931 -6.21955,0.24047 -9.36758,0.24047 -30.54027,0.0109 -60.00935,-4.55808 -87.81696,-13.01842 z"
       style="fill:#000000;fill-opacity:1" /><path
       inkscape:connector-curvature="0"
       id="path8"
       d="m 289.36494,597.27866 c -29.74233,40.20299 -128.39159,69.59555 -187.28601,69.49718 49.23172,42.65144 185.01243,68.02152 253.51491,2.80917 -25.76358,-20.35289 -48.16051,-44.75014 -66.2289,-72.30635 z"
       style="fill:#000000;fill-opacity:1" /><path
       inkscape:connector-curvature="0"
       id="path10"
       d="m 242.10075,395.48766 c -48.64146,11.5865 -143.005892,-29.26139 -188.029301,-67.15801 10.274825,64.26139 97.873171,170.8463 192.182951,165.09677 -4.15365,-19.97033 -6.36165,-40.65115 -6.36165,-61.8457 0,-12.22049 0.80887,-24.24422 2.208,-36.09306 z"
       style="fill:#000000;fill-opacity:1" /><path
       inkscape:connector-curvature="0"
       id="path12"
       d="M 335.86399,210.58453 C 291.10292,188.30784 244.98644,96.22792 234.85372,38.197019 201.39495,94.041781 200.01768,232.0305 276.0186,288.23598 c 15.65272,-29.07557 35.95095,-55.25451 59.84539,-77.65145 z"
       style="fill:#000000;fill-opacity:1" /><path
       inkscape:connector-curvature="0"
       id="path14"
       d="M 559.81145,-67.885084 C 498.3046,-46.603079 408.49826,58.232928 430.62192,150.13796 460.49543,138.16888 492.6753,130.76882 526.3199,128.92154 506.5026,83.012742 530.33145,-16.970047 559.81145,-67.885084 Z"
       style="fill:#000000;fill-opacity:1" /><path
       inkscape:connector-curvature="0"
       id="path16"
       d="M 876.95377,59.763221 C 816.14647,36.524627 679.98318,59.10738 637.82361,143.68887 c 31.55683,10.41692 60.87287,25.82916 86.90971,45.38411 14.24265,-47.9091 96.86755,-109.262921 152.22045,-129.309759 z"
       style="fill:#000000;fill-opacity:1" /><path
       inkscape:connector-curvature="0"
       id="path18"
       d="m 1037.8313,361.38398 c -31.6552,-56.90504 -150.5262,-127.13455 -237.19544,-89.35817 17.13928,27.5562 29.92816,58.06368 37.5359,90.57148 41.75515,-27.53435 144.38316,-21.4241 199.65954,-1.21331 z"
       style="fill:#000000;fill-opacity:1" /><path
       inkscape:connector-curvature="0"
       id="path20"
       d="m 843.04684,474.9536 c -4.78763,33.19643 -14.98595,64.64394 -29.63304,93.47904 49.66894,5.69487 124.42377,76.38348 153.78353,127.41877 C 979.52712,631.9398 933.65112,501.78838 843.04684,474.9536 Z"
       style="fill:#000000;fill-opacity:1" /><circle
       id="circle22"
       r="263.62579"
       cy="431.59155"
       cx="543.04382"
       style="fill:#000000;fill-opacity:1" /></g><text
     x="31.197786"
     y="1119.3038"
     font-size="5px"
     font-weight="bold"
     id="text24"
     style="font-weight:bold;font-size:54.65332413px;font-family:'Helvetica Neue', Helvetica, Arial-Unicode, Arial, Sans-serif;fill:#000000">Created by Lance Hancock</text>
<text
     x="31.197786"
     y="1173.9573"
     font-size="5px"
     font-weight="bold"
     id="text26"
     style="font-weight:bold;font-size:54.65332413px;font-family:'Helvetica Neue', Helvetica, Arial-Unicode, Arial, Sans-serif;fill:#000000">from the Noun Project</text>
</svg>