<svg class="main-svg" xmlns="http://www.w3.org/2000/svg" xmlns:xlink="http://www.w3.org/1999/xlink" width="600" height="400" viewBox="0 0 600 400"><rect x="0" y="0" width="600" height="400" style="fill: rgb(255, 255, 255); fill-opacity: 1;"/><defs id="defs-299024"><g class="clips"><clipPath id="clip299024xyplot" class="plotclip"><rect width="491.67415791776034" height="311.6633858267717"/></clipPath><clipPath class="axesclip" id="clip299024x"><rect x="49.74972659667541" y="0" width="491.67415791776034" height="400"/></clipPath><clipPath class="axesclip" id="clip299024y"><rect x="0" y="41.04330708661415" width="600" height="311.6633858267717"/></clipPath><clipPath class="axesclip" id="clip299024xy"><rect x="49.74972659667541" y="41.04330708661415" width="491.67415791776034" height="311.6633858267717"/></clipPath></g><g class="gradients"/></defs><g class="bglayer"/><g class="layer-below"><g class="imagelayer"/><g class="shapelayer"/></g><g class="cartesianlayer"><g class="subplot xy"><g class="layer-subplot"><g class="shapelayer"/><g class="imagelayer"/></g><g class="gridlayer"><g class="x"><path class="xgrid crisp" transform="translate(74.20972659667541,0)" d="M0,41.04330708661415v311.6633858267717" style="stroke: rgb(0, 0, 0); stroke-opacity: 0.1; stroke-width: 0.5px;"/><path class="xgrid crisp" transform="translate(179.6297265966754,0)" d="M0,41.04330708661415v311.6633858267717" style="stroke: rgb(0, 0, 0); stroke-opacity: 0.1; stroke-width: 0.5px;"/><path class="xgrid crisp" transform="translate(285.04972659667544,0)" d="M0,41.04330708661415v311.6633858267717" style="stroke: rgb(0, 0, 0); stroke-opacity: 0.1; stroke-width: 0.5px;"/><path class="xgrid crisp" transform="translate(390.4597265966754,0)" d="M0,41.04330708661415v311.6633858267717" style="stroke: rgb(0, 0, 0); stroke-opacity: 0.1; stroke-width: 0.5px;"/><path class="xgrid crisp" transform="translate(495.8797265966754,0)" d="M0,41.04330708661415v311.6633858267717" style="stroke: rgb(0, 0, 0); stroke-opacity: 0.1; stroke-width: 0.5px;"/></g><g class="y"><path class="ygrid crisp" transform="translate(0,343.88330708661414)" d="M49.74972659667541,0h491.67415791776034" style="stroke: rgb(0, 0, 0); stroke-opacity: 0.1; stroke-width: 0.5px;"/><path class="ygrid crisp" transform="translate(0,270.38330708661414)" d="M49.74972659667541,0h491.67415791776034" style="stroke: rgb(0, 0, 0); stroke-opacity: 0.1; stroke-width: 0.5px;"/><path class="ygrid crisp" transform="translate(0,196.87330708661415)" d="M49.74972659667541,0h491.67415791776034" style="stroke: rgb(0, 0, 0); stroke-opacity: 0.1; stroke-width: 0.5px;"/><path class="ygrid crisp" transform="translate(0,123.37330708661415)" d="M49.74972659667541,0h491.67415791776034" style="stroke: rgb(0, 0, 0); stroke-opacity: 0.1; stroke-width: 0.5px;"/><path class="ygrid crisp" transform="translate(0,49.86330708661415)" d="M49.74972659667541,0h491.67415791776034" style="stroke: rgb(0, 0, 0); stroke-opacity: 0.1; stroke-width: 0.5px;"/></g></g><g class="zerolinelayer"/><path class="xlines-below"/><path class="ylines-below"/><g class="overlines-below"/><g class="xaxislayer-below"/><g class="yaxislayer-below"/><g class="overaxes-below"/><g class="plot" transform="translate(49.74972659667541, 41.04330708661415)" clip-path="url('#clip299024xyplot')"><g class="scatterlayer mlayer"><g class="trace scatter tracefd4a0c" style="stroke-miterlimit: 2; opacity: 1;"><g class="fills"/><g class="errorbars"/><g class="lines"><path class="js-line" d="M13.92,302.72L25.51,301.97L25.62,301.96L35.21,299.84L35.32,299.81L49.44,294.35L49.55,294.3L60.41,288.84L60.51,288.78L84.34,274.69L84.44,274.6L90.03,268.83L90.13,268.7L100.04,255.83L100.15,255.68L109.11,241.1L109.21,240.9L118.81,220.99L118.91,220.74L123.23,208.66L123.34,208.34L132.51,178.49L132.62,178.11L147.27,119.71L147.38,119.25L153.6,94.65L153.7,94.29L162.13,69.19L162.24,68.91L169.41,48.64L169.51,48.31L175.31,33.49L175.42,33.3L178.47,29.08L178.58,28.97L184.48,22.47L184.59,22.31L189.75,15.45L189.86,15.36L197.34,10.25L197.45,10.19L201.56,8.85L201.67,8.84L205.15,9.39L205.25,9.43L208.1,11.57L208.2,11.69L211.26,16.41L211.37,16.6L215.69,22.87L215.79,22.97L220.85,28.48L220.96,28.65L225.17,37.24L225.28,37.49L230.02,50.1L230.13,50.41L236.24,69.84L236.35,70.2L245.52,104.83L245.63,105.27L260.17,165.91L260.28,166.34L272.51,215.66L272.61,216.03L280.41,239.8L280.52,240.08L291.69,266.73L291.8,266.94L299.5,279.51L299.6,279.65L306.87,287.76L306.98,287.85L313.83,293.06L313.94,293.13L321.53,296.95L321.63,296.99L331.23,299.86L331.33,299.88L340.19,301.23L340.29,301.24L351.89,302.14L351.99,302.14L380.46,302.75L380.56,302.75L477.76,302.84" style="vector-effect: non-scaling-stroke; fill: none; stroke: rgb(255, 0, 0); stroke-opacity: 1; stroke-width: 1px; opacity: 1;"/></g><g class="points"/><g class="text"/></g><g class="trace scatter trace905b34" style="stroke-miterlimit: 2; opacity: 1;"><g class="fills"/><g class="errorbars"/><g class="lines"><path class="js-line" d="M13.92,302.74L29.83,301.31L29.94,301.29L36.9,299.22L37,299.18L44.17,295.65L44.28,295.59L53.24,289.18L53.34,289.08L59.67,282.7L59.77,282.58L74.11,265.84L74.21,265.71L85.6,250.09L85.71,249.9L93.08,234.31L93.19,234.08L108.9,198.16L109,197.87L119.65,167.69L119.76,167.34L129.35,131.13L129.45,130.72L135.57,105.06L135.67,104.6L152.65,36.14L152.75,35.85L157.18,26.23L157.29,26.05L161.5,20L161.61,19.88L170.99,9.79L171.1,9.71L173.52,8.82L173.63,8.83L175.73,9.72L175.84,9.8L178.37,12.88L178.47,13.05L189.54,31.4L189.65,31.66L198.29,55.25L198.4,55.58L205.04,79.98L205.15,80.41L213.26,118.4L213.37,118.91L219.17,145.11L219.27,145.56L239.62,229.11L239.72,229.47L247.95,254.01L248.05,254.28L256.17,271.72L256.27,271.91L263.02,282.11L263.13,282.24L267.55,287.16L267.66,287.26L273.67,292.23L273.77,292.3L280.41,296.14L280.52,296.19L289.16,299.1L289.27,299.13L301.6,301.31L301.71,301.33L321.42,302.47L321.53,302.47L477.76,302.84" style="vector-effect: non-scaling-stroke; fill: none; stroke: rgb(0, 128, 0); stroke-opacity: 1; stroke-width: 1px; opacity: 1;"/></g><g class="points"/><g class="text"/></g><g class="trace scatter tracea2ab6d" style="stroke-miterlimit: 2; opacity: 1;"><g class="fills"/><g class="errorbars"/><g class="lines"><path class="js-line" d="M13.92,301.04L18.34,298.81L18.45,298.73L22.03,295.11L22.14,294.97L25.93,288.03L26.04,287.78L29.94,275.64L30.04,275.23L33.42,259.46L33.52,258.88L37.53,233.72L37.63,232.97L42.06,197.72L42.17,196.8L50.6,125.34L50.71,124.48L58.4,64.64L58.51,63.99L65.57,22.87L65.68,22.38L68.1,14.58L68.21,14.38L70.31,11.88L70.42,11.8L75.37,8.9L75.48,8.95L76.75,10.43L76.85,10.64L78.43,15.65L78.54,16.09L84.02,44.16L84.12,44.66L93.93,92.01L94.03,92.7L98.25,123.36L98.36,124.18L107,188.86L107.11,189.54L111.64,215.2L111.74,215.72L119.02,247.28L119.12,247.64L124.5,262.8L124.61,263.05L130.19,275L130.3,275.2L136.2,285.38L136.31,285.53L140.42,290.72L140.52,290.83L146.11,295.13L146.22,295.19L152.75,298.38L152.86,298.42L162.66,300.94L162.77,300.95L172.47,302.04L172.57,302.05L202.72,302.79L202.83,302.79L477.76,302.84" style="vector-effect: non-scaling-stroke; fill: none; stroke: rgb(0, 0, 255); stroke-opacity: 1; stroke-width: 1px; opacity: 1;"/></g><g class="points"/><g class="text"/></g></g></g><g class="overplot"/><path class="xlines-above crisp" d="M48.74972659667541,353.20669291338584H541.4238845144357" style="fill: none; stroke-width: 1px; stroke: rgb(0, 0, 0); stroke-opacity: 1;"/><path class="ylines-above crisp" d="M49.24972659667541,41.04330708661415V352.70669291338584" style="fill: none; stroke-width: 1px; stroke: rgb(0, 0, 0); stroke-opacity: 1;"/><g class="overlines-above"/><g class="xaxislayer-above"><path class="xtick ticks crisp" d="M0,352.70669291338584v-5" transform="translate(74.20972659667541,0)" style="stroke: rgb(0, 0, 0); stroke-opacity: 1; stroke-width: 1px;"/><path class="xtick ticks crisp" d="M0,352.70669291338584v-5" transform="translate(179.6297265966754,0)" style="stroke: rgb(0, 0, 0); stroke-opacity: 1; stroke-width: 1px;"/><path class="xtick ticks crisp" d="M0,352.70669291338584v-5" transform="translate(285.04972659667544,0)" style="stroke: rgb(0, 0, 0); stroke-opacity: 1; stroke-width: 1px;"/><path class="xtick ticks crisp" d="M0,352.70669291338584v-5" transform="translate(390.4597265966754,0)" style="stroke: rgb(0, 0, 0); stroke-opacity: 1; stroke-width: 1px;"/><path class="xtick ticks crisp" d="M0,352.70669291338584v-5" transform="translate(495.8797265966754,0)" style="stroke: rgb(0, 0, 0); stroke-opacity: 1; stroke-width: 1px;"/><g class="xtick"><text text-anchor="middle" x="0" y="366.9066929133858" transform="translate(74.20972659667541,0)" style="font-family: sans-serif; font-size: 11px; fill: rgb(0, 0, 0); fill-opacity: 1; white-space: pre;">400</text></g><g class="xtick"><text text-anchor="middle" x="0" y="366.9066929133858" transform="translate(179.6297265966754,0)" style="font-family: sans-serif; font-size: 11px; fill: rgb(0, 0, 0); fill-opacity: 1; white-space: pre;">500</text></g><g class="xtick"><text text-anchor="middle" x="0" y="366.9066929133858" transform="translate(285.04972659667544,0)" style="font-family: sans-serif; font-size: 11px; fill: rgb(0, 0, 0); fill-opacity: 1; white-space: pre;">600</text></g><g class="xtick"><text text-anchor="middle" x="0" y="366.9066929133858" transform="translate(390.4597265966754,0)" style="font-family: sans-serif; font-size: 11px; fill: rgb(0, 0, 0); fill-opacity: 1; white-space: pre;">700</text></g><g class="xtick"><text text-anchor="middle" x="0" y="366.9066929133858" transform="translate(495.8797265966754,0)" style="font-family: sans-serif; font-size: 11px; fill: rgb(0, 0, 0); fill-opacity: 1; white-space: pre;">800</text></g></g><g class="yaxislayer-above"><path class="ytick ticks crisp" d="M49.74972659667541,0h5" transform="translate(0,343.88330708661414)" style="stroke: rgb(0, 0, 0); stroke-opacity: 1; stroke-width: 1px;"/><path class="ytick ticks crisp" d="M49.74972659667541,0h5" transform="translate(0,270.38330708661414)" style="stroke: rgb(0, 0, 0); stroke-opacity: 1; stroke-width: 1px;"/><path class="ytick ticks crisp" d="M49.74972659667541,0h5" transform="translate(0,196.87330708661415)" style="stroke: rgb(0, 0, 0); stroke-opacity: 1; stroke-width: 1px;"/><path class="ytick ticks crisp" d="M49.74972659667541,0h5" transform="translate(0,123.37330708661415)" style="stroke: rgb(0, 0, 0); stroke-opacity: 1; stroke-width: 1px;"/><path class="ytick ticks crisp" d="M49.74972659667541,0h5" transform="translate(0,49.86330708661415)" style="stroke: rgb(0, 0, 0); stroke-opacity: 1; stroke-width: 1px;"/><g class="ytick"><text text-anchor="end" x="46.549726596675406" y="3.8499999999999996" transform="translate(0,343.88330708661414)" style="font-family: sans-serif; font-size: 11px; fill: rgb(0, 0, 0); fill-opacity: 1; white-space: pre;">0.00</text></g><g class="ytick"><text text-anchor="end" x="46.549726596675406" y="3.8499999999999996" transform="translate(0,270.38330708661414)" style="font-family: sans-serif; font-size: 11px; fill: rgb(0, 0, 0); fill-opacity: 1; white-space: pre;">0.25</text></g><g class="ytick"><text text-anchor="end" x="46.549726596675406" y="3.8499999999999996" transform="translate(0,196.87330708661415)" style="font-family: sans-serif; font-size: 11px; fill: rgb(0, 0, 0); fill-opacity: 1; white-space: pre;">0.50</text></g><g class="ytick"><text text-anchor="end" x="46.549726596675406" y="3.8499999999999996" transform="translate(0,123.37330708661415)" style="font-family: sans-serif; font-size: 11px; fill: rgb(0, 0, 0); fill-opacity: 1; white-space: pre;">0.75</text></g><g class="ytick"><text text-anchor="end" x="46.549726596675406" y="3.8499999999999996" transform="translate(0,49.86330708661415)" style="font-family: sans-serif; font-size: 11px; fill: rgb(0, 0, 0); fill-opacity: 1; white-space: pre;">1.00</text></g></g><g class="overaxes-above"/></g></g><g class="polarlayer"/><g class="ternarylayer"/><g class="geolayer"/><g class="pielayer"/><g class="sunburstlayer"/><g class="glimages"/><defs id="topdefs-299024"><g class="clips"/><clipPath id="legend299024"><rect width="55" height="67" x="0" y="0"/></clipPath></defs><g class="layer-above"><g class="imagelayer"/><g class="shapelayer"/></g><g class="infolayer"><g class="legend" pointer-events="all" transform="translate(545, 20)"><rect class="bg" shape-rendering="crispEdges" width="55" height="67" x="0" y="0" style="stroke: rgb(0, 0, 0); stroke-opacity: 1; fill: rgb(255, 255, 255); fill-opacity: 1; stroke-width: 0px;"/><g class="scrollbox" transform="translate(0, 0)" clip-path="url('#legend299024')"><g class="groups" transform="translate(0, 0)"><g class="traces" transform="translate(0, 14.5)" style="opacity: 1;"><text class="legendtext user-select-none" text-anchor="start" x="40" y="4.29" style="font-family: sans-serif; font-size: 11px; fill: rgb(0, 0, 0); fill-opacity: 1; white-space: pre;">L</text><g class="layers" style="opacity: 1;"><g class="legendfill"/><g class="legendlines"><path class="js-line" d="M5,0h30" style="fill: none; stroke: rgb(255, 0, 0); stroke-opacity: 1; stroke-width: 1px;"/></g><g class="legendsymbols"><g class="legendpoints"/></g></g><rect class="legendtoggle" pointer-events="all" x="0" y="-9.5" width="95" height="19" style="cursor: pointer; fill: rgb(0, 0, 0); fill-opacity: 0;"/></g></g><g class="groups" transform="translate(0, 0)"><g class="traces" transform="translate(0, 33.5)" style="opacity: 1;"><text class="legendtext user-select-none" text-anchor="start" x="40" y="4.29" style="font-family: sans-serif; font-size: 11px; fill: rgb(0, 0, 0); fill-opacity: 1; white-space: pre;">M</text><g class="layers" style="opacity: 1;"><g class="legendfill"/><g class="legendlines"><path class="js-line" d="M5,0h30" style="fill: none; stroke: rgb(0, 128, 0); stroke-opacity: 1; stroke-width: 1px;"/></g><g class="legendsymbols"><g class="legendpoints"/></g></g><rect class="legendtoggle" pointer-events="all" x="0" y="-9.5" width="95" height="19" style="cursor: pointer; fill: rgb(0, 0, 0); fill-opacity: 0;"/></g></g><g class="groups" transform="translate(0, 0)"><g class="traces" transform="translate(0, 52.5)" style="opacity: 1;"><text class="legendtext user-select-none" text-anchor="start" x="40" y="4.29" style="font-family: sans-serif; font-size: 11px; fill: rgb(0, 0, 0); fill-opacity: 1; white-space: pre;">S</text><g class="layers" style="opacity: 1;"><g class="legendfill"/><g class="legendlines"><path class="js-line" d="M5,0h30" style="fill: none; stroke: rgb(0, 0, 255); stroke-opacity: 1; stroke-width: 1px;"/></g><g class="legendsymbols"><g class="legendpoints"/></g></g><rect class="legendtoggle" pointer-events="all" x="0" y="-9.5" width="95" height="19" style="cursor: pointer; fill: rgb(0, 0, 0); fill-opacity: 0;"/></g></g></g><rect class="scrollbar" rx="20" ry="3" width="0" height="0" x="0" y="0" style="fill: rgb(128, 139, 164); fill-opacity: 1;"/></g><g class="g-gtitle"/><g class="g-xtitle" transform="translate(0,-10.706692913385837)"><text class="xtitle" x="295.5868055555556" y="407.70669291338584" text-anchor="middle" style="font-family: sans-serif; font-size: 15px; fill: rgb(0, 0, 0); opacity: 1; font-weight: normal; white-space: pre;">Wavelength (nm)</text></g><g class="g-ytitle" transform="translate(3.75,0)"><text class="ytitle" transform="rotate(-90,9.749726596675409,196.875)" x="9.749726596675409" y="196.875" text-anchor="middle" style="font-family: sans-serif; font-size: 15px; fill: rgb(0, 0, 0); opacity: 1; font-weight: normal; white-space: pre;">Sensitivity</text></g><g class="annotation" data-index="0" style="opacity: 1;"><g class="annotation-text-g" transform="rotate(0,295.58680555555554,33.00000000000001)"><g class="cursor-pointer" transform="translate(160, 20)"><rect class="bg" x="0.5" y="0.5" width="270" height="25" style="stroke-width: 1px; stroke: rgb(0, 0, 0); stroke-opacity: 0; fill: rgb(0, 0, 0); fill-opacity: 0;"/><text class="annotation-text" text-anchor="middle" x="135.390625" y="20" style="font-family: sans-serif; font-size: 20px; fill: rgb(0, 0, 0); fill-opacity: 1; white-space: pre;">Cone Fundamentals(linss10e)</text></g></g></g></g></svg>