<?xml version="1.0" encoding="utf-8" standalone="no"?>
<!DOCTYPE svg PUBLIC "-//W3C//DTD SVG 1.1//EN" "http://www.w3.org/Graphics/SVG/1.1/DTD/svg11.dtd">
<svg width="392" height="373" version="1.1" xmlns:xlink="http://www.w3.org/1999/xlink" xmlns="http://www.w3.org/2000/svg">
  <polyline points="71.8126,315.95 71.8126,319.95" style="fill:none;stroke:black;stroke-width:1" />
  <polyline points="88.1574,315.95 88.1574,319.95" style="fill:none;stroke:black;stroke-width:1" />
  <polyline points="104.5023,315.95 104.5023,319.95" style="fill:none;stroke:black;stroke-width:1" />
  <polyline points="137.1921,315.95 137.1921,319.95" style="fill:none;stroke:black;stroke-width:1" />
  <polyline points="153.537,315.95 153.537,319.95" style="fill:none;stroke:black;stroke-width:1" />
  <polyline points="169.8819,315.95 169.8819,319.95" style="fill:none;stroke:black;stroke-width:1" />
  <polyline points="202.5717,315.95 202.5717,319.95" style="fill:none;stroke:black;stroke-width:1" />
  <polyline points="218.9166,315.95 218.9166,319.95" style="fill:none;stroke:black;stroke-width:1" />
  <polyline points="235.2615,315.95 235.2615,319.95" style="fill:none;stroke:black;stroke-width:1" />
  <polyline points="267.9513,315.95 267.9513,319.95" style="fill:none;stroke:black;stroke-width:1" />
  <polyline points="284.2962,315.95 284.2962,319.95" style="fill:none;stroke:black;stroke-width:1" />
  <polyline points="300.641,315.95 300.641,319.95" style="fill:none;stroke:black;stroke-width:1" />
  <polyline points="333.3308,315.95 333.3308,319.95" style="fill:none;stroke:black;stroke-width:1" />
  <polyline points="349.6757,315.95 349.6757,319.95" style="fill:none;stroke:black;stroke-width:1" />
  <polyline points="366.0206,315.95 366.0206,319.95" style="fill:none;stroke:black;stroke-width:1" />
  <polyline points="53.825,298.1765 49.825,298.1765" style="fill:none;stroke:black;stroke-width:1" />
  <polyline points="53.825,281.8787 49.825,281.8787" style="fill:none;stroke:black;stroke-width:1" />
  <polyline points="53.825,265.5808 49.825,265.5808" style="fill:none;stroke:black;stroke-width:1" />
  <polyline points="53.825,232.9851 49.825,232.9851" style="fill:none;stroke:black;stroke-width:1" />
  <polyline points="53.825,216.6873 49.825,216.6873" style="fill:none;stroke:black;stroke-width:1" />
  <polyline points="53.825,200.3894 49.825,200.3894" style="fill:none;stroke:black;stroke-width:1" />
  <polyline points="53.825,167.7937 49.825,167.7937" style="fill:none;stroke:black;stroke-width:1" />
  <polyline points="53.825,151.4958 49.825,151.4958" style="fill:none;stroke:black;stroke-width:1" />
  <polyline points="53.825,135.198 49.825,135.198" style="fill:none;stroke:black;stroke-width:1" />
  <polyline points="53.825,102.6023 49.825,102.6023" style="fill:none;stroke:black;stroke-width:1" />
  <polyline points="53.825,86.3044 49.825,86.3044" style="fill:none;stroke:black;stroke-width:1" />
  <polyline points="53.825,70.0065 49.825,70.0065" style="fill:none;stroke:black;stroke-width:1" />
  <polyline points="53.825,37.4108 49.825,37.4108" style="fill:none;stroke:black;stroke-width:1" />
  <polyline points="53.825,21.113 49.825,21.113" style="fill:none;stroke:black;stroke-width:1" />
  <text dominant-baseline="hanging" text-anchor="middle" transform="translate(55.4677,326.95)" font-family="Segoe UI" font-size="12" font-weight="400" fill="black">0</text>
  <text dominant-baseline="hanging" text-anchor="middle" transform="translate(120.8472,326.95)" font-family="Segoe UI" font-size="12" font-weight="400" fill="black">0.2</text>
  <text dominant-baseline="hanging" text-anchor="middle" transform="translate(186.2268,326.95)" font-family="Segoe UI" font-size="12" font-weight="400" fill="black">0.4</text>
  <text dominant-baseline="hanging" text-anchor="middle" transform="translate(251.6064,326.95)" font-family="Segoe UI" font-size="12" font-weight="400" fill="black">0.6</text>
  <text dominant-baseline="hanging" text-anchor="middle" transform="translate(316.9859,326.95)" font-family="Segoe UI" font-size="12" font-weight="400" fill="black">0.8</text>
  <text dominant-baseline="hanging" text-anchor="middle" transform="translate(382.3655,326.95)" font-family="Segoe UI" font-size="12" font-weight="400" fill="black">1</text>
  <polyline points="55.4677,315.95 55.4677,322.95" style="fill:none;stroke:black;stroke-width:1" />
  <polyline points="120.8472,315.95 120.8472,322.95" style="fill:none;stroke:black;stroke-width:1" />
  <polyline points="186.2268,315.95 186.2268,322.95" style="fill:none;stroke:black;stroke-width:1" />
  <polyline points="251.6064,315.95 251.6064,322.95" style="fill:none;stroke:black;stroke-width:1" />
  <polyline points="316.9859,315.95 316.9859,322.95" style="fill:none;stroke:black;stroke-width:1" />
  <polyline points="382.3655,315.95 382.3655,322.95" style="fill:none;stroke:black;stroke-width:1" />
  <text dominant-baseline="baseline" text-anchor="middle" transform="translate(218.9125,361)" font-family="Segoe UI" font-size="12" font-weight="400" fill="black">Color Component Value</text>
  <text dominant-baseline="middle" text-anchor="end" transform="translate(42.825,314.4744)" font-family="Segoe UI" font-size="12" font-weight="400" fill="black">0</text>
  <text dominant-baseline="middle" text-anchor="end" transform="translate(42.825,249.283)" font-family="Segoe UI" font-size="12" font-weight="400" fill="black">20</text>
  <text dominant-baseline="middle" text-anchor="end" transform="translate(42.825,184.0915)" font-family="Segoe UI" font-size="12" font-weight="400" fill="black">40</text>
  <text dominant-baseline="middle" text-anchor="end" transform="translate(42.825,118.9001)" font-family="Segoe UI" font-size="12" font-weight="400" fill="black">60</text>
  <text dominant-baseline="middle" text-anchor="end" transform="translate(42.825,53.7087)" font-family="Segoe UI" font-size="12" font-weight="400" fill="black">80</text>
  <polyline points="53.825,314.4744 46.825,314.4744" style="fill:none;stroke:black;stroke-width:1" />
  <polyline points="53.825,249.283 46.825,249.283" style="fill:none;stroke:black;stroke-width:1" />
  <polyline points="53.825,184.0915 46.825,184.0915" style="fill:none;stroke:black;stroke-width:1" />
  <polyline points="53.825,118.9001 46.825,118.9001" style="fill:none;stroke:black;stroke-width:1" />
  <polyline points="53.825,53.7087 46.825,53.7087" style="fill:none;stroke:black;stroke-width:1" />
  <text dominant-baseline="hanging" text-anchor="middle" transform="translate(12,161.975) rotate(-90)" font-family="Segoe UI" font-size="12" font-weight="400" fill="black">Intensity</text>
  <ellipse cx="55.4677" cy="313.4783" rx="2" ry="2" style="fill:rgb(255,0,0);stroke:none;" />
  <ellipse cx="55.4677" cy="313.4568" rx="2" ry="2" style="fill:rgb(255,0,0);stroke:none;" />
  <ellipse cx="55.4677" cy="313.476" rx="2" ry="2" style="fill:rgb(255,0,0);stroke:none;" />
  <ellipse cx="61.0083" cy="311.3886" rx="2" ry="2" style="fill:rgb(255,0,0);stroke:none;" />
  <ellipse cx="66.5489" cy="309.585" rx="2" ry="2" style="fill:rgb(255,0,0);stroke:none;" />
  <ellipse cx="72.0896" cy="307.7597" rx="2" ry="2" style="fill:rgb(255,0,0);stroke:none;" />
  <ellipse cx="77.6302" cy="306.0484" rx="2" ry="2" style="fill:rgb(255,0,0);stroke:none;" />
  <ellipse cx="83.1709" cy="304.1905" rx="2" ry="2" style="fill:rgb(255,0,0);stroke:none;" />
  <ellipse cx="88.7115" cy="302.1989" rx="2" ry="2" style="fill:rgb(255,0,0);stroke:none;" />
  <ellipse cx="94.2521" cy="300.5104" rx="2" ry="2" style="fill:rgb(255,0,0);stroke:none;" />
  <ellipse cx="99.7928" cy="298.7567" rx="2" ry="2" style="fill:rgb(255,0,0);stroke:none;" />
  <ellipse cx="105.3334" cy="296.8075" rx="2" ry="2" style="fill:rgb(255,0,0);stroke:none;" />
  <ellipse cx="110.8741" cy="294.7214" rx="2" ry="2" style="fill:rgb(255,0,0);stroke:none;" />
  <ellipse cx="116.4147" cy="293.1959" rx="2" ry="2" style="fill:rgb(255,0,0);stroke:none;" />
  <ellipse cx="121.9554" cy="291.4129" rx="2" ry="2" style="fill:rgb(255,0,0);stroke:none;" />
  <ellipse cx="127.496" cy="289.6267" rx="2" ry="2" style="fill:rgb(255,0,0);stroke:none;" />
  <ellipse cx="133.0366" cy="287.7035" rx="2" ry="2" style="fill:rgb(255,0,0);stroke:none;" />
  <ellipse cx="138.5773" cy="285.8782" rx="2" ry="2" style="fill:rgb(255,0,0);stroke:none;" />
  <ellipse cx="144.1179" cy="284.1017" rx="2" ry="2" style="fill:rgb(255,0,0);stroke:none;" />
  <ellipse cx="149.6586" cy="282.2307" rx="2" ry="2" style="fill:rgb(255,0,0);stroke:none;" />
  <ellipse cx="155.1992" cy="280.5749" rx="2" ry="2" style="fill:rgb(255,0,0);stroke:none;" />
  <ellipse cx="160.7399" cy="278.3258" rx="2" ry="2" style="fill:rgb(255,0,0);stroke:none;" />
  <ellipse cx="166.2805" cy="276.5656" rx="2" ry="2" style="fill:rgb(255,0,0);stroke:none;" />
  <ellipse cx="171.8211" cy="274.675" rx="2" ry="2" style="fill:rgb(255,0,0);stroke:none;" />
  <ellipse cx="177.3618" cy="273.2082" rx="2" ry="2" style="fill:rgb(255,0,0);stroke:none;" />
  <ellipse cx="182.9024" cy="271.2525" rx="2" ry="2" style="fill:rgb(255,0,0);stroke:none;" />
  <ellipse cx="188.4431" cy="269.199" rx="2" ry="2" style="fill:rgb(255,0,0);stroke:none;" />
  <ellipse cx="193.9837" cy="267.4062" rx="2" ry="2" style="fill:rgb(255,0,0);stroke:none;" />
  <ellipse cx="199.5243" cy="265.8416" rx="2" ry="2" style="fill:rgb(255,0,0);stroke:none;" />
  <ellipse cx="205.065" cy="263.6903" rx="2" ry="2" style="fill:rgb(255,0,0);stroke:none;" />
  <ellipse cx="210.6056" cy="261.7997" rx="2" ry="2" style="fill:rgb(255,0,0);stroke:none;" />
  <ellipse cx="216.1463" cy="260.3003" rx="2" ry="2" style="fill:rgb(255,0,0);stroke:none;" />
  <ellipse cx="221.6869" cy="258.312" rx="2" ry="2" style="fill:rgb(255,0,0);stroke:none;" />
  <ellipse cx="227.2275" cy="256.0955" rx="2" ry="2" style="fill:rgb(255,0,0);stroke:none;" />
  <ellipse cx="232.7682" cy="254.922" rx="2" ry="2" style="fill:rgb(255,0,0);stroke:none;" />
  <ellipse cx="238.3088" cy="252.5425" rx="2" ry="2" style="fill:rgb(255,0,0);stroke:none;" />
  <ellipse cx="243.8495" cy="251.0431" rx="2" ry="2" style="fill:rgb(255,0,0);stroke:none;" />
  <ellipse cx="249.3901" cy="249.1526" rx="2" ry="2" style="fill:rgb(255,0,0);stroke:none;" />
  <ellipse cx="254.9307" cy="247.262" rx="2" ry="2" style="fill:rgb(255,0,0);stroke:none;" />
  <ellipse cx="260.4714" cy="244.7522" rx="2" ry="2" style="fill:rgb(255,0,0);stroke:none;" />
  <ellipse cx="266.012" cy="243.5135" rx="2" ry="2" style="fill:rgb(255,0,0);stroke:none;" />
  <ellipse cx="271.5527" cy="241.9489" rx="2" ry="2" style="fill:rgb(255,0,0);stroke:none;" />
  <ellipse cx="277.0933" cy="239.928" rx="2" ry="2" style="fill:rgb(255,0,0);stroke:none;" />
  <ellipse cx="282.634" cy="237.8745" rx="2" ry="2" style="fill:rgb(255,0,0);stroke:none;" />
  <ellipse cx="288.1746" cy="236.538" rx="2" ry="2" style="fill:rgb(255,0,0);stroke:none;" />
  <ellipse cx="293.7153" cy="234.2238" rx="2" ry="2" style="fill:rgb(255,0,0);stroke:none;" />
  <ellipse cx="299.2559" cy="232.2028" rx="2" ry="2" style="fill:rgb(255,0,0);stroke:none;" />
  <ellipse cx="304.7965" cy="230.4426" rx="2" ry="2" style="fill:rgb(255,0,0);stroke:none;" />
  <ellipse cx="310.3372" cy="228.8455" rx="2" ry="2" style="fill:rgb(255,0,0);stroke:none;" />
  <ellipse cx="315.8778" cy="226.9875" rx="2" ry="2" style="fill:rgb(255,0,0);stroke:none;" />
  <ellipse cx="321.4184" cy="224.9992" rx="2" ry="2" style="fill:rgb(255,0,0);stroke:none;" />
  <ellipse cx="326.9591" cy="223.5975" rx="2" ry="2" style="fill:rgb(255,0,0);stroke:none;" />
  <ellipse cx="332.4997" cy="221.6092" rx="2" ry="2" style="fill:rgb(255,0,0);stroke:none;" />
  <ellipse cx="338.0404" cy="219.1971" rx="2" ry="2" style="fill:rgb(255,0,0);stroke:none;" />
  <ellipse cx="343.581" cy="218.0889" rx="2" ry="2" style="fill:rgb(255,0,0);stroke:none;" />
  <ellipse cx="349.1217" cy="215.8724" rx="2" ry="2" style="fill:rgb(255,0,0);stroke:none;" />
  <ellipse cx="354.6623" cy="214.4707" rx="2" ry="2" style="fill:rgb(255,0,0);stroke:none;" />
  <ellipse cx="360.203" cy="212.3846" rx="2" ry="2" style="fill:rgb(255,0,0);stroke:none;" />
  <ellipse cx="365.7436" cy="210.7874" rx="2" ry="2" style="fill:rgb(255,0,0);stroke:none;" />
  <ellipse cx="371.2842" cy="208.7013" rx="2" ry="2" style="fill:rgb(255,0,0);stroke:none;" />
  <ellipse cx="376.8249" cy="206.9737" rx="2" ry="2" style="fill:rgb(255,0,0);stroke:none;" />
  <ellipse cx="382.3655" cy="205.0506" rx="2" ry="2" style="fill:rgb(255,0,0);stroke:none;" />
  <ellipse cx="55.4677" cy="313.4568" rx="2" ry="2" style="fill:rgb(0,128,0);stroke:none;" />
  <ellipse cx="55.4677" cy="313.476" rx="2" ry="2" style="fill:rgb(0,128,0);stroke:none;" />
  <ellipse cx="55.4677" cy="313.4783" rx="2" ry="2" style="fill:rgb(0,128,0);stroke:none;" />
  <ellipse cx="61.0083" cy="308.4377" rx="2" ry="2" style="fill:rgb(0,128,0);stroke:none;" />
  <ellipse cx="66.5489" cy="302.942" rx="2" ry="2" style="fill:rgb(0,128,0);stroke:none;" />
  <ellipse cx="72.0896" cy="297.9647" rx="2" ry="2" style="fill:rgb(0,128,0);stroke:none;" />
  <ellipse cx="77.6302" cy="292.8406" rx="2" ry="2" style="fill:rgb(0,128,0);stroke:none;" />
  <ellipse cx="83.1709" cy="287.4363" rx="2" ry="2" style="fill:rgb(0,128,0);stroke:none;" />
  <ellipse cx="88.7115" cy="282.0156" rx="2" ry="2" style="fill:rgb(0,128,0);stroke:none;" />
  <ellipse cx="94.2521" cy="276.696" rx="2" ry="2" style="fill:rgb(0,128,0);stroke:none;" />
  <ellipse cx="99.7928" cy="271.8392" rx="2" ry="2" style="fill:rgb(0,128,0);stroke:none;" />
  <ellipse cx="105.3334" cy="266.2001" rx="2" ry="2" style="fill:rgb(0,128,0);stroke:none;" />
  <ellipse cx="110.8741" cy="261.5064" rx="2" ry="2" style="fill:rgb(0,128,0);stroke:none;" />
  <ellipse cx="116.4147" cy="255.7369" rx="2" ry="2" style="fill:rgb(0,128,0);stroke:none;" />
  <ellipse cx="121.9554" cy="250.6846" rx="2" ry="2" style="fill:rgb(0,128,0);stroke:none;" />
  <ellipse cx="127.496" cy="245.6323" rx="2" ry="2" style="fill:rgb(0,128,0);stroke:none;" />
  <ellipse cx="133.0366" cy="240.4169" rx="2" ry="2" style="fill:rgb(0,128,0);stroke:none;" />
  <ellipse cx="138.5773" cy="234.9735" rx="2" ry="2" style="fill:rgb(0,128,0);stroke:none;" />
  <ellipse cx="144.1179" cy="229.53" rx="2" ry="2" style="fill:rgb(0,128,0);stroke:none;" />
  <ellipse cx="149.6586" cy="224.9666" rx="2" ry="2" style="fill:rgb(0,128,0);stroke:none;" />
  <ellipse cx="155.1992" cy="219.8164" rx="2" ry="2" style="fill:rgb(0,128,0);stroke:none;" />
  <ellipse cx="160.7399" cy="214.4707" rx="2" ry="2" style="fill:rgb(0,128,0);stroke:none;" />
  <ellipse cx="166.2805" cy="209.3206" rx="2" ry="2" style="fill:rgb(0,128,0);stroke:none;" />
  <ellipse cx="171.8211" cy="203.6816" rx="2" ry="2" style="fill:rgb(0,128,0);stroke:none;" />
  <ellipse cx="177.3618" cy="199.1182" rx="2" ry="2" style="fill:rgb(0,128,0);stroke:none;" />
  <ellipse cx="182.9024" cy="193.6095" rx="2" ry="2" style="fill:rgb(0,128,0);stroke:none;" />
  <ellipse cx="188.4431" cy="188.8831" rx="2" ry="2" style="fill:rgb(0,128,0);stroke:none;" />
  <ellipse cx="193.9837" cy="183.4396" rx="2" ry="2" style="fill:rgb(0,128,0);stroke:none;" />
  <ellipse cx="199.5243" cy="178.0939" rx="2" ry="2" style="fill:rgb(0,128,0);stroke:none;" />
  <ellipse cx="205.065" cy="173.5957" rx="2" ry="2" style="fill:rgb(0,128,0);stroke:none;" />
  <ellipse cx="210.6056" cy="168.5108" rx="2" ry="2" style="fill:rgb(0,128,0);stroke:none;" />
  <ellipse cx="216.1463" cy="163.2955" rx="2" ry="2" style="fill:rgb(0,128,0);stroke:none;" />
  <ellipse cx="221.6869" cy="157.689" rx="2" ry="2" style="fill:rgb(0,128,0);stroke:none;" />
  <ellipse cx="227.2275" cy="151.2677" rx="2" ry="2" style="fill:rgb(0,128,0);stroke:none;" />
  <ellipse cx="232.7682" cy="148.1711" rx="2" ry="2" style="fill:rgb(0,128,0);stroke:none;" />
  <ellipse cx="238.3088" cy="142.4342" rx="2" ry="2" style="fill:rgb(0,128,0);stroke:none;" />
  <ellipse cx="243.8495" cy="136.9907" rx="2" ry="2" style="fill:rgb(0,128,0);stroke:none;" />
  <ellipse cx="249.3901" cy="132.2318" rx="2" ry="2" style="fill:rgb(0,128,0);stroke:none;" />
  <ellipse cx="254.9307" cy="127.2446" rx="2" ry="2" style="fill:rgb(0,128,0);stroke:none;" />
  <ellipse cx="260.4714" cy="120.5299" rx="2" ry="2" style="fill:rgb(0,128,0);stroke:none;" />
  <ellipse cx="266.012" cy="117.0748" rx="2" ry="2" style="fill:rgb(0,128,0);stroke:none;" />
  <ellipse cx="271.5527" cy="112.5765" rx="2" ry="2" style="fill:rgb(0,128,0);stroke:none;" />
  <ellipse cx="277.0933" cy="106.6115" rx="2" ry="2" style="fill:rgb(0,128,0);stroke:none;" />
  <ellipse cx="282.634" cy="101.0051" rx="2" ry="2" style="fill:rgb(0,128,0);stroke:none;" />
  <ellipse cx="288.1746" cy="96.0505" rx="2" ry="2" style="fill:rgb(0,128,0);stroke:none;" />
  <ellipse cx="293.7153" cy="90.9982" rx="2" ry="2" style="fill:rgb(0,128,0);stroke:none;" />
  <ellipse cx="299.2559" cy="85.5221" rx="2" ry="2" style="fill:rgb(0,128,0);stroke:none;" />
  <ellipse cx="304.7965" cy="80.8283" rx="2" ry="2" style="fill:rgb(0,128,0);stroke:none;" />
  <ellipse cx="310.3372" cy="75.45" rx="2" ry="2" style="fill:rgb(0,128,0);stroke:none;" />
  <ellipse cx="315.8778" cy="70.4303" rx="2" ry="2" style="fill:rgb(0,128,0);stroke:none;" />
  <ellipse cx="321.4184" cy="65.5735" rx="2" ry="2" style="fill:rgb(0,128,0);stroke:none;" />
  <ellipse cx="326.9591" cy="60.8471" rx="2" ry="2" style="fill:rgb(0,128,0);stroke:none;" />
  <ellipse cx="332.4997" cy="55.2081" rx="2" ry="2" style="fill:rgb(0,128,0);stroke:none;" />
  <ellipse cx="338.0404" cy="48.8193" rx="2" ry="2" style="fill:rgb(0,128,0);stroke:none;" />
  <ellipse cx="343.581" cy="45.2338" rx="2" ry="2" style="fill:rgb(0,128,0);stroke:none;" />
  <ellipse cx="349.1217" cy="40.0185" rx="2" ry="2" style="fill:rgb(0,128,0);stroke:none;" />
  <ellipse cx="354.6623" cy="35.4551" rx="2" ry="2" style="fill:rgb(0,128,0);stroke:none;" />
  <ellipse cx="360.203" cy="30.0442" rx="2" ry="2" style="fill:rgb(0,128,0);stroke:none;" />
  <ellipse cx="365.7436" cy="24.3399" rx="2" ry="2" style="fill:rgb(0,128,0);stroke:none;" />
  <ellipse cx="371.2842" cy="19.3528" rx="2" ry="2" style="fill:rgb(0,128,0);stroke:none;" />
  <ellipse cx="376.8249" cy="14.4634" rx="2" ry="2" style="fill:rgb(0,128,0);stroke:none;" />
  <ellipse cx="382.3655" cy="10.5845" rx="2" ry="2" style="fill:rgb(0,128,0);stroke:none;" />
  <ellipse cx="55.4677" cy="313.4568" rx="2" ry="2" style="fill:rgb(0,0,255);stroke:none;" />
  <ellipse cx="55.4677" cy="313.476" rx="2" ry="2" style="fill:rgb(0,0,255);stroke:none;" />
  <ellipse cx="55.4677" cy="313.4783" rx="2" ry="2" style="fill:rgb(0,0,255);stroke:none;" />
  <ellipse cx="61.0083" cy="312.694" rx="2" ry="2" style="fill:rgb(0,0,255);stroke:none;" />
  <ellipse cx="66.5489" cy="312.0747" rx="2" ry="2" style="fill:rgb(0,0,255);stroke:none;" />
  <ellipse cx="72.0896" cy="311.3367" rx="2" ry="2" style="fill:rgb(0,0,255);stroke:none;" />
  <ellipse cx="77.6302" cy="310.4782" rx="2" ry="2" style="fill:rgb(0,0,255);stroke:none;" />
  <ellipse cx="83.1709" cy="309.6763" rx="2" ry="2" style="fill:rgb(0,0,255);stroke:none;" />
  <ellipse cx="88.7115" cy="308.9266" rx="2" ry="2" style="fill:rgb(0,0,255);stroke:none;" />
  <ellipse cx="94.2521" cy="308.3888" rx="2" ry="2" style="fill:rgb(0,0,255);stroke:none;" />
  <ellipse cx="99.7928" cy="307.437" rx="2" ry="2" style="fill:rgb(0,0,255);stroke:none;" />
  <ellipse cx="105.3334" cy="306.5895" rx="2" ry="2" style="fill:rgb(0,0,255);stroke:none;" />
  <ellipse cx="110.8741" cy="305.8268" rx="2" ry="2" style="fill:rgb(0,0,255);stroke:none;" />
  <ellipse cx="116.4147" cy="305.0249" rx="2" ry="2" style="fill:rgb(0,0,255);stroke:none;" />
  <ellipse cx="121.9554" cy="304.1579" rx="2" ry="2" style="fill:rgb(0,0,255);stroke:none;" />
  <ellipse cx="127.496" cy="303.4603" rx="2" ry="2" style="fill:rgb(0,0,255);stroke:none;" />
  <ellipse cx="133.0366" cy="302.7725" rx="2" ry="2" style="fill:rgb(0,0,255);stroke:none;" />
  <ellipse cx="138.5773" cy="301.8762" rx="2" ry="2" style="fill:rgb(0,0,255);stroke:none;" />
  <ellipse cx="144.1179" cy="301.0384" rx="2" ry="2" style="fill:rgb(0,0,255);stroke:none;" />
  <ellipse cx="149.6586" cy="300.4061" rx="2" ry="2" style="fill:rgb(0,0,255);stroke:none;" />
  <ellipse cx="155.1992" cy="299.5521" rx="2" ry="2" style="fill:rgb(0,0,255);stroke:none;" />
  <ellipse cx="160.7399" cy="298.8839" rx="2" ry="2" style="fill:rgb(0,0,255);stroke:none;" />
  <ellipse cx="166.2805" cy="297.8147" rx="2" ry="2" style="fill:rgb(0,0,255);stroke:none;" />
  <ellipse cx="171.8211" cy="297.2085" rx="2" ry="2" style="fill:rgb(0,0,255);stroke:none;" />
  <ellipse cx="177.3618" cy="296.4783" rx="2" ry="2" style="fill:rgb(0,0,255);stroke:none;" />
  <ellipse cx="182.9024" cy="295.5037" rx="2" ry="2" style="fill:rgb(0,0,255);stroke:none;" />
  <ellipse cx="188.4431" cy="294.9137" rx="2" ry="2" style="fill:rgb(0,0,255);stroke:none;" />
  <ellipse cx="193.9837" cy="294.0727" rx="2" ry="2" style="fill:rgb(0,0,255);stroke:none;" />
  <ellipse cx="199.5243" cy="293.0818" rx="2" ry="2" style="fill:rgb(0,0,255);stroke:none;" />
  <ellipse cx="205.065" cy="292.3028" rx="2" ry="2" style="fill:rgb(0,0,255);stroke:none;" />
  <ellipse cx="210.6056" cy="291.6639" rx="2" ry="2" style="fill:rgb(0,0,255);stroke:none;" />
  <ellipse cx="216.1463" cy="290.999" rx="2" ry="2" style="fill:rgb(0,0,255);stroke:none;" />
  <ellipse cx="221.6869" cy="290.1515" rx="2" ry="2" style="fill:rgb(0,0,255);stroke:none;" />
  <ellipse cx="227.2275" cy="289.1573" rx="2" ry="2" style="fill:rgb(0,0,255);stroke:none;" />
  <ellipse cx="232.7682" cy="288.5347" rx="2" ry="2" style="fill:rgb(0,0,255);stroke:none;" />
  <ellipse cx="238.3088" cy="287.8698" rx="2" ry="2" style="fill:rgb(0,0,255);stroke:none;" />
  <ellipse cx="243.8495" cy="286.8952" rx="2" ry="2" style="fill:rgb(0,0,255);stroke:none;" />
  <ellipse cx="249.3901" cy="286.4062" rx="2" ry="2" style="fill:rgb(0,0,255);stroke:none;" />
  <ellipse cx="254.9307" cy="285.3958" rx="2" ry="2" style="fill:rgb(0,0,255);stroke:none;" />
  <ellipse cx="260.4714" cy="284.5124" rx="2" ry="2" style="fill:rgb(0,0,255);stroke:none;" />
  <ellipse cx="266.012" cy="284.1767" rx="2" ry="2" style="fill:rgb(0,0,255);stroke:none;" />
  <ellipse cx="271.5527" cy="283.4531" rx="2" ry="2" style="fill:rgb(0,0,255);stroke:none;" />
  <ellipse cx="277.0933" cy="282.2992" rx="2" ry="2" style="fill:rgb(0,0,255);stroke:none;" />
  <ellipse cx="282.634" cy="281.5527" rx="2" ry="2" style="fill:rgb(0,0,255);stroke:none;" />
  <ellipse cx="288.1746" cy="280.5423" rx="2" ry="2" style="fill:rgb(0,0,255);stroke:none;" />
  <ellipse cx="293.7153" cy="280.0859" rx="2" ry="2" style="fill:rgb(0,0,255);stroke:none;" />
  <ellipse cx="299.2559" cy="279.1406" rx="2" ry="2" style="fill:rgb(0,0,255);stroke:none;" />
  <ellipse cx="304.7965" cy="278.3584" rx="2" ry="2" style="fill:rgb(0,0,255);stroke:none;" />
  <ellipse cx="310.3372" cy="277.5435" rx="2" ry="2" style="fill:rgb(0,0,255);stroke:none;" />
  <ellipse cx="315.8778" cy="276.9893" rx="2" ry="2" style="fill:rgb(0,0,255);stroke:none;" />
  <ellipse cx="321.4184" cy="276.0441" rx="2" ry="2" style="fill:rgb(0,0,255);stroke:none;" />
  <ellipse cx="326.9591" cy="275.4247" rx="2" ry="2" style="fill:rgb(0,0,255);stroke:none;" />
  <ellipse cx="332.4997" cy="274.5121" rx="2" ry="2" style="fill:rgb(0,0,255);stroke:none;" />
  <ellipse cx="338.0404" cy="273.5016" rx="2" ry="2" style="fill:rgb(0,0,255);stroke:none;" />
  <ellipse cx="343.581" cy="272.8497" rx="2" ry="2" style="fill:rgb(0,0,255);stroke:none;" />
  <ellipse cx="349.1217" cy="272.1978" rx="2" ry="2" style="fill:rgb(0,0,255);stroke:none;" />
  <ellipse cx="354.6623" cy="271.5458" rx="2" ry="2" style="fill:rgb(0,0,255);stroke:none;" />
  <ellipse cx="360.203" cy="270.7635" rx="2" ry="2" style="fill:rgb(0,0,255);stroke:none;" />
  <ellipse cx="365.7436" cy="270.0138" rx="2" ry="2" style="fill:rgb(0,0,255);stroke:none;" />
  <ellipse cx="371.2842" cy="269.1012" rx="2" ry="2" style="fill:rgb(0,0,255);stroke:none;" />
  <ellipse cx="376.8249" cy="268.2211" rx="2" ry="2" style="fill:rgb(0,0,255);stroke:none;" />
  <ellipse cx="382.3655" cy="267.6996" rx="2" ry="2" style="fill:rgb(0,0,255);stroke:none;" />
  <polyline points="55.4677,313.395 58.7697,312.2962 62.0717,311.1986 65.3737,310.1014 68.6757,309.0046 71.9777,307.908 75.2796,306.8115 78.5816,305.7152 81.8836,304.619 85.1856,303.523 88.4876,302.427 91.7896,301.3311 95.0916,300.2353 98.3936,299.1396 101.6956,298.0439 104.9976,296.9484 108.2996,295.8528 111.6016,294.7573 114.9036,293.6619 118.2056,292.5665 121.5076,291.4712 124.8096,290.3759 128.1116,289.2806 131.4136,288.1854 134.7156,287.0903 138.0176,285.9951 141.3196,284.9 144.6216,283.805 147.9236,282.7099 151.2256,281.6149 154.5276,280.5199 157.8296,279.425 161.1316,278.3301 164.4336,277.2352 167.7356,276.1403 171.0376,275.0455 174.3396,273.9507 177.6416,272.8559 180.9436,271.7611 184.2456,270.6664 187.5476,269.5717 190.8496,268.477 194.1516,267.3823 197.4536,266.2876 200.7556,265.193 204.0576,264.0984 207.3596,263.0038 210.6616,261.9092 213.9636,260.8147 217.2656,259.7201 220.5676,258.6256 223.8696,257.5311 227.1716,256.4366 230.4736,255.3422 233.7756,254.2477 237.0776,253.1533 240.3796,252.0589 243.6816,250.9644 246.9836,249.8701 250.2856,248.7757 253.5876,247.6813 256.8896,246.587 260.1916,245.4927 263.4936,244.3983 266.7956,243.304 270.0976,242.2097 273.3996,241.1155 276.7016,240.0212 280.0036,238.927 283.3056,237.8327 286.6076,236.7385 289.9096,235.6443 293.2116,234.5501 296.5135,233.4559 299.8155,232.3617 303.1175,231.2676 306.4195,230.1734 309.7215,229.0793 313.0235,227.9851 316.3255,226.891 319.6275,225.7969 322.9295,224.7028 326.2315,223.6087 329.5335,222.5147 332.8355,221.4206 336.1375,220.3266 339.4395,219.2325 342.7415,218.1385 346.0435,217.0445 349.3455,215.9505 352.6475,214.8565 355.9495,213.7625 359.2515,212.6685 362.5535,211.5745 365.8555,210.4805 369.1575,209.3866 372.4595,208.2926 375.7615,207.1987 379.0635,206.1048 382.3655,205.0109" style="fill:none;stroke:rgb(255,0,0);stroke-width:1;stroke-linejoin:bevel" />
  <polyline points="55.4677,314.4179 58.7697,311.0985 62.0717,307.8537 65.3737,304.6365 68.6757,301.437 71.9777,298.2508 75.2796,295.0749 78.5816,291.9078 81.8836,288.748 85.1856,285.5947 88.4876,282.4471 91.7896,279.3047 95.0916,276.1669 98.3936,273.0334 101.6956,269.9038 104.9976,266.7778 108.2996,263.6553 111.6016,260.536 114.9036,257.4196 118.2056,254.3061 121.5076,251.1952 124.8096,248.0869 128.1116,244.981 131.4136,241.8774 134.7156,238.776 138.0176,235.6767 141.3196,232.5794 144.6216,229.484 147.9236,226.3906 151.2256,223.2989 154.5276,220.209 157.8296,217.1207 161.1316,214.0341 164.4336,210.9491 167.7356,207.8656 171.0376,204.7835 174.3396,201.7029 177.6416,198.6237 180.9436,195.5459 184.2456,192.4693 187.5476,189.3941 190.8496,186.3201 194.1516,183.2473 197.4536,180.1758 200.7556,177.1053 204.0576,174.0361 207.3596,170.9679 210.6616,167.9008 213.9636,164.8348 217.2656,161.7699 220.5676,158.7059 223.8696,155.643 227.1716,152.581 230.4736,149.52 233.7756,146.46 237.0776,143.4008 240.3796,140.3426 243.6816,137.2852 246.9836,134.2288 250.2856,131.1732 253.5876,128.1184 256.8896,125.0645 260.1916,122.0114 263.4936,118.9591 266.7956,115.9075 270.0976,112.8568 273.3996,109.8068 276.7016,106.7576 280.0036,103.7091 283.3056,100.6614 286.6076,97.6143 289.9096,94.568 293.2116,91.5224 296.5135,88.4775 299.8155,85.4332 303.1175,82.3896 306.4195,79.3467 309.7215,76.3044 313.0235,73.2628 316.3255,70.2218 319.6275,67.1815 322.9295,64.1418 326.2315,61.1026 329.5335,58.0641 332.8355,55.0262 336.1375,51.9889 339.4395,48.9521 342.7415,45.9159 346.0435,42.8803 349.3455,39.8453 352.6475,36.8108 355.9495,33.7769 359.2515,30.7435 362.5535,27.7106 365.8555,24.6783 369.1575,21.6465 372.4595,18.6152 375.7615,15.5845 379.0635,12.5542 382.3655,9.5245" style="fill:none;stroke:rgb(0,128,0);stroke-width:1;stroke-linejoin:bevel" />
  <polyline points="55.4677,313.5815 58.7697,313.1162 62.0717,312.6508 65.3737,312.1855 68.6757,311.7201 71.9777,311.2548 75.2796,310.7894 78.5816,310.3241 81.8836,309.8587 85.1856,309.3934 88.4876,308.928 91.7896,308.4627 95.0916,307.9973 98.3936,307.532 101.6956,307.0666 104.9976,306.6013 108.2996,306.136 111.6016,305.6706 114.9036,305.2053 118.2056,304.7399 121.5076,304.2746 124.8096,303.8092 128.1116,303.3439 131.4136,302.8786 134.7156,302.4132 138.0176,301.9479 141.3196,301.4825 144.6216,301.0172 147.9236,300.5518 151.2256,300.0865 154.5276,299.6212 157.8296,299.1558 161.1316,298.6905 164.4336,298.2251 167.7356,297.7598 171.0376,297.2945 174.3396,296.8291 177.6416,296.3638 180.9436,295.8985 184.2456,295.4331 187.5476,294.9678 190.8496,294.5024 194.1516,294.0371 197.4536,293.5718 200.7556,293.1064 204.0576,292.6411 207.3596,292.1757 210.6616,291.7104 213.9636,291.2451 217.2656,290.7797 220.5676,290.3144 223.8696,289.8491 227.1716,289.3837 230.4736,288.9184 233.7756,288.453 237.0776,287.9877 240.3796,287.5224 243.6816,287.057 246.9836,286.5917 250.2856,286.1264 253.5876,285.661 256.8896,285.1957 260.1916,284.7304 263.4936,284.265 266.7956,283.7997 270.0976,283.3343 273.3996,282.869 276.7016,282.4037 280.0036,281.9383 283.3056,281.473 286.6076,281.0077 289.9096,280.5423 293.2116,280.077 296.5135,279.6117 299.8155,279.1463 303.1175,278.681 306.4195,278.2157 309.7215,277.7503 313.0235,277.285 316.3255,276.8196 319.6275,276.3543 322.9295,275.889 326.2315,275.4236 329.5335,274.9583 332.8355,274.493 336.1375,274.0276 339.4395,273.5623 342.7415,273.097 346.0435,272.6316 349.3455,272.1663 352.6475,271.701 355.9495,271.2356 359.2515,270.7703 362.5535,270.305 365.8555,269.8396 369.1575,269.3743 372.4595,268.909 375.7615,268.4436 379.0635,267.9783 382.3655,267.513" style="fill:none;stroke:rgb(0,0,255);stroke-width:1;stroke-linejoin:bevel" />
  <polyline points="55.4677,313.395 58.7697,312.3042 62.0717,311.2122 65.3737,310.1198 68.6757,309.0271 71.9777,307.9341 75.2796,306.841 78.5816,305.7477 81.8836,304.6543 85.1856,303.5608 88.4876,302.4672 91.7896,301.3735 95.0916,300.2797 98.3936,299.1858 101.6956,298.0919 104.9976,296.9979 108.2996,295.9039 111.6016,294.8098 114.9036,293.7157 118.2056,292.6215 121.5076,291.5272 124.8096,290.4329 128.1116,289.3386 131.4136,288.2442 134.7156,287.1498 138.0176,286.0554 141.3196,284.9609 144.6216,283.8664 147.9236,282.7719 151.2256,281.6773 154.5276,280.5827 157.8296,279.4881 161.1316,278.3934 164.4336,277.2987 167.7356,276.204 171.0376,275.1093 174.3396,274.0145 177.6416,272.9197 180.9436,271.8249 184.2456,270.73 187.5476,269.6352 190.8496,268.5403 194.1516,267.4454 197.4536,266.3505 200.7556,265.2555 204.0576,264.1606 207.3596,263.0656 210.6616,261.9706 213.9636,260.8756 217.2656,259.7805 220.5676,258.6855 223.8696,257.5904 227.1716,256.4953 230.4736,255.4002 233.7756,254.3051 237.0776,253.2099 240.3796,252.1148 243.6816,251.0196 246.9836,249.9244 250.2856,248.8292 253.5876,247.734 256.8896,246.6387 260.1916,245.5435 263.4936,244.4482 266.7956,243.3529 270.0976,242.2577 273.3996,241.1624 276.7016,240.067 280.0036,238.9717 283.3056,237.8764 286.6076,236.781 289.9096,235.6856 293.2116,234.5903 296.5135,233.4949 299.8155,232.3995 303.1175,231.3041 306.4195,230.2086 309.7215,229.1132 313.0235,228.0177 316.3255,226.9223 319.6275,225.8268 322.9295,224.7313 326.2315,223.6358 329.5335,222.5403 332.8355,221.4448 336.1375,220.3493 339.4395,219.2537 342.7415,218.1582 346.0435,217.0626 349.3455,215.9671 352.6475,214.8715 355.9495,213.7759 359.2515,212.6803 362.5535,211.5847 365.8555,210.4891 369.1575,209.3935 372.4595,208.2978 375.7615,207.2022 379.0635,206.1065 382.3655,205.0109" style="fill:none;stroke:rgb(255,0,0);stroke-width:1;stroke-linejoin:bevel;stroke-dasharray:4,1" />
  <polyline points="55.4677,314.4179 58.7697,311.5641 62.0717,308.6444 65.3737,305.6992 68.6757,302.7373 71.9777,299.7631 75.2796,296.7789 78.5816,293.7863 81.8836,290.7867 85.1856,287.7808 88.4876,284.7694 91.7896,281.753 95.0916,278.732 98.3936,275.7068 101.6956,272.6777 104.9976,269.6451 108.2996,266.6091 111.6016,263.57 114.9036,260.5279 118.2056,257.483 121.5076,254.4354 124.8096,251.3853 128.1116,248.3328 131.4136,245.278 134.7156,242.2209 138.0176,239.1618 141.3196,236.1006 144.6216,233.0375 147.9236,229.9725 151.2256,226.9057 154.5276,223.8371 157.8296,220.7669 161.1316,217.695 164.4336,214.6215 167.7356,211.5464 171.0376,208.4699 174.3396,205.3919 177.6416,202.3124 180.9436,199.2316 184.2456,196.1495 187.5476,193.066 190.8496,189.9813 194.1516,186.8953 197.4536,183.8081 200.7556,180.7197 204.0576,177.6301 207.3596,174.5394 210.6616,171.4476 213.9636,168.3547 217.2656,165.2608 220.5676,162.1657 223.8696,159.0697 227.1716,155.9726 230.4736,152.8746 233.7756,149.7756 237.0776,146.6756 240.3796,143.5747 243.6816,140.4729 246.9836,137.3702 250.2856,134.2666 253.5876,131.1621 256.8896,128.0568 260.1916,124.9506 263.4936,121.8436 266.7956,118.7357 270.0976,115.6271 273.3996,112.5177 276.7016,109.4075 280.0036,106.2965 283.3056,103.1847 286.6076,100.0723 289.9096,96.959 293.2116,93.8451 296.5135,90.7304 299.8155,87.615 303.1175,84.499 306.4195,81.3822 309.7215,78.2648 313.0235,75.1466 316.3255,72.0279 319.6275,68.9084 322.9295,65.7884 326.2315,62.6676 329.5335,59.5463 332.8355,56.4243 336.1375,53.3017 339.4395,50.1785 342.7415,47.0547 346.0435,43.9303 349.3455,40.8053 352.6475,37.6798 355.9495,34.5536 359.2515,31.4269 362.5535,28.2996 365.8555,25.1718 369.1575,22.0434 372.4595,18.9145 375.7615,15.785 379.0635,12.655 382.3655,9.5245" style="fill:none;stroke:rgb(0,128,0);stroke-width:1;stroke-linejoin:bevel;stroke-dasharray:4,1" />
  <polyline points="55.4677,313.5815 58.7697,313.1162 62.0717,312.6509 65.3737,312.1856 68.6757,311.7202 71.9777,311.2549 75.2796,310.7896 78.5816,310.3243 81.8836,309.8589 85.1856,309.3936 88.4876,308.9283 91.7896,308.4629 95.0916,307.9976 98.3936,307.5323 101.6956,307.0669 104.9976,306.6016 108.2996,306.1363 111.6016,305.6709 114.9036,305.2056 118.2056,304.7403 121.5076,304.2749 124.8096,303.8096 128.1116,303.3443 131.4136,302.8789 134.7156,302.4136 138.0176,301.9482 141.3196,301.4829 144.6216,301.0176 147.9236,300.5522 151.2256,300.0869 154.5276,299.6216 157.8296,299.1562 161.1316,298.6909 164.4336,298.2255 167.7356,297.7602 171.0376,297.2949 174.3396,296.8295 177.6416,296.3642 180.9436,295.8988 184.2456,295.4335 187.5476,294.9682 190.8496,294.5028 194.1516,294.0375 197.4536,293.5721 200.7556,293.1068 204.0576,292.6415 207.3596,292.1761 210.6616,291.7108 213.9636,291.2454 217.2656,290.7801 220.5676,290.3148 223.8696,289.8494 227.1716,289.3841 230.4736,288.9187 233.7756,288.4534 237.0776,287.9881 240.3796,287.5227 243.6816,287.0574 246.9836,286.592 250.2856,286.1267 253.5876,285.6614 256.8896,285.196 260.1916,284.7307 263.4936,284.2653 266.7956,283.8 270.0976,283.3346 273.3996,282.8693 276.7016,282.404 280.0036,281.9386 283.3056,281.4733 286.6076,281.0079 289.9096,280.5426 293.2116,280.0772 296.5135,279.6119 299.8155,279.1466 303.1175,278.6812 306.4195,278.2159 309.7215,277.7505 313.0235,277.2852 316.3255,276.8198 319.6275,276.3545 322.9295,275.8892 326.2315,275.4238 329.5335,274.9585 332.8355,274.4931 336.1375,274.0278 339.4395,273.5624 342.7415,273.0971 346.0435,272.6317 349.3455,272.1664 352.6475,271.7011 355.9495,271.2357 359.2515,270.7704 362.5535,270.305 365.8555,269.8397 369.1575,269.3743 372.4595,268.909 375.7615,268.4437 379.0635,267.9783 382.3655,267.513" style="fill:none;stroke:rgb(0,0,255);stroke-width:1;stroke-linejoin:bevel;stroke-dasharray:4,1" />
  <polygon points="53.825,8 384,8 384,315.95 53.825,315.95" style="fill:none;stroke:black;stroke-width:1" />
  <polygon points="61.825,16 130.9312,16 130.9312,185.225 61.825,185.225" style="fill:none;stroke:none;" />
  <text dominant-baseline="hanging" text-anchor="start" transform="translate(89.825,24)" font-family="Segoe UI" font-size="12" font-weight="400" fill="black">R</text>
  <ellipse cx="77.825" cy="32.5125" rx="2" ry="2" style="fill:rgb(255,0,0);stroke:none;" />
  <text dominant-baseline="hanging" text-anchor="start" transform="translate(89.825,41.025)" font-family="Segoe UI" font-size="12" font-weight="400" fill="black">G</text>
  <ellipse cx="77.825" cy="49.5375" rx="2" ry="2" style="fill:rgb(0,128,0);stroke:none;" />
  <text dominant-baseline="hanging" text-anchor="start" transform="translate(89.825,58.05)" font-family="Segoe UI" font-size="12" font-weight="400" fill="black">B</text>
  <ellipse cx="77.825" cy="66.5625" rx="2" ry="2" style="fill:rgb(0,0,255);stroke:none;" />
  <text dominant-baseline="hanging" text-anchor="start" transform="translate(89.825,75.075)" font-family="Segoe UI" font-size="12" font-weight="400" fill="black">RFit</text>
  <polyline points="69.825,83.5875 85.825,83.5875" style="fill:none;stroke:rgb(255,0,0);stroke-width:1" />
  <text dominant-baseline="hanging" text-anchor="start" transform="translate(89.825,92.1)" font-family="Segoe UI" font-size="12" font-weight="400" fill="black">GFit</text>
  <polyline points="69.825,100.6125 85.825,100.6125" style="fill:none;stroke:rgb(0,128,0);stroke-width:1" />
  <text dominant-baseline="hanging" text-anchor="start" transform="translate(89.825,109.125)" font-family="Segoe UI" font-size="12" font-weight="400" fill="black">BFit</text>
  <polyline points="69.825,117.6375 85.825,117.6375" style="fill:none;stroke:rgb(0,0,255);stroke-width:1" />
  <text dominant-baseline="hanging" text-anchor="start" transform="translate(89.825,126.15)" font-family="Segoe UI" font-size="12" font-weight="400" fill="black">RCorr</text>
  <polyline points="69.825,134.6625 85.825,134.6625" style="fill:none;stroke:rgb(255,0,0);stroke-width:1;stroke-dasharray:4,1" />
  <text dominant-baseline="hanging" text-anchor="start" transform="translate(89.825,143.175)" font-family="Segoe UI" font-size="12" font-weight="400" fill="black">GCorr</text>
  <polyline points="69.825,151.6875 85.825,151.6875" style="fill:none;stroke:rgb(0,128,0);stroke-width:1;stroke-dasharray:4,1" />
  <text dominant-baseline="hanging" text-anchor="start" transform="translate(89.825,160.2)" font-family="Segoe UI" font-size="12" font-weight="400" fill="black">BCorr</text>
  <polyline points="69.825,168.7125 85.825,168.7125" style="fill:none;stroke:rgb(0,0,255);stroke-width:1;stroke-dasharray:4,1" />
</svg>